<svg id="Capa_1" data-name="Capa 1" xmlns="http://www.w3.org/2000/svg" xmlns:xlink="http://www.w3.org/1999/xlink" viewBox="0 0 1023.7 169.94"><defs><style>.cls-1{fill:url(#linear-gradient);}.cls-2{fill:#fff;}</style><linearGradient id="linear-gradient" x1="0.3" y1="84.59" x2="1024" y2="84.59" gradientUnits="userSpaceOnUse"><stop offset="0" stop-color="#5a9e97"/><stop offset="1" stop-color="#67a86a"/></linearGradient></defs><title>PolisPay2-4</title><path class="cls-1" d="M1024,152.19c0,9.59-13.62,17.37-30.42,17.37H30.72C13.92,169.56.3,161.78.3,152.19V17C.3,7.39,13.92-.38,30.72-.38H993.58C1010.38-.38,1024,7.39,1024,17Z" transform="translate(-0.3 0.38)"/><path class="cls-2" d="M416,67h20.33v3.48H419.58V81.56h16.64V85H419.58V99h16.64v3.47H416Z" transform="translate(-0.3 0.38)"/><path class="cls-2" d="M441.92,76.21h3.37v4.53a13.11,13.11,0,0,1,3.62-3.66,10.27,10.27,0,0,1,5.39-1.54,9.12,9.12,0,0,1,3.62.74,7.89,7.89,0,0,1,2.8,2,10.8,10.8,0,0,1,1.88,3.56,12.54,12.54,0,0,1,4.21-4.69,10,10,0,0,1,5.44-1.6,8.49,8.49,0,0,1,4.8,1.37,8.27,8.27,0,0,1,3.09,3.83,20.55,20.55,0,0,1,1,7.38v14.33H477.7V88.12a18.79,18.79,0,0,0-.6-5.8,5.2,5.2,0,0,0-2.05-2.54,6.18,6.18,0,0,0-3.48-1,7.57,7.57,0,0,0-4.48,1.44,8.41,8.41,0,0,0-3,3.86c-.62,1.61-.93,4.29-.93,8.06v10.27h-3.38V89a23.31,23.31,0,0,0-.59-6.46,5.42,5.42,0,0,0-2.06-2.72,6,6,0,0,0-3.5-1,7.56,7.56,0,0,0-4.38,1.41,8.31,8.31,0,0,0-3,3.79,20.53,20.53,0,0,0-1,7.31v11.12h-3.37Z" transform="translate(-0.3 0.38)"/><path class="cls-2" d="M488.31,76.21h3.38V81a13.61,13.61,0,0,1,4.6-4.12,12.21,12.21,0,0,1,5.81-1.37,13,13,0,0,1,9.56,4,13.33,13.33,0,0,1,4,9.7,13.59,13.59,0,0,1-3.94,9.83,13.3,13.3,0,0,1-15.27,2.73,14.47,14.47,0,0,1-4.74-3.88v14.11h-3.38Zm13.51,2.58a9.93,9.93,0,0,0-7.38,3.06,10.48,10.48,0,0,0-3,7.61,10.8,10.8,0,0,0,1.33,5.37,9.74,9.74,0,0,0,3.83,3.78,10.49,10.49,0,0,0,5.25,1.4A9.93,9.93,0,0,0,507,98.6a10.31,10.31,0,0,0,3.81-3.94,10.61,10.61,0,0,0,0-10.59,10.16,10.16,0,0,0-9-5.28Z" transform="translate(-0.3 0.38)"/><path class="cls-2" d="M534.37,75.54a13,13,0,0,1,10,4.38,14.08,14.08,0,0,1-.2,19.09,13.88,13.88,0,0,1-19.72,0A14.07,14.07,0,0,1,524.3,80,13,13,0,0,1,534.37,75.54Zm0,3.3A9.73,9.73,0,0,0,527.13,82a10.38,10.38,0,0,0-3,7.52,10.68,10.68,0,0,0,1.38,5.31,9.74,9.74,0,0,0,3.73,3.8,10.57,10.57,0,0,0,10.3,0,9.74,9.74,0,0,0,3.73-3.8,10.68,10.68,0,0,0,1.38-5.31,10.35,10.35,0,0,0-3-7.52A9.75,9.75,0,0,0,534.36,78.84Z" transform="translate(-0.3 0.38)"/><path class="cls-2" d="M550.75,76.21h3.47l8,19.05,8.37-19.05h.61l8.43,19.05,8.2-19.05h3.51L580,102.45h-.62L571,83.66l-8.39,18.79H562Z" transform="translate(-0.3 0.38)"/><path class="cls-2" d="M617.42,93.74l2.85,1.5A15.62,15.62,0,0,1,617,99.68a13,13,0,0,1-4.13,2.56,14.34,14.34,0,0,1-5.19.88q-6.42,0-10-4.21a14.38,14.38,0,0,1-.56-18.41,12.54,12.54,0,0,1,10.41-5,12.93,12.93,0,0,1,10.71,5.08,14.21,14.21,0,0,1,2.9,9H597.53a10.68,10.68,0,0,0,2.92,7.49,9.31,9.31,0,0,0,7,2.92,11.37,11.37,0,0,0,3.9-.69,10.5,10.5,0,0,0,3.22-1.85A15.57,15.57,0,0,0,617.42,93.74Zm0-7.06a11.24,11.24,0,0,0-2-4.32A9.28,9.28,0,0,0,612,79.75a10.62,10.62,0,0,0-4.47-1,9.65,9.65,0,0,0-6.64,2.48,11.21,11.21,0,0,0-3.06,5.43Z" transform="translate(-0.3 0.38)"/><path class="cls-2" d="M626.16,76.21h3.44V80a12.16,12.16,0,0,1,3.26-3.38,6.39,6.39,0,0,1,3.57-1.12,6.1,6.1,0,0,1,3,.89l-1.76,2.84a4.77,4.77,0,0,0-1.79-.45,4.88,4.88,0,0,0-3.25,1.38,8.78,8.78,0,0,0-2.39,4.31q-.63,2.23-.63,9.06v8.88h-3.44Z" transform="translate(-0.3 0.38)"/><path class="cls-2" d="M643.46,65.41a2.79,2.79,0,0,1,2,4.75,2.78,2.78,0,0,1-3.92-3.93A2.66,2.66,0,0,1,643.46,65.41Zm-1.68,10.8h3.38v26.24h-3.38Z" transform="translate(-0.3 0.38)"/><path class="cls-2" d="M652.17,76.21h3.38v4.7a14.22,14.22,0,0,1,4.49-4,11,11,0,0,1,5.35-1.33A9.35,9.35,0,0,1,670.61,77a8.89,8.89,0,0,1,3.36,4q1.1,2.52,1.09,7.88v13.51h-3.38V89.93a31,31,0,0,0-.37-6.05A6.64,6.64,0,0,0,669.06,80a6.78,6.78,0,0,0-4.34-1.31,8.3,8.3,0,0,0-5.49,2,9.49,9.49,0,0,0-3.2,5,35,35,0,0,0-.48,7.14v9.62h-3.38Z" transform="translate(-0.3 0.38)"/><path class="cls-2" d="M704.91,76.21h3.38V97.12a24.5,24.5,0,0,1-1,8.08,10.5,10.5,0,0,1-4.6,5.57,15.19,15.19,0,0,1-7.89,2,17.92,17.92,0,0,1-6.06-1,12.14,12.14,0,0,1-4.38-2.56,15.37,15.37,0,0,1-3.11-4.7H685a9.68,9.68,0,0,0,3.86,3.86,12.48,12.48,0,0,0,5.86,1.25,12.12,12.12,0,0,0,5.84-1.29,7.88,7.88,0,0,0,3.39-3.23,14.5,14.5,0,0,0,1-6.28V97.46a12.81,12.81,0,0,1-4.66,3.7,13.8,13.8,0,0,1-12.64-.51,12.79,12.79,0,0,1-4.93-4.83,13.24,13.24,0,0,1-1.74-6.68,13.46,13.46,0,0,1,1.81-6.79,13.73,13.73,0,0,1,11.76-6.81A12.6,12.6,0,0,1,700,76.75a15.1,15.1,0,0,1,4.91,4Zm-10,2.58a10.57,10.57,0,0,0-5.32,1.39A10,10,0,0,0,685.76,84a10.52,10.52,0,0,0-1.39,5.3,9.53,9.53,0,0,0,2.89,7.13,11.42,11.42,0,0,0,15,0,9.89,9.89,0,0,0,2.83-7.36,10.61,10.61,0,0,0-1.3-5.29,9.53,9.53,0,0,0-3.69-3.68A10.25,10.25,0,0,0,695,78.79Z" transform="translate(-0.3 0.38)"/><path class="cls-2" d="M729.25,76.21h3.37V81a13.71,13.71,0,0,1,4.6-4.12A12.21,12.21,0,0,1,743,75.54a13,13,0,0,1,9.56,4,13.33,13.33,0,0,1,4,9.7,13.55,13.55,0,0,1-3.94,9.83,13.28,13.28,0,0,1-15.26,2.73,14.61,14.61,0,0,1-4.75-3.88v14.11h-3.37Zm13.5,2.58a9.89,9.89,0,0,0-7.37,3.06,10.44,10.44,0,0,0-3,7.61,10.81,10.81,0,0,0,1.34,5.37,9.71,9.71,0,0,0,3.82,3.78,10.5,10.5,0,0,0,5.26,1.4,9.89,9.89,0,0,0,5.11-1.41,10.24,10.24,0,0,0,3.81-3.94,10.65,10.65,0,0,0,0-10.59,10.19,10.19,0,0,0-9-5.28Z" transform="translate(-0.3 0.38)"/><path class="cls-2" d="M789,76.21v26.24H785.7V97.94a14.54,14.54,0,0,1-4.76,3.88,13.33,13.33,0,0,1-15.29-2.73,13.55,13.55,0,0,1-3.94-9.83,13.29,13.29,0,0,1,4-9.7,13,13,0,0,1,9.57-4,12.37,12.37,0,0,1,5.85,1.37A13.4,13.4,0,0,1,785.7,81V76.21Zm-13.5,2.58a10.19,10.19,0,0,0-9,5.28,10.61,10.61,0,0,0,0,10.59,10.34,10.34,0,0,0,3.82,3.94,10,10,0,0,0,5.14,1.41,10.43,10.43,0,0,0,5.25-1.4,9.71,9.71,0,0,0,3.82-3.78,10.81,10.81,0,0,0,1.34-5.37,10.44,10.44,0,0,0-3-7.61A9.94,9.94,0,0,0,775.53,78.79Z" transform="translate(-0.3 0.38)"/><path class="cls-2" d="M793.8,76.21h3.57l9,20.2,8.76-20.2h3.59l-15.65,35.84h-3.57l5.05-11.59Z" transform="translate(-0.3 0.38)"/><path class="cls-2" d="M823.08,76.21h3.37v4.53a13.13,13.13,0,0,1,3.63-3.66,10.23,10.23,0,0,1,5.38-1.54,9.09,9.09,0,0,1,3.62.74,7.89,7.89,0,0,1,2.8,2,10.8,10.8,0,0,1,1.89,3.56,12.44,12.44,0,0,1,4.2-4.69,10,10,0,0,1,5.44-1.6,8.49,8.49,0,0,1,4.8,1.37,8.21,8.21,0,0,1,3.09,3.83,20.32,20.32,0,0,1,1,7.38v14.33h-3.44V88.12a19.12,19.12,0,0,0-.6-5.8,5.27,5.27,0,0,0-2.06-2.54,6.16,6.16,0,0,0-3.47-1,7.6,7.6,0,0,0-4.49,1.44,8.41,8.41,0,0,0-3,3.86c-.62,1.61-.93,4.29-.93,8.06v10.27H841V89a22.91,22.91,0,0,0-.59-6.46,5.37,5.37,0,0,0-2.06-2.72,6,6,0,0,0-3.5-1,7.51,7.51,0,0,0-4.37,1.41,8.33,8.33,0,0,0-3,3.79,20.53,20.53,0,0,0-1,7.31v11.12h-3.37Z" transform="translate(-0.3 0.38)"/><path class="cls-2" d="M891.52,93.74l2.84,1.5a15.62,15.62,0,0,1-3.23,4.44,12.94,12.94,0,0,1-4.13,2.56,14.34,14.34,0,0,1-5.19.88q-6.42,0-10-4.21a14.19,14.19,0,0,1-3.62-9.51,14,14,0,0,1,3.07-8.9,12.52,12.52,0,0,1,10.4-5,12.93,12.93,0,0,1,10.71,5.08,14.21,14.21,0,0,1,2.9,9H871.62a10.73,10.73,0,0,0,2.92,7.49,9.32,9.32,0,0,0,7,2.92,11.29,11.29,0,0,0,3.9-.69,10.5,10.5,0,0,0,3.22-1.85A15.57,15.57,0,0,0,891.52,93.74Zm0-7.06a11.25,11.25,0,0,0-2-4.32,9.28,9.28,0,0,0-3.42-2.61,10.55,10.55,0,0,0-4.46-1A9.63,9.63,0,0,0,875,81.25,11.14,11.14,0,0,0,872,86.68Z" transform="translate(-0.3 0.38)"/><path class="cls-2" d="M901.53,76.21h3.37v4.7a14.22,14.22,0,0,1,4.49-4,11,11,0,0,1,5.35-1.33A9.35,9.35,0,0,1,920,77a9,9,0,0,1,3.37,4q1.08,2.52,1.08,7.88v13.51H921V89.93a31,31,0,0,0-.37-6.05A6.64,6.64,0,0,0,918.41,80a6.78,6.78,0,0,0-4.34-1.31,8.32,8.32,0,0,0-5.49,2,9.49,9.49,0,0,0-3.2,5,35,35,0,0,0-.48,7.14v9.62h-3.37Z" transform="translate(-0.3 0.38)"/><path class="cls-2" d="M934.59,66.47H938v9.74h5.36v2.92H938v23.32h-3.37V79.13H930V76.21h4.61Z" transform="translate(-0.3 0.38)"/><path class="cls-2" d="M961.57,79.08l-2.17,2.24c-1.8-1.75-3.57-2.62-5.29-2.62a4,4,0,0,0-2.82,1.08,3.35,3.35,0,0,0-1.17,2.53,3.76,3.76,0,0,0,1,2.44,13.63,13.63,0,0,0,4.06,2.77,15.15,15.15,0,0,1,5.13,3.76,6.9,6.9,0,0,1,1.33,4.13,7.4,7.4,0,0,1-2.27,5.47,7.75,7.75,0,0,1-5.68,2.24,10,10,0,0,1-4.34-1,9.4,9.4,0,0,1-3.41-2.72L948,97c1.72,1.94,3.55,2.92,5.49,2.92A4.93,4.93,0,0,0,957,98.61a4,4,0,0,0,1.43-3.06,3.93,3.93,0,0,0-.94-2.58,15.28,15.28,0,0,0-4.26-2.8,13.63,13.63,0,0,1-4.83-3.61,6.85,6.85,0,0,1-1.28-4.08,6.64,6.64,0,0,1,2-5,7.1,7.1,0,0,1,5.16-2Q957.9,75.54,961.57,79.08Z" transform="translate(-0.3 0.38)"/><path class="cls-2" d="M971.27,97.14a2.84,2.84,0,0,1,2.09.87,3,3,0,0,1,0,4.23,2.93,2.93,0,0,1-4.19,0,3,3,0,0,1,0-4.23A2.86,2.86,0,0,1,971.27,97.14Z" transform="translate(-0.3 0.38)"/><path class="cls-2" d="M113.43,33A43.82,43.82,0,0,0,69.6,76.77v72.31l15.67-17.45v-55a27.73,27.73,0,1,1,18.2,26.07v16.73a43.83,43.83,0,1,0,10-86.51Z" transform="translate(-0.3 0.38)"/><path class="cls-2" d="M121.1,78a7.67,7.67,0,1,0-7.67,7.67A7.67,7.67,0,0,0,121.1,78Z" transform="translate(-0.3 0.38)"/><path class="cls-2" d="M199.22,84.85a18.46,18.46,0,0,1-1.31,7,16.19,16.19,0,0,1-3.7,5.54,17,17,0,0,1-5.67,3.63,20.5,20.5,0,0,1-14.42,0,17.09,17.09,0,0,1-5.64-3.63,16.19,16.19,0,0,1-3.7-5.54,19.3,19.3,0,0,1,0-14,16.09,16.09,0,0,1,3.7-5.54,17.09,17.09,0,0,1,5.64-3.63,20.5,20.5,0,0,1,14.42,0,17,17,0,0,1,5.67,3.63,16.09,16.09,0,0,1,3.7,5.54A18.46,18.46,0,0,1,199.22,84.85Zm-17.87,10a9.35,9.35,0,0,0,7.09-2.79,11.16,11.16,0,0,0,0-14.44,10.45,10.45,0,0,0-14.22,0,11.07,11.07,0,0,0,0,14.44A9.44,9.44,0,0,0,181.35,94.86Z" transform="translate(-0.3 0.38)"/><path class="cls-2" d="M205.6,101.44V53.74h8v47.7Z" transform="translate(-0.3 0.38)"/><path class="cls-2" d="M226.43,64.29A5.29,5.29,0,0,1,221.12,59a5.21,5.21,0,0,1,1.55-3.83,5.41,5.41,0,0,1,7.56,0A5.26,5.26,0,0,1,231.74,59a5.23,5.23,0,0,1-5.31,5.31Zm-4,37.15V68.25h8v33.19Z" transform="translate(-0.3 0.38)"/><path class="cls-2" d="M256.13,77.79a3.26,3.26,0,0,0-1.48-2.48,6.35,6.35,0,0,0-3.7-.94,6.23,6.23,0,0,0-4,1.07,3.4,3.4,0,0,0-1.31,2.76,2.11,2.11,0,0,0,1.41,2.08,15,15,0,0,0,3.56.94c1.43.23,3,.45,4.6.67a15.69,15.69,0,0,1,4.6,1.35,9.21,9.21,0,0,1,3.56,2.89,8.61,8.61,0,0,1,1.42,5.3A9.83,9.83,0,0,1,261,99.26a13.42,13.42,0,0,1-4.4,2.25,19.14,19.14,0,0,1-5.74.81,18.8,18.8,0,0,1-5.71-.81,14,14,0,0,1-4.37-2.21A10.16,10.16,0,0,1,238,95.94a9.84,9.84,0,0,1-1.08-4.3H245a3.29,3.29,0,0,0,1.52,2.68,7.44,7.44,0,0,0,4.26,1c2.15,0,3.69-.36,4.6-1.07a3.42,3.42,0,0,0,1.38-2.83,2,2,0,0,0-1.41-2,14.78,14.78,0,0,0-3.56-.88l-4.6-.64a16.27,16.27,0,0,1-4.6-1.31A8.77,8.77,0,0,1,239,83.64a9.07,9.07,0,0,1-1.42-5.44,9.88,9.88,0,0,1,3.6-7.76,12.13,12.13,0,0,1,4.16-2.25,17.43,17.43,0,0,1,5.48-.81,17,17,0,0,1,5.44.81,12.63,12.63,0,0,1,4.13,2.21,10.1,10.1,0,0,1,2.66,3.3,9.72,9.72,0,0,1,1,4.09Z" transform="translate(-0.3 0.38)"/><path class="cls-2" d="M272.06,101.19V57.25H290a22.5,22.5,0,0,1,7.43,1.1,13.56,13.56,0,0,1,5.13,3.13,12.58,12.58,0,0,1,3,4.74,18.52,18.52,0,0,1,0,11.89,12.54,12.54,0,0,1-3,4.73A13.56,13.56,0,0,1,297.43,86,22.23,22.23,0,0,1,290,87.08h-9.34v14.11Zm18.07-22q4.31,0,6-2a7.47,7.47,0,0,0,1.68-5,7.33,7.33,0,0,0-1.68-4.93q-1.68-2-6-2h-9.47V79.15Z" transform="translate(-0.3 0.38)"/><path class="cls-2" d="M345.49,101.19h-7.32V95H338a10.68,10.68,0,0,1-4.43,5.14,13.59,13.59,0,0,1-7.32,1.92,17.34,17.34,0,0,1-5.91-1.07,15.41,15.41,0,0,1-5.28-3.26,16.64,16.64,0,0,1-3.76-5.45,18.85,18.85,0,0,1-1.44-7.69,18.31,18.31,0,0,1,1.31-7,16.12,16.12,0,0,1,3.69-5.53,17.16,17.16,0,0,1,5.65-3.64,19.25,19.25,0,0,1,7.22-1.31,19.63,19.63,0,0,1,7.18,1.28A16.08,16.08,0,0,1,340.56,72a16.58,16.58,0,0,1,3.63,5.58,19.44,19.44,0,0,1,1.3,7.29ZM327.76,94.6a9.35,9.35,0,0,0,7.09-2.78,11.14,11.14,0,0,0,0-14.45,9.32,9.32,0,0,0-7.09-2.79,9.42,9.42,0,0,0-7.12,2.79,11,11,0,0,0,0,14.45A9.45,9.45,0,0,0,327.76,94.6Z" transform="translate(-0.3 0.38)"/><path class="cls-2" d="M376.88,96.35h-.14a10.76,10.76,0,0,1-4,3.9,11.47,11.47,0,0,1-5.77,1.4,16.45,16.45,0,0,1-5.58-1,13.57,13.57,0,0,1-4.77-3,14.24,14.24,0,0,1-3.32-5.2,20.78,20.78,0,0,1-1.25-7.63V68h8V84.86c0,3.18.76,5.54,2.28,7.06a9.15,9.15,0,0,0,12.17-.07c1.56-1.57,2.35-3.9,2.35-7V68h8v32.05a19.27,19.27,0,0,1-1.27,7.42,13.14,13.14,0,0,1-3.53,5,14,14,0,0,1-5.27,2.85,22.54,22.54,0,0,1-6.45.9,21.13,21.13,0,0,1-5.47-.67,15.17,15.17,0,0,1-4.71-2.08,13.79,13.79,0,0,1-3.63-3.56,14.12,14.12,0,0,1-2.18-5.1h8q2,4.5,8,4.5a8.81,8.81,0,0,0,6.32-2.12q2.22-2.11,2.22-7Z" transform="translate(-0.3 0.38)"/></svg>