<svg id="Capa_1" data-name="Capa 1" xmlns="http://www.w3.org/2000/svg" xmlns:xlink="http://www.w3.org/1999/xlink" viewBox="0 0 773.08 1024.21"><defs><style>.cls-1{fill:url(#linear-gradient);}.cls-2{fill:url(#linear-gradient-2);}</style><linearGradient id="linear-gradient" x1="0.22" y1="511.9" x2="773.3" y2="511.9" gradientUnits="userSpaceOnUse"><stop offset="0" stop-color="#5a9e97"/><stop offset="1" stop-color="#67a86a"/></linearGradient><linearGradient id="linear-gradient-2" x1="319.15" y1="397.31" x2="454.41" y2="397.31" xlink:href="#linear-gradient"/></defs><title>P-PolisPay</title><path class="cls-1" d="M386.8-.21C173.27-.21.22,172.83.22,386.3V1024L138.44,870.09V385.33c0-135.22,109.61-244.82,244.83-244.82s244.84,109.6,244.84,244.82S518.45,630.17,383.27,630.17a244.73,244.73,0,0,1-84.38-15V762.76a384.33,384.33,0,0,0,87.91,10.11c213.42,0,386.5-173.09,386.5-386.57S600.22-.21,386.8-.21Z" transform="translate(-0.22 0.21)"/><path class="cls-2" d="M454.41,397.27A67.63,67.63,0,1,0,386.77,465,67.64,67.64,0,0,0,454.41,397.27Z" transform="translate(-0.22 0.21)"/></svg>