<svg id="Capa_1" data-name="Capa 1" xmlns="http://www.w3.org/2000/svg" xmlns:xlink="http://www.w3.org/1999/xlink" viewBox="0 0 1020.09 375.76"><defs><style>.cls-1{fill:url(#linear-gradient);}.cls-2{fill:url(#linear-gradient-2);}.cls-3{fill:#aeaeae;}.cls-4{fill:url(#linear-gradient-3);}.cls-5{fill:url(#linear-gradient-4);}.cls-6{fill:url(#linear-gradient-5);}</style><linearGradient id="linear-gradient" x1="15.91" y1="261.14" x2="299.53" y2="261.14" gradientUnits="userSpaceOnUse"><stop offset="0" stop-color="#5a9e97"/><stop offset="1" stop-color="#67a86a"/></linearGradient><linearGradient id="linear-gradient-2" x1="132.92" y1="219.1" x2="182.54" y2="219.1" xlink:href="#linear-gradient"/><linearGradient id="linear-gradient-3" x1="671" y1="222.97" x2="782.53" y2="222.97" xlink:href="#linear-gradient"/><linearGradient id="linear-gradient-4" x1="793.4" y1="240.35" x2="908.61" y2="240.35" xlink:href="#linear-gradient"/><linearGradient id="linear-gradient-5" x1="929.92" y1="264.7" x2="1036" y2="264.7" xlink:href="#linear-gradient"/></defs><title>PolisPayLogo</title><path class="cls-1" d="M157.73,73.26A141.79,141.79,0,0,0,15.91,215.05V449l50.71-56.47V214.7A89.77,89.77,0,1,1,125.48,299v54.13A141.81,141.81,0,1,0,157.73,73.26Z" transform="translate(-15.91 -73.26)"/><path class="cls-2" d="M182.54,219.08a24.81,24.81,0,1,0-24.82,24.84A24.81,24.81,0,0,0,182.54,219.08Z" transform="translate(-15.91 -73.26)"/><path class="cls-3" d="M435.31,241.18a59.48,59.48,0,0,1-4.24,22.62,52.11,52.11,0,0,1-12,17.93,55.46,55.46,0,0,1-18.37,11.74,66.22,66.22,0,0,1-46.63,0,55.69,55.69,0,0,1-18.26-11.74,51.82,51.82,0,0,1-12-17.93,62.43,62.43,0,0,1,0-45.23,51.82,51.82,0,0,1,12-17.93,55.69,55.69,0,0,1,18.26-11.74,66.22,66.22,0,0,1,46.63,0,55.46,55.46,0,0,1,18.37,11.74,52.11,52.11,0,0,1,12,17.93A59.47,59.47,0,0,1,435.31,241.18Zm-57.83,32.4q14.34,0,22.93-9T409,241.18q0-14.34-8.59-23.37t-22.93-9q-14.36,0-23,9t-8.7,23.37q0,14.35,8.7,23.38T377.48,273.58Z" transform="translate(-15.91 -73.26)"/><path class="cls-3" d="M456,294.88V140.53h25.87V294.88Z" transform="translate(-15.91 -73.26)"/><path class="cls-3" d="M523.35,174.66a17.07,17.07,0,0,1-17.17-17.17,16.83,16.83,0,0,1,5-12.4,17.46,17.46,0,0,1,24.46,0,17.05,17.05,0,0,1,4.89,12.4,16.75,16.75,0,0,1-4.89,12.17A16.51,16.51,0,0,1,523.35,174.66ZM510.52,294.88V187.49H536.4V294.88Z" transform="translate(-15.91 -73.26)"/><path class="cls-3" d="M619.44,218.36a10.57,10.57,0,0,0-4.78-8.05q-4.35-3-12-3-8.7,0-12.93,3.48a11,11,0,0,0-4.24,8.91,6.84,6.84,0,0,0,4.56,6.74,48.83,48.83,0,0,0,11.53,3q6.95,1.08,14.89,2.17A51.34,51.34,0,0,1,631.4,236a30.17,30.17,0,0,1,11.52,9.34q4.56,6.1,4.57,17.18a31.71,31.71,0,0,1-12.18,25.33,43.17,43.17,0,0,1-14.24,7.28,62.21,62.21,0,0,1-18.58,2.61A61.12,61.12,0,0,1,584,295.1a44.88,44.88,0,0,1-14.14-7.17,32.92,32.92,0,0,1-9.13-10.87,32,32,0,0,1-3.48-13.92h26.09a10.69,10.69,0,0,0,4.9,8.7q4.66,3.26,13.8,3.26,10.44,0,14.89-3.48a11,11,0,0,0,4.46-9.13,6.64,6.64,0,0,0-4.57-6.63A49.93,49.93,0,0,0,605.31,253q-7-1-14.89-2.06a53.59,53.59,0,0,1-14.89-4.24A28.49,28.49,0,0,1,564,237.27q-4.57-6.3-4.57-17.61a32.28,32.28,0,0,1,3-14,32.78,32.78,0,0,1,8.59-11.09,40.21,40.21,0,0,1,13.48-7.28,56.48,56.48,0,0,1,17.72-2.61,55.51,55.51,0,0,1,17.61,2.61,41.46,41.46,0,0,1,13.37,7.17,32.76,32.76,0,0,1,8.58,10.66,31.45,31.45,0,0,1,3.27,13.26Z" transform="translate(-15.91 -73.26)"/><path class="cls-4" d="M671,294.07V151.87h58q13.92,0,24,3.58a44.05,44.05,0,0,1,16.64,10.13,40.94,40.94,0,0,1,9.67,15.32,60.33,60.33,0,0,1,0,38.48,41.06,41.06,0,0,1-9.67,15.33,44,44,0,0,1-16.64,10.1q-10.11,3.6-24,3.59H698.82v45.67Zm58.47-71.33q13.92,0,19.37-6.4c3.61-4.28,5.43-9.67,5.43-16.21q0-9.57-5.43-16t-19.37-6.41H698.82v45Z" transform="translate(-15.91 -73.26)"/><path class="cls-5" d="M908.61,294.07H884.92V274h-.44a34.92,34.92,0,0,1-14.35,16.63c-6.66,4.15-14.56,6.2-23.68,6.2a56.23,56.23,0,0,1-19.15-3.46,49.23,49.23,0,0,1-17.06-10.55,53.41,53.41,0,0,1-12.16-17.62q-4.7-10.51-4.68-24.89a59.27,59.27,0,0,1,4.24-22.61,52.3,52.3,0,0,1,11.94-17.92,55.65,55.65,0,0,1,18.27-11.75,62.08,62.08,0,0,1,23.39-4.24A63.54,63.54,0,0,1,874.48,188a51.8,51.8,0,0,1,18.17,11.63,53.38,53.38,0,0,1,11.73,18.05,62.32,62.32,0,0,1,4.23,23.57Zm-57.37-21.33q14.32,0,22.93-9t8.59-23.37q0-14.34-8.59-23.37t-22.93-9q-14.37,0-23,9t-8.7,23.37q0,14.35,8.7,23.37T851.24,272.74Z" transform="translate(-15.91 -73.26)"/><path class="cls-6" d="M1010.15,278.39h-.43A34.81,34.81,0,0,1,996.89,291a37.13,37.13,0,0,1-18.71,4.56,52.75,52.75,0,0,1-18-3.14,43.19,43.19,0,0,1-15.44-9.69A46.34,46.34,0,0,1,934,265.91q-4-10.34-4-24.69V186.66H955.8v54.56q0,15.43,7.39,22.84c4.92,4.94,11.53,7.39,19.78,7.39q12,0,19.57-7.61t7.61-22.62V186.66H1036V290.37q0,14.1-4.12,24a42.55,42.55,0,0,1-11.42,16.2,45.63,45.63,0,0,1-17.05,9.24,72.87,72.87,0,0,1-20.88,2.93,69.25,69.25,0,0,1-17.71-2.19,49.21,49.21,0,0,1-15.22-6.73,44.06,44.06,0,0,1-11.74-11.53,45.72,45.72,0,0,1-7.06-16.51h25.85q6.33,14.58,25.88,14.58,13.26,0,20.44-6.86t7.18-22.5Z" transform="translate(-15.91 -73.26)"/></svg>