<svg id="Capa_1" data-name="Capa 1" xmlns="http://www.w3.org/2000/svg" xmlns:xlink="http://www.w3.org/1999/xlink" viewBox="0 0 1024.55 599.47"><defs><style>.cls-1{fill:url(#linear-gradient);}.cls-2{fill:url(#linear-gradient-2);}.cls-3{fill:url(#linear-gradient-3);}.cls-4{fill:url(#linear-gradient-4);}.cls-5{fill:url(#linear-gradient-5);}</style><linearGradient id="linear-gradient" x1="-0.32" y1="299.76" x2="452.15" y2="299.76" gradientUnits="userSpaceOnUse"><stop offset="0" stop-color="#518fca"/><stop offset="1" stop-color="#3e4a94"/></linearGradient><linearGradient id="linear-gradient-2" x1="495.62" y1="268.09" x2="682.12" y2="268.09" xlink:href="#linear-gradient"/><linearGradient id="linear-gradient-3" x1="715.41" y1="230.23" x2="757.13" y2="230.23" xlink:href="#linear-gradient"/><linearGradient id="linear-gradient-4" x1="796.39" y1="229.88" x2="851.77" y2="229.88" xlink:href="#linear-gradient"/><linearGradient id="linear-gradient-5" x1="878.75" y1="268.09" x2="1024.24" y2="268.09" xlink:href="#linear-gradient"/></defs><title>Polis2-3</title><path class="cls-1" d="M225.91,0C101,0-.32,101.32-.32,226.27V599.5l80.89-90.09V225.71a143.32,143.32,0,1,1,93.9,134.52v86.38a226.28,226.28,0,0,0,51.44,5.89c124.94,0,226.24-101.28,226.24-226.23S350.85,0,225.91,0Z" transform="translate(0.32 -0.03)"/><path class="cls-2" d="M682.12,268.09a95.81,95.81,0,0,1-6.83,36.45A83.93,83.93,0,0,1,656,333.47a89.25,89.25,0,0,1-29.62,18.93,100.3,100.3,0,0,1-37.51,6.82q-20.67,0-37.68-6.82a89.68,89.68,0,0,1-29.44-18.93,83.6,83.6,0,0,1-19.27-28.93,100.27,100.27,0,0,1,0-72.9,83.47,83.47,0,0,1,19.27-28.92,89.55,89.55,0,0,1,29.44-18.94,107,107,0,0,1,75.19,0A89.12,89.12,0,0,1,656,202.72a83.8,83.8,0,0,1,19.29,28.92A95.81,95.81,0,0,1,682.12,268.09Zm-93.25,52.23q23.16,0,37-14.55t13.84-37.68q0-23.11-13.84-37.68t-37-14.54q-23.13,0-37.16,14.54t-14,37.68q0,23.13,14,37.68T588.87,320.32Z" transform="translate(0.32 -0.03)"/><path class="cls-3" d="M715.41,354.67V105.8h41.72V354.67Z" transform="translate(0.32 -0.03)"/><path class="cls-4" d="M824.08,160.83a27.55,27.55,0,0,1-27.69-27.69,27.1,27.1,0,0,1,8.06-20,28.12,28.12,0,0,1,39.43,0,27.39,27.39,0,0,1,7.89,20,26.91,26.91,0,0,1-7.89,19.61A26.48,26.48,0,0,1,824.08,160.83ZM803.39,354.67V181.52H845.1V354.67Z" transform="translate(0.32 -0.03)"/><path class="cls-5" d="M979,231.29a17,17,0,0,0-7.7-13c-4.7-3.28-11.1-4.92-19.28-4.92-9.36,0-16.3,1.88-20.87,5.61a17.75,17.75,0,0,0-6.82,14.36q0,7.71,7.35,10.88a79.34,79.34,0,0,0,18.58,4.9q11.22,1.76,24,3.52a82.23,82.23,0,0,1,24,7,48.77,48.77,0,0,1,18.58,15.07c4.91,6.55,7.37,15.76,7.37,27.69a51.2,51.2,0,0,1-19.63,40.84,70.12,70.12,0,0,1-23,11.74,100,100,0,0,1-30,4.2,98.23,98.23,0,0,1-29.81-4.2,71.86,71.86,0,0,1-22.77-11.57,52.6,52.6,0,0,1-14.72-17.51,51.59,51.59,0,0,1-5.63-22.45h42.08a17.19,17.19,0,0,0,7.89,14q7.51,5.26,22.25,5.25,16.83,0,24-5.61a17.73,17.73,0,0,0,7.19-14.72q0-7.69-7.34-10.69a82.46,82.46,0,0,0-18.59-4.56c-7.48-1-15.48-2.16-24-3.33a85.84,85.84,0,0,1-24-6.83,46,46,0,0,1-18.58-15.24q-7.36-10.19-7.37-28.41A51.85,51.85,0,0,1,901,192.89a65.07,65.07,0,0,1,21.73-11.73,91,91,0,0,1,28.57-4.2,89.26,89.26,0,0,1,28.39,4.2,66.37,66.37,0,0,1,21.55,11.58,52.64,52.64,0,0,1,13.86,17.16,50.64,50.64,0,0,1,5.25,21.39Z" transform="translate(0.32 -0.03)"/></svg>