<svg id="Capa_1" data-name="Capa 1" xmlns="http://www.w3.org/2000/svg" xmlns:xlink="http://www.w3.org/1999/xlink" viewBox="0 0 1015.81 167.79"><defs><style>.cls-1{fill:url(#linear-gradient);}.cls-2{fill:#aeaeae;}.cls-3{fill:#c4c4c3;}</style><linearGradient id="linear-gradient" x1="6.19" y1="84.62" x2="132.83" y2="84.62" gradientUnits="userSpaceOnUse"><stop offset="0" stop-color="#518fca"/><stop offset="1" stop-color="#3e4a94"/></linearGradient></defs><title>Polis1-3</title><path class="cls-1" d="M69.51.73A63.32,63.32,0,0,0,6.19,64.05V168.52L28.83,143.3V63.89a40.08,40.08,0,1,1,26.28,37.66v24.17A63.32,63.32,0,1,0,69.51.73Z" transform="translate(-6.19 -0.73)"/><path class="cls-2" d="M197.2,75.76A26.76,26.76,0,0,1,195.29,86a23.32,23.32,0,0,1-5.4,8.09,24.81,24.81,0,0,1-8.29,5.3,29.78,29.78,0,0,1-21,0,24.89,24.89,0,0,1-8.24-5.3,23.32,23.32,0,0,1-5.4-8.09,28.22,28.22,0,0,1,0-20.41,23.32,23.32,0,0,1,5.4-8.09,24.89,24.89,0,0,1,8.24-5.3,29.78,29.78,0,0,1,21,0,24.81,24.81,0,0,1,8.29,5.3,23.32,23.32,0,0,1,5.4,8.09A26.77,26.77,0,0,1,197.2,75.76ZM171.11,90.37a13.62,13.62,0,0,0,10.35-4.07,14.67,14.67,0,0,0,3.87-10.54,14.68,14.68,0,0,0-3.87-10.55,13.62,13.62,0,0,0-10.35-4.07,13.78,13.78,0,0,0-10.41,4.07,14.58,14.58,0,0,0-3.92,10.55A14.58,14.58,0,0,0,160.7,86.3,13.78,13.78,0,0,0,171.11,90.37Z" transform="translate(-6.19 -0.73)"/><path class="cls-2" d="M206.52,100V30.33H218.2V100Z" transform="translate(-6.19 -0.73)"/><path class="cls-2" d="M236.94,45.73A7.7,7.7,0,0,1,229.19,38a7.6,7.6,0,0,1,2.25-5.59,7.87,7.87,0,0,1,11,0A7.69,7.69,0,0,1,244.69,38a7.55,7.55,0,0,1-2.21,5.49A7.41,7.41,0,0,1,236.94,45.73ZM231.15,100V51.52h11.68V100Z" transform="translate(-6.19 -0.73)"/><path class="cls-2" d="M280.31,65.45a4.81,4.81,0,0,0-2.16-3.63,9.34,9.34,0,0,0-5.4-1.37c-2.62,0-4.56.52-5.84,1.57A5,5,0,0,0,265,66a3.09,3.09,0,0,0,2.06,3,21.91,21.91,0,0,0,5.2,1.38q3.14.48,6.72,1a22.89,22.89,0,0,1,6.72,2,13.63,13.63,0,0,1,5.2,4.22Q293,80.37,293,85.37a14.3,14.3,0,0,1-5.49,11.43,19.6,19.6,0,0,1-6.43,3.29,28.3,28.3,0,0,1-8.39,1.18,27.82,27.82,0,0,1-8.34-1.18,20.31,20.31,0,0,1-6.37-3.24,14.68,14.68,0,0,1-4.13-4.91,14.43,14.43,0,0,1-1.57-6.28H264a4.8,4.8,0,0,0,2.21,3.93c1.4,1,3.48,1.47,6.22,1.47q4.71,0,6.73-1.57a5,5,0,0,0,2-4.12,3,3,0,0,0-2.06-3,22.55,22.55,0,0,0-5.2-1.28l-6.72-.93a24.1,24.1,0,0,1-6.72-1.91A12.92,12.92,0,0,1,255.28,74q-2.06-2.85-2.06-7.95a14.52,14.52,0,0,1,1.38-6.33,14.89,14.89,0,0,1,3.87-5,18.13,18.13,0,0,1,6.09-3.29,25.6,25.6,0,0,1,8-1.18,25.16,25.16,0,0,1,7.95,1.18,18.84,18.84,0,0,1,6,3.24,14.85,14.85,0,0,1,3.87,4.81,14,14,0,0,1,1.47,6Z" transform="translate(-6.19 -0.73)"/><path class="cls-3" d="M344.57,49.41h27.89v4.77h-23V69.43h22.84V74.2H349.43V93.33h22.84v4.76h-27.7Z" transform="translate(-6.19 -0.73)"/><path class="cls-3" d="M380.08,62.09h4.63v6.22a17.86,17.86,0,0,1,5-5,14,14,0,0,1,7.39-2.12,12.23,12.23,0,0,1,5,1,10.53,10.53,0,0,1,3.84,2.73,14.64,14.64,0,0,1,2.59,4.88,17.07,17.07,0,0,1,5.77-6.44,13.67,13.67,0,0,1,7.46-2.2,11.66,11.66,0,0,1,6.59,1.89,11.2,11.2,0,0,1,4.24,5.26q1.39,3.38,1.39,10.12V98.09h-4.73V78.43q0-5.79-.83-8A7.16,7.16,0,0,0,425.54,67a8.36,8.36,0,0,0-4.76-1.33,10.29,10.29,0,0,0-6.15,2,11.39,11.39,0,0,0-4.08,5.29q-1.29,3.32-1.28,11v14.1h-4.64V79.66q0-6.52-.81-8.85A7.34,7.34,0,0,0,401,67.07a8.14,8.14,0,0,0-4.8-1.41,10.33,10.33,0,0,0-6,1.94,11.37,11.37,0,0,0-4.14,5.21c-.89,2.18-1.34,5.53-1.34,10V98.09h-4.63Z" transform="translate(-6.19 -0.73)"/><path class="cls-3" d="M443.75,62.09h4.63V68.7a18.56,18.56,0,0,1,6.32-5.65,16.75,16.75,0,0,1,8-1.89,17.76,17.76,0,0,1,13.12,5.53A18.23,18.23,0,0,1,481.24,80a18.63,18.63,0,0,1-5.4,13.49,18.19,18.19,0,0,1-20.94,3.75,19.72,19.72,0,0,1-6.52-5.33v19.36h-4.63Zm18.53,3.54a13.61,13.61,0,0,0-10.12,4.2,14.32,14.32,0,0,0-4.11,10.44,14.81,14.81,0,0,0,1.83,7.37,13.44,13.44,0,0,0,5.25,5.19,14.54,14.54,0,0,0,7.22,1.92,13.69,13.69,0,0,0,7-1.93,14.13,14.13,0,0,0,5.24-5.41,14.74,14.74,0,0,0,1.95-7.27,14.59,14.59,0,0,0-1.94-7.27,13.95,13.95,0,0,0-12.33-7.24Z" transform="translate(-6.19 -0.73)"/><path class="cls-3" d="M507,61.16a17.85,17.85,0,0,1,13.79,6,19.35,19.35,0,0,1-.28,26.2,19,19,0,0,1-27.05,0,19.28,19.28,0,0,1-.28-26.17A17.82,17.82,0,0,1,507,61.16Zm0,4.53A13.4,13.4,0,0,0,497,70a14.31,14.31,0,0,0-4.15,10.33,14.67,14.67,0,0,0,1.89,7.28,13.43,13.43,0,0,0,5.12,5.21,14.52,14.52,0,0,0,14.15,0,13.34,13.34,0,0,0,5.11-5.21,14.68,14.68,0,0,0,1.9-7.28A14.22,14.22,0,0,0,516.85,70,13.39,13.39,0,0,0,506.94,65.69Z" transform="translate(-6.19 -0.73)"/><path class="cls-3" d="M529.43,62.09h4.76l11,26.14,11.49-26.14h.84l11.56,26.14,11.25-26.14h4.82l-15.64,36h-.86L557.18,72.31,545.67,98.09h-.86Z" transform="translate(-6.19 -0.73)"/><path class="cls-3" d="M620.93,86.15l3.91,2a21.41,21.41,0,0,1-4.44,6.09,17.68,17.68,0,0,1-5.66,3.52A19.71,19.71,0,0,1,607.61,99q-8.8,0-13.78-5.78a19.48,19.48,0,0,1-5-13A19.25,19.25,0,0,1,593.07,68a17.2,17.2,0,0,1,14.28-6.82,17.78,17.78,0,0,1,14.71,7,19.5,19.5,0,0,1,4,12.31h-32.4a14.7,14.7,0,0,0,4,10.29,12.82,12.82,0,0,0,9.58,4,15.37,15.37,0,0,0,5.35-1A13.81,13.81,0,0,0,617,91.25,21.23,21.23,0,0,0,620.93,86.15Zm0-9.7a15.47,15.47,0,0,0-2.7-5.93A12.79,12.79,0,0,0,613.55,67a14.47,14.47,0,0,0-6.14-1.36A13.22,13.22,0,0,0,598.3,69a15.49,15.49,0,0,0-4.21,7.45Z" transform="translate(-6.19 -0.73)"/><path class="cls-3" d="M632.91,62.09h4.74v5.26a16.63,16.63,0,0,1,4.46-4.65,8.79,8.79,0,0,1,4.9-1.54,8.46,8.46,0,0,1,4.11,1.23l-2.42,3.9a6.44,6.44,0,0,0-2.45-.63,6.76,6.76,0,0,0-4.47,1.9,12.07,12.07,0,0,0-3.27,5.91q-.87,3.07-.86,12.44V98.09h-4.74Z" transform="translate(-6.19 -0.73)"/><path class="cls-3" d="M656.66,47.26a3.84,3.84,0,0,1,3.82,3.84,3.65,3.65,0,0,1-1.12,2.68,3.69,3.69,0,0,1-2.7,1.13,3.83,3.83,0,0,1,0-7.65Zm-2.3,14.83H659v36h-4.63Z" transform="translate(-6.19 -0.73)"/><path class="cls-3" d="M668.62,62.09h4.63v6.45A19.4,19.4,0,0,1,679.41,63a15.07,15.07,0,0,1,7.35-1.84,12.72,12.72,0,0,1,7.16,2.05,12.18,12.18,0,0,1,4.62,5.53Q700,72.22,700,79.56V98.09h-4.64V80.92a42.8,42.8,0,0,0-.51-8.31,9.19,9.19,0,0,0-3.09-5.38,9.34,9.34,0,0,0-6-1.8,11.45,11.45,0,0,0-7.53,2.78,13,13,0,0,0-4.38,6.88,47.82,47.82,0,0,0-.67,9.8v13.2h-4.63Z" transform="translate(-6.19 -0.73)"/><path class="cls-3" d="M741,62.09h4.63V90.78q0,7.57-1.32,11.08a14.46,14.46,0,0,1-6.32,7.65,20.76,20.76,0,0,1-10.83,2.68,24.87,24.87,0,0,1-8.32-1.31,16.68,16.68,0,0,1-6-3.52,21.14,21.14,0,0,1-4.27-6.45h5a13.21,13.21,0,0,0,5.3,5.29,17,17,0,0,0,8.05,1.72,16.71,16.71,0,0,0,8-1.76,10.86,10.86,0,0,0,4.66-4.44c.92-1.78,1.39-4.66,1.39-8.63V91.24a17.55,17.55,0,0,1-6.4,5.08,19,19,0,0,1-17.35-.69A17.54,17.54,0,0,1,710.49,89a18.72,18.72,0,0,1,16.23-27.83,17.33,17.33,0,0,1,7.54,1.67A20.78,20.78,0,0,1,741,68.34Zm-13.67,3.54a14.6,14.6,0,0,0-7.31,1.9,13.81,13.81,0,0,0-5.3,5.26,14.4,14.4,0,0,0-1.92,7.27,13.13,13.13,0,0,0,4,9.79,14.14,14.14,0,0,0,10.3,3.88,14,14,0,0,0,10.27-3.85,13.54,13.54,0,0,0,3.89-10.09,14.63,14.63,0,0,0-1.79-7.26,13.06,13.06,0,0,0-5.06-5A14.17,14.17,0,0,0,727.33,65.63Z" transform="translate(-6.19 -0.73)"/><path class="cls-3" d="M774.39,62.09H779V68.7a18.56,18.56,0,0,1,6.32-5.65,16.75,16.75,0,0,1,8-1.89,17.76,17.76,0,0,1,13.12,5.53A18.24,18.24,0,0,1,811.89,80a18.64,18.64,0,0,1-5.41,13.49,18.19,18.19,0,0,1-20.94,3.75A19.72,19.72,0,0,1,779,91.9v19.36h-4.63Zm18.53,3.54a13.61,13.61,0,0,0-10.12,4.2,14.32,14.32,0,0,0-4.11,10.44,14.81,14.81,0,0,0,1.83,7.37,13.5,13.5,0,0,0,5.25,5.19A14.54,14.54,0,0,0,793,94.75a13.75,13.75,0,0,0,7-1.93,14.17,14.17,0,0,0,5.23-5.41,14.56,14.56,0,0,0,0-14.54,13.92,13.92,0,0,0-12.33-7.24Z" transform="translate(-6.19 -0.73)"/><path class="cls-3" d="M850.87,86.15l3.91,2a21.8,21.8,0,0,1-4.44,6.09,17.62,17.62,0,0,1-5.67,3.52A19.65,19.65,0,0,1,837.55,99q-8.81,0-13.78-5.78a19.49,19.49,0,0,1-5-13A19.2,19.2,0,0,1,823,68a17.19,17.19,0,0,1,14.28-6.82,17.77,17.77,0,0,1,14.7,7,19.51,19.51,0,0,1,4,12.31h-32.4a14.61,14.61,0,0,0,4,10.29,12.78,12.78,0,0,0,9.57,4,15.38,15.38,0,0,0,5.36-1,13.92,13.92,0,0,0,4.42-2.54A21.48,21.48,0,0,0,850.87,86.15Zm0-9.7a15.47,15.47,0,0,0-2.7-5.93A12.83,12.83,0,0,0,843.48,67a14.39,14.39,0,0,0-6.13-1.36A13.22,13.22,0,0,0,828.24,69,15.41,15.41,0,0,0,824,76.45Z" transform="translate(-6.19 -0.73)"/><path class="cls-3" d="M881.65,61.16a17.85,17.85,0,0,1,13.79,6,19.35,19.35,0,0,1-.28,26.2,19,19,0,0,1-27.06,0,19.31,19.31,0,0,1-.28-26.17A17.86,17.86,0,0,1,881.65,61.16Zm0,4.53A13.4,13.4,0,0,0,871.7,70a14.27,14.27,0,0,0-4.15,10.33,14.67,14.67,0,0,0,1.89,7.28,13.36,13.36,0,0,0,5.12,5.21,14.5,14.5,0,0,0,14.14,0,13.36,13.36,0,0,0,5.12-5.21,14.67,14.67,0,0,0,1.89-7.28A14.25,14.25,0,0,0,891.54,70,13.39,13.39,0,0,0,881.63,65.69Z" transform="translate(-6.19 -0.73)"/><path class="cls-3" d="M909.05,62.09h4.63V68.7A18.63,18.63,0,0,1,920,63.05a16.8,16.8,0,0,1,8-1.89,17.77,17.77,0,0,1,13.13,5.53A18.27,18.27,0,0,1,946.54,80a18.63,18.63,0,0,1-5.4,13.49,18.21,18.21,0,0,1-20.95,3.75,19.79,19.79,0,0,1-6.51-5.33v19.36h-4.63Zm18.53,3.54a13.61,13.61,0,0,0-10.12,4.2,14.32,14.32,0,0,0-4.11,10.44,14.81,14.81,0,0,0,1.83,7.37,13.44,13.44,0,0,0,5.25,5.19,14.51,14.51,0,0,0,7.22,1.92,13.69,13.69,0,0,0,7-1.93,14.2,14.2,0,0,0,5.24-5.41,14.72,14.72,0,0,0,1.94-7.27,14.58,14.58,0,0,0-1.93-7.27,13.95,13.95,0,0,0-12.33-7.24Z" transform="translate(-6.19 -0.73)"/><path class="cls-3" d="M954.52,48.19h4.63v49.9h-4.63Z" transform="translate(-6.19 -0.73)"/><path class="cls-3" d="M999.1,86.15l3.9,2a21.41,21.41,0,0,1-4.44,6.09,17.47,17.47,0,0,1-5.66,3.52A19.65,19.65,0,0,1,985.78,99Q977,99,972,93.24a19.49,19.49,0,0,1-5-13A19.2,19.2,0,0,1,971.24,68a17.17,17.17,0,0,1,14.27-6.82,17.78,17.78,0,0,1,14.71,7,19.45,19.45,0,0,1,4,12.31H971.8a14.64,14.64,0,0,0,4,10.29,12.82,12.82,0,0,0,9.58,4,15.33,15.33,0,0,0,5.35-1,13.7,13.7,0,0,0,4.42-2.54A21.48,21.48,0,0,0,999.1,86.15Zm0-9.7a15.47,15.47,0,0,0-2.7-5.93A12.83,12.83,0,0,0,991.71,67a14.46,14.46,0,0,0-6.13-1.36A13.22,13.22,0,0,0,976.47,69a15.41,15.41,0,0,0-4.21,7.45Z" transform="translate(-6.19 -0.73)"/><path class="cls-3" d="M1017.93,90.81a4,4,0,0,1,2.88,1.19,4.14,4.14,0,0,1,0,5.81,4,4,0,0,1-5.76,0,4.1,4.1,0,0,1,2.88-7Z" transform="translate(-6.19 -0.73)"/></svg>