<svg id="Capa_1" data-name="Capa 1" xmlns="http://www.w3.org/2000/svg" xmlns:xlink="http://www.w3.org/1999/xlink" viewBox="0 0 1024.48 517.49"><defs><style>.cls-1{fill:url(#linear-gradient);}.cls-2{fill:#fff;}</style><linearGradient id="linear-gradient" x1="-0.48" y1="258.91" x2="1024" y2="258.91" gradientUnits="userSpaceOnUse"><stop offset="0" stop-color="#518fca"/><stop offset="1" stop-color="#3e4a94"/></linearGradient></defs><title>Polis2-2</title><path class="cls-1" d="M1024,464.76c0,29.21-13.63,52.9-30.44,52.9H30C13.14,517.66-.48,494-.48,464.76V53.07C-.48,23.85,13.14.17,30,.17H993.56c16.81,0,30.44,23.68,30.44,52.9Z" transform="translate(0.48 -0.17)"/><path class="cls-2" d="M348.11,116A122.87,122.87,0,0,0,225.24,238.84V441.55l43.92-48.92V238.53a77.81,77.81,0,1,1,51,73.07v46.91A122.88,122.88,0,1,0,348.11,116Z" transform="translate(0.48 -0.17)"/><path class="cls-2" d="M595.89,261.55a52,52,0,0,1-3.72,19.8,45.3,45.3,0,0,1-10.47,15.71,48.49,48.49,0,0,1-16.09,10.28,58,58,0,0,1-40.83,0,48.56,48.56,0,0,1-16-10.28,45.3,45.3,0,0,1-10.47-15.71,54.55,54.55,0,0,1,0-39.6,45.26,45.26,0,0,1,10.47-15.7,48.74,48.74,0,0,1,16-10.29,58,58,0,0,1,40.83,0,48.67,48.67,0,0,1,16.09,10.29,45.26,45.26,0,0,1,10.47,15.7A52,52,0,0,1,595.89,261.55Zm-50.65,28.37q12.57,0,20.09-7.9t7.52-20.47q0-12.56-7.52-20.47t-20.09-7.9q-12.56,0-20.18,7.9t-7.61,20.47q0,12.57,7.61,20.47T545.24,289.92Z" transform="translate(0.48 -0.17)"/><path class="cls-2" d="M614,308.58V173.4h22.66V308.58Z" transform="translate(0.48 -0.17)"/><path class="cls-2" d="M673,203.29a15,15,0,0,1-15-15,14.7,14.7,0,0,1,4.38-10.85,15.27,15.27,0,0,1,21.41,0A14.89,14.89,0,0,1,688,188.25a14.63,14.63,0,0,1-4.28,10.66A14.37,14.37,0,0,1,673,203.29ZM661.76,308.58V214.52h22.66v94.06Z" transform="translate(0.48 -0.17)"/><path class="cls-2" d="M757.14,241.56a9.25,9.25,0,0,0-4.18-7q-3.81-2.67-10.47-2.67-7.62,0-11.33,3.05a9.63,9.63,0,0,0-3.71,7.81,6,6,0,0,0,4,5.89,41.93,41.93,0,0,0,10.08,2.67q6.09,1,13,1.91a44.92,44.92,0,0,1,13,3.8,26.59,26.59,0,0,1,10.09,8.19q4,5.32,4,15a27.88,27.88,0,0,1-10.66,22.18,37.91,37.91,0,0,1-12.47,6.38,54.7,54.7,0,0,1-16.28,2.28,53.76,53.76,0,0,1-16.19-2.28,39.23,39.23,0,0,1-12.37-6.28,28.76,28.76,0,0,1-8-9.52,27.92,27.92,0,0,1-3-12.19h22.84a9.35,9.35,0,0,0,4.28,7.61q4.09,2.87,12.1,2.86,9.14,0,13-3a9.67,9.67,0,0,0,3.9-8,5.81,5.81,0,0,0-4-5.8,42.83,42.83,0,0,0-10.09-2.48l-13-1.81a47,47,0,0,1-13-3.71,25,25,0,0,1-10.09-8.29q-4-5.52-4-15.41a28.27,28.27,0,0,1,2.67-12.29,28.76,28.76,0,0,1,7.51-9.71,35.15,35.15,0,0,1,11.81-6.37,49.32,49.32,0,0,1,15.52-2.29,48.46,48.46,0,0,1,15.42,2.29,36.21,36.21,0,0,1,11.71,6.28,28.68,28.68,0,0,1,7.52,9.33,27.47,27.47,0,0,1,2.85,11.61Z" transform="translate(0.48 -0.17)"/></svg>