<svg id="Capa_1" data-name="Capa 1" xmlns="http://www.w3.org/2000/svg" xmlns:xlink="http://www.w3.org/1999/xlink" viewBox="0 0 1023.7 184.84"><defs><style>.cls-1{fill:url(#linear-gradient);}.cls-2{fill:#fff;}</style><linearGradient id="linear-gradient" x1="0.3" y1="92.04" x2="1024" y2="92.04" gradientUnits="userSpaceOnUse"><stop offset="0" stop-color="#518fca"/><stop offset="1" stop-color="#3e4a94"/></linearGradient></defs><title>Polis2-4</title><path class="cls-1" d="M1024,165.57c0,10.43-13.62,18.89-30.42,18.89H30.71C13.92,184.46.3,176,.3,165.57V18.51C.3,8.08,13.92-.38,30.71-.38H993.58c16.8,0,30.42,8.46,30.42,18.89Z" transform="translate(-0.3 0.38)"/><path class="cls-2" d="M196.23,36.42A47.78,47.78,0,0,0,148.46,84.2V163l17.08-19V84.08a30.25,30.25,0,1,1,19.83,28.41v18.24a47.78,47.78,0,1,0,10.86-94.31Z" transform="translate(-0.3 0.38)"/><path class="cls-2" d="M292.57,93a20.29,20.29,0,0,1-1.44,7.7,17.65,17.65,0,0,1-4.07,6.11,18.87,18.87,0,0,1-6.26,4,22.58,22.58,0,0,1-15.87,0,18.89,18.89,0,0,1-6.22-4,17.51,17.51,0,0,1-4.07-6.11,21.14,21.14,0,0,1,0-15.39,17.51,17.51,0,0,1,4.07-6.11,18.89,18.89,0,0,1,6.22-4,22.58,22.58,0,0,1,15.87,0,18.87,18.87,0,0,1,6.26,4,17.65,17.65,0,0,1,4.07,6.11A20.24,20.24,0,0,1,292.57,93Zm-19.69,11a10.27,10.27,0,0,0,7.81-3.08,12.26,12.26,0,0,0,0-15.91,11.48,11.48,0,0,0-15.65,0A12.17,12.17,0,0,0,265,101,10.37,10.37,0,0,0,272.88,104.06Z" transform="translate(-0.3 0.38)"/><path class="cls-2" d="M299.6,111.31V58.75h8.81v52.56Z" transform="translate(-0.3 0.38)"/><path class="cls-2" d="M322.55,70.37a5.82,5.82,0,0,1-5.85-5.84,5.71,5.71,0,0,1,1.71-4.22,5.92,5.92,0,0,1,8.32,0,5.79,5.79,0,0,1,1.67,4.22,5.7,5.7,0,0,1-1.67,4.14A5.58,5.58,0,0,1,322.55,70.37Zm-4.37,40.94V74.74H327v36.57Z" transform="translate(-0.3 0.38)"/><path class="cls-2" d="M355.27,85.25a3.62,3.62,0,0,0-1.63-2.74,7,7,0,0,0-4.07-1,6.84,6.84,0,0,0-4.4,1.18,3.74,3.74,0,0,0-1.45,3A2.33,2.33,0,0,0,345.28,88a16.33,16.33,0,0,0,3.92,1c1.58.24,3.27.49,5.07.74a17.58,17.58,0,0,1,5.07,1.48,10.33,10.33,0,0,1,3.93,3.18,9.63,9.63,0,0,1,1.55,5.85,10.75,10.75,0,0,1-4.15,8.62,14.55,14.55,0,0,1-4.84,2.48,21.33,21.33,0,0,1-6.33.89,21,21,0,0,1-6.3-.89,15.22,15.22,0,0,1-4.81-2.44,11.21,11.21,0,0,1-3.11-3.7,10.85,10.85,0,0,1-1.18-4.74H343a3.63,3.63,0,0,0,1.67,3,8.22,8.22,0,0,0,4.7,1.11q3.56,0,5.07-1.18a3.77,3.77,0,0,0,1.52-3.11A2.26,2.26,0,0,0,354.38,98a16.63,16.63,0,0,0-3.92-1l-5.07-.71a17.84,17.84,0,0,1-5.07-1.44,9.66,9.66,0,0,1-3.93-3.22,10.11,10.11,0,0,1-1.55-6,11,11,0,0,1,1-4.78,11.28,11.28,0,0,1,2.93-3.77,13.65,13.65,0,0,1,4.59-2.48,19,19,0,0,1,6-.89,18.73,18.73,0,0,1,6,.89A14,14,0,0,1,360,77.11a11,11,0,0,1,2.92,3.63A10.69,10.69,0,0,1,364,85.25Z" transform="translate(-0.3 0.38)"/><path class="cls-2" d="M403.75,73.15H424.8v3.6H407.42v11.5h17.23v3.6H407.42v14.43h17.23v3.6h-20.9Z" transform="translate(-0.3 0.38)"/><path class="cls-2" d="M430.54,82.71H434v4.7a13.54,13.54,0,0,1,3.75-3.8,10.58,10.58,0,0,1,5.57-1.6,9.2,9.2,0,0,1,3.75.78,8,8,0,0,1,2.9,2.06A10.94,10.94,0,0,1,452,88.53a13,13,0,0,1,4.36-4.86A10.39,10.39,0,0,1,462,82a8.81,8.81,0,0,1,5,1.43,8.42,8.42,0,0,1,3.2,4A21,21,0,0,1,471.17,95v14.84H467.6V95a19.52,19.52,0,0,0-.62-6,5.43,5.43,0,0,0-2.13-2.63,6.36,6.36,0,0,0-3.6-1,7.81,7.81,0,0,0-4.64,1.5,8.68,8.68,0,0,0-3.08,4c-.64,1.66-1,4.45-1,8.34v10.64h-3.5V96a23.78,23.78,0,0,0-.61-6.68,5.61,5.61,0,0,0-2.14-2.82,6.14,6.14,0,0,0-3.62-1.06,7.78,7.78,0,0,0-4.53,1.46,8.56,8.56,0,0,0-3.12,3.93,21.32,21.32,0,0,0-1,7.57v11.51h-3.5Z" transform="translate(-0.3 0.38)"/><path class="cls-2" d="M478.58,82.71h3.5v5a14,14,0,0,1,4.76-4.27,12.67,12.67,0,0,1,6-1.43,13.44,13.44,0,0,1,9.91,4.17,13.79,13.79,0,0,1,4.11,10,14,14,0,0,1-4.08,10.17,13.71,13.71,0,0,1-15.8,2.84,15,15,0,0,1-4.91-4v14.6h-3.5Zm14,2.67a10.27,10.27,0,0,0-7.63,3.17,10.81,10.81,0,0,0-3.1,7.88,11.18,11.18,0,0,0,1.38,5.56,10.09,10.09,0,0,0,4,3.92,11,11,0,0,0,5.45,1.44,10.28,10.28,0,0,0,5.29-1.45,10.83,10.83,0,0,0,3.95-4.08,11,11,0,0,0,0-11,10.53,10.53,0,0,0-9.31-5.47Z" transform="translate(-0.3 0.38)"/><path class="cls-2" d="M526.27,82a13.46,13.46,0,0,1,10.41,4.55,14.58,14.58,0,0,1-.22,19.76,14.35,14.35,0,0,1-20.41,0,14.57,14.57,0,0,1-.21-19.74A13.47,13.47,0,0,1,526.27,82Zm0,3.42a10.08,10.08,0,0,0-7.49,3.23,10.73,10.73,0,0,0-3.13,7.78,11.08,11.08,0,0,0,1.42,5.5,10.13,10.13,0,0,0,3.86,3.93,11,11,0,0,0,10.68,0,10.13,10.13,0,0,0,3.86-3.93,11.08,11.08,0,0,0,1.42-5.5,10.7,10.7,0,0,0-3.14-7.78A10.1,10.1,0,0,0,526.26,85.43Z" transform="translate(-0.3 0.38)"/><path class="cls-2" d="M543.23,82.71h3.59l8.33,19.73,8.66-19.73h.64l8.73,19.73,8.48-19.73h3.64l-11.8,27.17h-.65l-8.69-19.45-8.68,19.45h-.65Z" transform="translate(-0.3 0.38)"/><path class="cls-2" d="M612.26,100.86l3,1.55a16.14,16.14,0,0,1-3.35,4.6,13.49,13.49,0,0,1-4.27,2.66,15.14,15.14,0,0,1-5.38.91q-6.65,0-10.39-4.36a14.71,14.71,0,0,1-3.75-9.85,14.47,14.47,0,0,1,3.17-9.21A13,13,0,0,1,602,82a13.41,13.41,0,0,1,11.1,5.27,14.79,14.79,0,0,1,3,9.29H591.66a11.09,11.09,0,0,0,3,7.76,9.63,9.63,0,0,0,7.22,3,11.67,11.67,0,0,0,4-.72,10.74,10.74,0,0,0,3.34-1.91A16.58,16.58,0,0,0,612.26,100.86Zm0-7.31a11.45,11.45,0,0,0-2-4.47,9.7,9.7,0,0,0-3.54-2.7,10.89,10.89,0,0,0-4.63-1,10,10,0,0,0-6.87,2.57A11.65,11.65,0,0,0,592,93.55Z" transform="translate(-0.3 0.38)"/><path class="cls-2" d="M621.3,82.71h3.57v4a12.78,12.78,0,0,1,3.37-3.51,6.69,6.69,0,0,1,3.7-1.16,6.31,6.31,0,0,1,3.09.93l-1.82,2.94a5,5,0,0,0-1.85-.47A5.08,5.08,0,0,0,628,86.84a9.17,9.17,0,0,0-2.47,4.46q-.64,2.33-.65,9.39v9.19H621.3Z" transform="translate(-0.3 0.38)"/><path class="cls-2" d="M639.22,71.52a2.92,2.92,0,0,1,2.88,2.9,2.86,2.86,0,0,1-4.9,2,2.75,2.75,0,0,1-.84-2,2.78,2.78,0,0,1,.84-2A2.75,2.75,0,0,1,639.22,71.52Zm-1.74,11.19H641v27.17h-3.5Z" transform="translate(-0.3 0.38)"/><path class="cls-2" d="M648.24,82.71h3.5v4.87a14.49,14.49,0,0,1,4.64-4.18A11.37,11.37,0,0,1,661.93,82a9.65,9.65,0,0,1,5.4,1.55,9.16,9.16,0,0,1,3.48,4.17q1.13,2.63,1.13,8.17v14h-3.5v-13a31.89,31.89,0,0,0-.39-6.27,6.86,6.86,0,0,0-2.33-4.06,7.08,7.08,0,0,0-4.49-1.36,8.6,8.6,0,0,0-5.68,2.1,9.78,9.78,0,0,0-3.31,5.19,35.58,35.58,0,0,0-.5,7.39v10h-3.5Z" transform="translate(-0.3 0.38)"/><path class="cls-2" d="M702.85,82.71h3.49v21.65q0,5.72-1,8.36a10.85,10.85,0,0,1-4.76,5.77,15.69,15.69,0,0,1-8.17,2,18.68,18.68,0,0,1-6.28-1,12.48,12.48,0,0,1-4.53-2.65,15.63,15.63,0,0,1-3.22-4.87h3.79a10,10,0,0,0,4,4,12.84,12.84,0,0,0,6.08,1.3,12.5,12.5,0,0,0,6-1.33,8.13,8.13,0,0,0,3.52-3.35q1.05-2,1.05-6.5v-1.4a13.32,13.32,0,0,1-4.83,3.83,14.29,14.29,0,0,1-13.09-.52,13.21,13.21,0,0,1-5.1-5,13.69,13.69,0,0,1-1.8-6.92,13.82,13.82,0,0,1,1.87-7,13.68,13.68,0,0,1,5.19-5.16,13.91,13.91,0,0,1,7-1.9,13,13,0,0,1,5.69,1.26,15.79,15.79,0,0,1,5.09,4.16Zm-10.32,2.67A11,11,0,0,0,687,86.82a10.45,10.45,0,0,0-4,4,10.93,10.93,0,0,0-1.45,5.48,9.88,9.88,0,0,0,3,7.39,11.8,11.8,0,0,0,15.52,0A10.22,10.22,0,0,0,703,96.07a11,11,0,0,0-1.35-5.48,9.72,9.72,0,0,0-3.82-3.81A10.63,10.63,0,0,0,692.53,85.38Z" transform="translate(-0.3 0.38)"/><path class="cls-2" d="M728,82.71h3.49v5a14,14,0,0,1,4.77-4.27,12.64,12.64,0,0,1,6-1.43,13.4,13.4,0,0,1,9.9,4.17,13.76,13.76,0,0,1,4.12,10,14,14,0,0,1-4.08,10.17,13.71,13.71,0,0,1-15.8,2.84,15.16,15.16,0,0,1-4.92-4v14.6H728Zm14,2.67a10.26,10.26,0,0,0-7.63,3.17,10.81,10.81,0,0,0-3.1,7.88,11.18,11.18,0,0,0,1.38,5.56,10.09,10.09,0,0,0,4,3.92,11,11,0,0,0,5.44,1.44,10.31,10.31,0,0,0,5.3-1.45,10.91,10.91,0,0,0,4-4.08,11.17,11.17,0,0,0,1.46-5.49,11,11,0,0,0-1.45-5.48A10.56,10.56,0,0,0,742,85.38Z" transform="translate(-0.3 0.38)"/><path class="cls-2" d="M785.74,100.86l3,1.55a16.14,16.14,0,0,1-3.35,4.6,13.49,13.49,0,0,1-4.27,2.66,15.14,15.14,0,0,1-5.38.91q-6.65,0-10.4-4.36a14.75,14.75,0,0,1-3.74-9.85,14.47,14.47,0,0,1,3.17-9.21A13,13,0,0,1,775.49,82a13.42,13.42,0,0,1,11.1,5.27,14.79,14.79,0,0,1,3,9.29H765.14a11.09,11.09,0,0,0,3,7.76,9.63,9.63,0,0,0,7.22,3,11.67,11.67,0,0,0,4-.72,10.74,10.74,0,0,0,3.34-1.91A16.58,16.58,0,0,0,785.74,100.86Zm0-7.31a11.31,11.31,0,0,0-2-4.47,9.58,9.58,0,0,0-3.53-2.7,10.89,10.89,0,0,0-4.63-1,10,10,0,0,0-6.87,2.57,11.65,11.65,0,0,0-3.18,5.62Z" transform="translate(-0.3 0.38)"/><path class="cls-2" d="M809,82a13.46,13.46,0,0,1,10.41,4.55,14.58,14.58,0,0,1-.22,19.76,14.34,14.34,0,0,1-20.4,0,14.55,14.55,0,0,1-.22-19.74A13.47,13.47,0,0,1,809,82Zm0,3.42a10.08,10.08,0,0,0-7.49,3.23,10.73,10.73,0,0,0-3.13,7.78,11,11,0,0,0,1.43,5.5,10,10,0,0,0,3.85,3.93,11,11,0,0,0,10.68,0,10.13,10.13,0,0,0,3.86-3.93,11.08,11.08,0,0,0,1.42-5.5,10.7,10.7,0,0,0-3.14-7.78A10.1,10.1,0,0,0,809,85.43Z" transform="translate(-0.3 0.38)"/><path class="cls-2" d="M829.63,82.71h3.5v5a13.89,13.89,0,0,1,4.77-4.27,12.64,12.64,0,0,1,6-1.43,13.43,13.43,0,0,1,9.9,4.17,13.8,13.8,0,0,1,4.12,10,14,14,0,0,1-4.08,10.17,13.71,13.71,0,0,1-15.8,2.84,15,15,0,0,1-4.92-4v14.6h-3.5Zm14,2.67A10.29,10.29,0,0,0,836,88.55a10.81,10.81,0,0,0-3.1,7.88,11.18,11.18,0,0,0,1.38,5.56,10.11,10.11,0,0,0,4,3.92,11,11,0,0,0,5.44,1.44A10.28,10.28,0,0,0,849,105.9a10.83,10.83,0,0,0,3.95-4.08,11,11,0,0,0,0-11,10.53,10.53,0,0,0-9.3-5.47Z" transform="translate(-0.3 0.38)"/><path class="cls-2" d="M863.94,72.23h3.5v37.65h-3.5Z" transform="translate(-0.3 0.38)"/><path class="cls-2" d="M897.57,100.86l2.95,1.55a16.14,16.14,0,0,1-3.35,4.6,13.49,13.49,0,0,1-4.27,2.66,15.1,15.1,0,0,1-5.38.91q-6.64,0-10.39-4.36a14.71,14.71,0,0,1-3.75-9.85,14.52,14.52,0,0,1,3.17-9.21A13,13,0,0,1,887.33,82a13.39,13.39,0,0,1,11.09,5.27,14.67,14.67,0,0,1,3,9.29H877a11.09,11.09,0,0,0,3,7.76,9.63,9.63,0,0,0,7.22,3,11.63,11.63,0,0,0,4-.72,10.74,10.74,0,0,0,3.34-1.91A16.06,16.06,0,0,0,897.57,100.86Zm0-7.31a11.45,11.45,0,0,0-2-4.47,9.54,9.54,0,0,0-3.54-2.7,10.89,10.89,0,0,0-4.63-1,10,10,0,0,0-6.87,2.57,11.65,11.65,0,0,0-3.18,5.62Z" transform="translate(-0.3 0.38)"/><path class="cls-2" d="M911.78,104.38a3,3,0,0,1,2.18.9,3.15,3.15,0,0,1,0,4.39,3.09,3.09,0,0,1-4.35-4.39A3,3,0,0,1,911.78,104.38Z" transform="translate(-0.3 0.38)"/></svg>