<svg id="Capa_1" data-name="Capa 1" xmlns="http://www.w3.org/2000/svg" xmlns:xlink="http://www.w3.org/1999/xlink" viewBox="0 0 1024.42 131.51"><defs><style>.cls-1{fill:#c4c4c3;}.cls-2{fill:url(#linear-gradient);}.cls-3{fill:url(#linear-gradient-2);}.cls-4{fill:#aeaeae;}.cls-5{fill:url(#linear-gradient-3);}.cls-6{fill:url(#linear-gradient-4);}.cls-7{fill:url(#linear-gradient-5);}</style><linearGradient id="linear-gradient" x1="7.58" y1="65.55" x2="106.84" y2="65.55" gradientUnits="userSpaceOnUse"><stop offset="0" stop-color="#5a9e97"/><stop offset="1" stop-color="#67a86a"/></linearGradient><linearGradient id="linear-gradient-2" x1="48.53" y1="50.83" x2="65.9" y2="50.83" xlink:href="#linear-gradient"/><linearGradient id="linear-gradient-3" x1="236.85" y1="52.19" x2="275.88" y2="52.19" xlink:href="#linear-gradient"/><linearGradient id="linear-gradient-4" x1="279.68" y1="58.27" x2="320.01" y2="58.27" xlink:href="#linear-gradient"/><linearGradient id="linear-gradient-5" x1="327.46" y1="66.79" x2="364.59" y2="66.79" xlink:href="#linear-gradient"/></defs><title>PolisPay-3</title><path class="cls-1" d="M399.89,38.32h23v3.94h-19V54.85h18.85v3.93H403.9V74.56h18.85v3.93H399.89Z" transform="translate(-7.58 0.21)"/><path class="cls-1" d="M429.19,48.78H433v5.14a14.72,14.72,0,0,1,4.11-4.15A11.56,11.56,0,0,1,443.21,48a10,10,0,0,1,4.1.85,8.59,8.59,0,0,1,3.17,2.25,12.26,12.26,0,0,1,2.14,4,14.24,14.24,0,0,1,4.76-5.32A11.29,11.29,0,0,1,463.54,48,9.66,9.66,0,0,1,469,49.58a9.27,9.27,0,0,1,3.5,4.34,23.2,23.2,0,0,1,1.14,8.35V78.49h-3.9V62.27a21.27,21.27,0,0,0-.68-6.56,5.87,5.87,0,0,0-2.33-2.88,7,7,0,0,0-3.93-1.1,8.56,8.56,0,0,0-5.08,1.64,9.45,9.45,0,0,0-3.36,4.37q-1.06,2.73-1.06,9.12V78.49h-3.83V63.28a26.41,26.41,0,0,0-.66-7.3,6.2,6.2,0,0,0-2.34-3.09,6.78,6.78,0,0,0-4-1.16,8.59,8.59,0,0,0-5,1.6,9.56,9.56,0,0,0-3.41,4.3A23.11,23.11,0,0,0,433,65.91V78.49h-3.82Z" transform="translate(-7.58 0.21)"/><path class="cls-1" d="M481.73,48.78h3.83v5.47a15.17,15.17,0,0,1,5.21-4.67A13.8,13.8,0,0,1,497.34,48a14.67,14.67,0,0,1,10.83,4.56,15.07,15.07,0,0,1,4.5,11,15.32,15.32,0,0,1-4.46,11.13,15,15,0,0,1-17.28,3.09,16.34,16.34,0,0,1-5.37-4.39v16h-3.83ZM497,51.71a11.24,11.24,0,0,0-8.35,3.46,11.83,11.83,0,0,0-3.39,8.62,12.29,12.29,0,0,0,1.51,6.08,11.12,11.12,0,0,0,4.34,4.29,12,12,0,0,0,5.95,1.58,11.28,11.28,0,0,0,5.79-1.6,11.65,11.65,0,0,0,4.32-4.46,12,12,0,0,0,0-12,11.47,11.47,0,0,0-10.18-6Z" transform="translate(-7.58 0.21)"/><path class="cls-1" d="M533.89,48a14.69,14.69,0,0,1,11.38,5A15.93,15.93,0,0,1,545,74.6a15.69,15.69,0,0,1-22.32,0A15.89,15.89,0,0,1,522.49,53,14.65,14.65,0,0,1,533.89,48Zm0,3.74a11,11,0,0,0-8.2,3.52,11.79,11.79,0,0,0-3.42,8.52,12.11,12.11,0,0,0,1.56,6,11,11,0,0,0,4.22,4.3,12,12,0,0,0,11.68,0,11.11,11.11,0,0,0,4.22-4.3,12.11,12.11,0,0,0,1.56-6,11.77,11.77,0,0,0-3.44-8.52A11,11,0,0,0,533.88,51.76Z" transform="translate(-7.58 0.21)"/><path class="cls-1" d="M552.43,48.78h3.93l9.11,21.58L575,48.78h.7l9.54,21.58,9.28-21.58h4L585.54,78.49h-.71l-9.5-21.27-9.49,21.27h-.72Z" transform="translate(-7.58 0.21)"/><path class="cls-1" d="M627.94,68.64l3.22,1.69a17.34,17.34,0,0,1-3.66,5,14.32,14.32,0,0,1-4.67,2.91,16.19,16.19,0,0,1-5.88,1q-7.28,0-11.37-4.77A16.28,16.28,0,0,1,605,53.64,14.19,14.19,0,0,1,616.73,48a14.67,14.67,0,0,1,12.14,5.76,16.11,16.11,0,0,1,3.28,10.16H605.41a12.11,12.11,0,0,0,3.31,8.49,10.58,10.58,0,0,0,7.9,3.31A12.88,12.88,0,0,0,621,75a11.8,11.8,0,0,0,3.65-2.1A17.93,17.93,0,0,0,627.94,68.64Zm0-8a12.63,12.63,0,0,0-2.23-4.88,10.39,10.39,0,0,0-3.87-3,11.77,11.77,0,0,0-5.05-1.12,10.9,10.9,0,0,0-7.52,2.81,12.71,12.71,0,0,0-3.48,6.14Z" transform="translate(-7.58 0.21)"/><path class="cls-1" d="M637.83,48.78h3.9v4.35a13.63,13.63,0,0,1,3.69-3.84,7.24,7.24,0,0,1,4-1.27,7,7,0,0,1,3.39,1l-2,3.22a5.41,5.41,0,0,0-2-.52,5.55,5.55,0,0,0-3.68,1.57,9.89,9.89,0,0,0-2.71,4.88q-.71,2.53-.71,10.26v10h-3.9Z" transform="translate(-7.58 0.21)"/><path class="cls-1" d="M657.42,36.55a3,3,0,0,1,2.23.93,3.15,3.15,0,0,1,0,4.45,3,3,0,0,1-2.23.93,3,3,0,0,1-2.2-.93,3.13,3.13,0,0,1,0-4.45A3,3,0,0,1,657.42,36.55Zm-1.9,12.23h3.82V78.49h-3.82Z" transform="translate(-7.58 0.21)"/><path class="cls-1" d="M667.29,48.78h3.82v5.33a16.14,16.14,0,0,1,5.08-4.57A12.4,12.4,0,0,1,682.26,48a10.52,10.52,0,0,1,5.91,1.69A10.11,10.11,0,0,1,692,54.27c.82,1.92,1.23,4.89,1.23,8.93V78.49h-3.83V64.32a35.27,35.27,0,0,0-.42-6.85A7.48,7.48,0,0,0,686.41,53a7.71,7.71,0,0,0-4.92-1.49,9.43,9.43,0,0,0-6.21,2.3,10.7,10.7,0,0,0-3.62,5.67,39.81,39.81,0,0,0-.55,8.09V78.49h-3.82Z" transform="translate(-7.58 0.21)"/><path class="cls-1" d="M727,48.78h3.82V72.46c0,4.17-.37,7.22-1.09,9.15a12,12,0,0,1-5.22,6.31,17.19,17.19,0,0,1-8.93,2.21,20.47,20.47,0,0,1-6.87-1.08,13.58,13.58,0,0,1-5-2.91,17.28,17.28,0,0,1-3.53-5.32h4.15a11,11,0,0,0,4.38,4.37,14.12,14.12,0,0,0,6.64,1.41,13.7,13.7,0,0,0,6.6-1.45,9,9,0,0,0,3.85-3.66c.76-1.47,1.15-3.84,1.15-7.12V72.84A14.44,14.44,0,0,1,721.74,77a15.67,15.67,0,0,1-14.32-.57A14.46,14.46,0,0,1,701.84,71a15.45,15.45,0,0,1,13.39-23,14.2,14.2,0,0,1,6.22,1.38A17.05,17.05,0,0,1,727,54Zm-11.28,2.93a12.07,12.07,0,0,0-6,1.57,11.39,11.39,0,0,0-4.37,4.34,11.92,11.92,0,0,0-1.58,6A10.79,10.79,0,0,0,707,71.69a12.89,12.89,0,0,0,17,0,11.18,11.18,0,0,0,3.21-8.33,12.12,12.12,0,0,0-1.48-6,10.74,10.74,0,0,0-4.18-4.17A11.7,11.7,0,0,0,715.74,51.71Z" transform="translate(-7.58 0.21)"/><path class="cls-1" d="M754.57,48.78h3.82v5.47a15.26,15.26,0,0,1,5.21-4.67A13.86,13.86,0,0,1,770.18,48,14.67,14.67,0,0,1,781,52.58a15.07,15.07,0,0,1,4.5,11,15.36,15.36,0,0,1-4.46,11.13,14.51,14.51,0,0,1-10.76,4.57,14.36,14.36,0,0,1-6.52-1.48,16.27,16.27,0,0,1-5.38-4.39v16h-3.82Zm15.29,2.93a11.23,11.23,0,0,0-8.35,3.46,11.83,11.83,0,0,0-3.39,8.62,12.19,12.19,0,0,0,1.51,6.08A11.09,11.09,0,0,0,764,74.16a12.06,12.06,0,0,0,6,1.58,11.28,11.28,0,0,0,5.79-1.6A11.8,11.8,0,0,0,780,69.68a12.08,12.08,0,0,0,0-12,11.47,11.47,0,0,0-10.18-6Z" transform="translate(-7.58 0.21)"/><path class="cls-1" d="M822.27,48.78V78.49H818.5v-5.1a16.3,16.3,0,0,1-5.39,4.39,15.07,15.07,0,0,1-17.32-3.09,15.36,15.36,0,0,1-4.46-11.13,15.07,15.07,0,0,1,4.5-11A14.71,14.71,0,0,1,806.68,48a14,14,0,0,1,6.62,1.56,15,15,0,0,1,5.2,4.67V48.78ZM807,51.71a11.5,11.5,0,0,0-10.19,6,12.08,12.08,0,0,0,0,12,11.75,11.75,0,0,0,4.33,4.46,11.34,11.34,0,0,0,5.82,1.6,12,12,0,0,0,5.95-1.58,11.13,11.13,0,0,0,4.32-4.29,12.19,12.19,0,0,0,1.52-6.08,11.84,11.84,0,0,0-3.4-8.62A11.25,11.25,0,0,0,807,51.71Z" transform="translate(-7.58 0.21)"/><path class="cls-1" d="M827.68,48.78h4l10.21,22.88,9.91-22.88h4.07L838.19,89.36h-4l5.72-13.12Z" transform="translate(-7.58 0.21)"/><path class="cls-1" d="M860.83,48.78h3.82v5.14a14.7,14.7,0,0,1,4.1-4.15,11.6,11.6,0,0,1,6.1-1.75,10,10,0,0,1,4.1.85,8.76,8.76,0,0,1,3.17,2.25,12.26,12.26,0,0,1,2.14,4A14.16,14.16,0,0,1,889,49.83,11.29,11.29,0,0,1,895.18,48a9.61,9.61,0,0,1,5.43,1.56,9.29,9.29,0,0,1,3.51,4.34,23.2,23.2,0,0,1,1.14,8.35V78.49h-3.91V62.27a21,21,0,0,0-.68-6.56,5.85,5.85,0,0,0-2.32-2.88,7,7,0,0,0-3.94-1.1,8.55,8.55,0,0,0-5.07,1.64A9.33,9.33,0,0,0,886,57.74q-1.07,2.73-1.06,9.12V78.49h-3.83V63.28a25.91,25.91,0,0,0-.67-7.3,6.13,6.13,0,0,0-2.33-3.09,6.78,6.78,0,0,0-4-1.16,8.59,8.59,0,0,0-5,1.6,9.49,9.49,0,0,0-3.41,4.3,23.11,23.11,0,0,0-1.11,8.28V78.49h-3.82Z" transform="translate(-7.58 0.21)"/><path class="cls-1" d="M938.33,68.64l3.22,1.69a17.71,17.71,0,0,1-3.66,5,14.43,14.43,0,0,1-4.67,2.91,16.22,16.22,0,0,1-5.88,1q-7.27,0-11.37-4.77a16.06,16.06,0,0,1-4.1-10.77,15.86,15.86,0,0,1,3.47-10.08A14.18,14.18,0,0,1,927.12,48a14.67,14.67,0,0,1,12.14,5.76,16.11,16.11,0,0,1,3.28,10.16H915.8a12.11,12.11,0,0,0,3.31,8.49,10.56,10.56,0,0,0,7.9,3.31,12.92,12.92,0,0,0,4.42-.79,11.8,11.8,0,0,0,3.65-2.1A17.93,17.93,0,0,0,938.33,68.64Zm0-8a12.63,12.63,0,0,0-2.23-4.88,10.39,10.39,0,0,0-3.87-3,11.79,11.79,0,0,0-5.06-1.12,10.89,10.89,0,0,0-7.51,2.81,12.71,12.71,0,0,0-3.48,6.14Z" transform="translate(-7.58 0.21)"/><path class="cls-1" d="M949.66,48.78h3.83v5.33a15.93,15.93,0,0,1,5.08-4.57A12.34,12.34,0,0,1,964.63,48a10.52,10.52,0,0,1,5.91,1.69,10.11,10.11,0,0,1,3.81,4.56c.82,1.92,1.23,4.89,1.23,8.93V78.49h-3.83V64.32a35.27,35.27,0,0,0-.42-6.85A7.48,7.48,0,0,0,968.78,53a7.69,7.69,0,0,0-4.92-1.49,9.43,9.43,0,0,0-6.21,2.3A10.7,10.7,0,0,0,954,59.51a40,40,0,0,0-.54,8.09V78.49h-3.83Z" transform="translate(-7.58 0.21)"/><path class="cls-1" d="M987.1,37.75h3.82v11H997v3.31h-6.07v26.4H987.1V52.09h-5.21V48.78h5.21Z" transform="translate(-7.58 0.21)"/><path class="cls-1" d="M1017.66,52l-2.46,2.54q-3.06-3-6-3a4.52,4.52,0,0,0-3.19,1.23,3.76,3.76,0,0,0-1.33,2.86,4.19,4.19,0,0,0,1.1,2.76,15.27,15.27,0,0,0,4.59,3.14c2.85,1.48,4.78,2.89,5.8,4.26a7.74,7.74,0,0,1,1.51,4.67,8.39,8.39,0,0,1-2.57,6.2,8.81,8.81,0,0,1-6.43,2.54,11.2,11.2,0,0,1-4.91-1.12,10.59,10.59,0,0,1-3.87-3.09l2.4-2.73q2.94,3.32,6.22,3.31a5.55,5.55,0,0,0,3.91-1.48,4.55,4.55,0,0,0,1.62-3.47,4.46,4.46,0,0,0-1.07-2.92,17.45,17.45,0,0,0-4.82-3.17,15.39,15.39,0,0,1-5.47-4.09,7.71,7.71,0,0,1-1.45-4.62,7.5,7.5,0,0,1,2.31-5.62A8.07,8.07,0,0,1,1009.4,48Q1013.51,48,1017.66,52Z" transform="translate(-7.58 0.21)"/><path class="cls-1" d="M1028.64,72.49a3.23,3.23,0,0,1,2.38,1,3.42,3.42,0,0,1,0,4.79,3.33,3.33,0,0,1-4.76,0,3.42,3.42,0,0,1,0-4.79A3.23,3.23,0,0,1,1028.64,72.49Z" transform="translate(-7.58 0.21)"/><path class="cls-2" d="M57.22-.21A49.63,49.63,0,0,0,7.58,49.42V131.3l17.75-19.76V49.3a31.41,31.41,0,1,1,20.6,29.51v19a49.63,49.63,0,1,0,11.29-98Z" transform="translate(-7.58 0.21)"/><path class="cls-3" d="M65.9,50.83a8.69,8.69,0,1,0-8.69,8.69A8.69,8.69,0,0,0,65.9,50.83Z" transform="translate(-7.58 0.21)"/><path class="cls-4" d="M154.36,58.56a20.87,20.87,0,0,1-1.49,7.92,18.2,18.2,0,0,1-4.18,6.27,19.47,19.47,0,0,1-6.43,4.11,23.09,23.09,0,0,1-16.32,0,19.5,19.5,0,0,1-6.39-4.11,18.23,18.23,0,0,1-4.19-6.27,21.9,21.9,0,0,1,0-15.83,18.27,18.27,0,0,1,4.19-6.28,19.5,19.5,0,0,1,6.39-4.11,23.24,23.24,0,0,1,16.32,0,19.47,19.47,0,0,1,6.43,4.11,18.24,18.24,0,0,1,4.18,6.28A20.78,20.78,0,0,1,154.36,58.56ZM134.12,69.9a10.54,10.54,0,0,0,8-3.16,11.34,11.34,0,0,0,3-8.18,11.38,11.38,0,0,0-3-8.18,10.57,10.57,0,0,0-8-3.15,10.71,10.71,0,0,0-8.07,3.15,11.31,11.31,0,0,0-3,8.18,11.28,11.28,0,0,0,3,8.18A10.68,10.68,0,0,0,134.12,69.9Z" transform="translate(-7.58 0.21)"/><path class="cls-4" d="M161.59,77.36v-54h9v54Z" transform="translate(-7.58 0.21)"/><path class="cls-4" d="M185.17,35.28a6,6,0,0,1-6-6,5.9,5.9,0,0,1,1.75-4.34,6.11,6.11,0,0,1,8.56,0,6,6,0,0,1,1.71,4.34,5.88,5.88,0,0,1-1.71,4.26A5.76,5.76,0,0,1,185.17,35.28Zm-4.49,42.08V39.77h9.06V77.36Z" transform="translate(-7.58 0.21)"/><path class="cls-4" d="M218.8,50.58a3.71,3.71,0,0,0-1.67-2.82,7.22,7.22,0,0,0-4.19-1.07,7,7,0,0,0-4.52,1.22A3.86,3.86,0,0,0,206.93,51a2.39,2.39,0,0,0,1.6,2.36,17.13,17.13,0,0,0,4,1.07c1.62.25,3.36.5,5.21.76A18,18,0,0,1,223,56.74,10.61,10.61,0,0,1,227,60a9.88,9.88,0,0,1,1.6,6,11.19,11.19,0,0,1-1.11,5,11,11,0,0,1-3.16,3.91,15.09,15.09,0,0,1-5,2.55,21.72,21.72,0,0,1-6.5.92,21.38,21.38,0,0,1-6.47-.92,15.57,15.57,0,0,1-5-2.51,11.36,11.36,0,0,1-3.19-3.8A11.17,11.17,0,0,1,197,66.25h9.13a3.72,3.72,0,0,0,1.71,3,8.44,8.44,0,0,0,4.83,1.14c2.44,0,4.17-.4,5.22-1.22A3.86,3.86,0,0,0,219.48,66a2.33,2.33,0,0,0-1.59-2.32,17.53,17.53,0,0,0-4-1L208.64,62a18.75,18.75,0,0,1-5.21-1.49,9.87,9.87,0,0,1-4-3.31A10.3,10.3,0,0,1,197.8,51a11.34,11.34,0,0,1,1.07-4.91,11.53,11.53,0,0,1,3-3.88,14,14,0,0,1,4.72-2.55,20,20,0,0,1,6.2-.91,19.65,19.65,0,0,1,6.16.91,14.53,14.53,0,0,1,4.68,2.51,11.4,11.4,0,0,1,3,3.73,11,11,0,0,1,1.14,4.65Z" transform="translate(-7.58 0.21)"/><path class="cls-5" d="M236.85,77.07V27.31h20.31a25.38,25.38,0,0,1,8.41,1.25,15.37,15.37,0,0,1,5.82,3.54,14.31,14.31,0,0,1,3.39,5.37,21.14,21.14,0,0,1,0,13.46,14.31,14.31,0,0,1-3.39,5.37,15.35,15.35,0,0,1-5.82,3.53,25.11,25.11,0,0,1-8.41,1.26H246.59v16Zm20.46-25c3.25,0,5.51-.74,6.78-2.24a8.53,8.53,0,0,0,1.9-5.68,8.35,8.35,0,0,0-1.9-5.58q-1.9-2.25-6.78-2.25H246.59V52.11Z" transform="translate(-7.58 0.21)"/><path class="cls-6" d="M320,77.07h-8.29v-7h-.16a12.24,12.24,0,0,1-5,5.83,15.47,15.47,0,0,1-8.29,2.17,19.59,19.59,0,0,1-6.7-1.22,17.16,17.16,0,0,1-6-3.69A18.6,18.6,0,0,1,281.32,67a21.32,21.32,0,0,1-1.64-8.71,20.85,20.85,0,0,1,1.49-7.91,18.2,18.2,0,0,1,4.18-6.27A19.28,19.28,0,0,1,291.74,40a21.56,21.56,0,0,1,8.19-1.49,22.34,22.34,0,0,1,8.13,1.45A18,18,0,0,1,314.42,44a18.73,18.73,0,0,1,4.11,6.32A21.85,21.85,0,0,1,320,58.58Zm-20.08-7.46a10.55,10.55,0,0,0,8-3.16,11.34,11.34,0,0,0,3-8.18,11.38,11.38,0,0,0-3-8.18,10.58,10.58,0,0,0-8-3.15,10.71,10.71,0,0,0-8.07,3.15,11.31,11.31,0,0,0-3,8.18,11.28,11.28,0,0,0,3,8.18A10.68,10.68,0,0,0,299.93,69.61Z" transform="translate(-7.58 0.21)"/><path class="cls-7" d="M355.54,71.59h-.15A12.1,12.1,0,0,1,350.9,76a13,13,0,0,1-6.54,1.6A18.55,18.55,0,0,1,338,76.5a15,15,0,0,1-5.4-3.4,16,16,0,0,1-3.76-5.88,23.55,23.55,0,0,1-1.42-8.64V39.48h9.06v19.1c0,3.6.87,6.27,2.59,8a10.34,10.34,0,0,0,13.77-.07q2.65-2.67,2.66-7.92V39.48h9v36.3a21.88,21.88,0,0,1-1.44,8.4,14.82,14.82,0,0,1-4,5.67,16,16,0,0,1-6,3.24,25.45,25.45,0,0,1-7.3,1,24,24,0,0,1-6.2-.77A17.32,17.32,0,0,1,334.35,91a15.62,15.62,0,0,1-4.11-4,16,16,0,0,1-2.47-5.77h9.05c1.48,3.4,4.49,5.1,9.06,5.1,3.09,0,5.48-.81,7.15-2.4s2.51-4.23,2.51-7.88Z" transform="translate(-7.58 0.21)"/></svg>