<svg id="Capa_1" data-name="Capa 1" xmlns="http://www.w3.org/2000/svg" viewBox="0 0 1024.18 341.21"><defs><style>.cls-1{fill:#4772de;}.cls-2{fill:#fff;}</style></defs><title>PolisNodes2-2</title><path class="cls-1" d="M1024,306.43c0,19.25-13.62,34.88-30.43,34.88H30.25c-16.8,0-30.43-15.63-30.43-34.88V35C-.18,15.71,13.45.1,30.25.1H993.57C1010.38.1,1024,15.71,1024,35Z" transform="translate(0.18 -0.1)"/><path class="cls-2" d="M193.4,75.66a84.78,84.78,0,0,0-84.79,84.79V300.31l30.31-33.75V160.22a53.7,53.7,0,0,1,102.47-22.48H192.23a7.56,7.56,0,1,0,.29,7.57H244.2a53.3,53.3,0,0,1,2.12,14.91c0,.53,0,1.06,0,1.57H168.87a7.56,7.56,0,1,0,0,7.55h76.68a53.13,53.13,0,0,1-4.22,13.51H210a7.57,7.57,0,1,0,0,7.59H237a53.77,53.77,0,0,1-62.93,20.22V243A84.79,84.79,0,1,0,193.4,75.66Z" transform="translate(0.18 -0.1)"/><path class="cls-2" d="M583.89,211.66V158.09q0-9.93-5.1-15.44t-15.29-5.5q-10.2,0-15.3,5.5t-5.1,15.44v53.57H525.7V158.09a44.65,44.65,0,0,1,2.52-15.44A32.16,32.16,0,0,1,535.49,131a31.72,31.72,0,0,1,11.83-7.41,52,52,0,0,1,32.36,0A31.72,31.72,0,0,1,591.51,131a32.29,32.29,0,0,1,7.27,11.69,44.65,44.65,0,0,1,2.52,15.44v53.57Z" transform="translate(0.18 -0.1)"/><path class="cls-2" d="M684.64,178.08A37.22,37.22,0,0,1,682,192.22a32.59,32.59,0,0,1-7.48,11.21A34.54,34.54,0,0,1,663,210.77a41.29,41.29,0,0,1-29.16,0,34.64,34.64,0,0,1-11.42-7.34A32.59,32.59,0,0,1,615,192.22a39.08,39.08,0,0,1,0-28.29,32.4,32.4,0,0,1,7.48-11.21,34.82,34.82,0,0,1,11.42-7.35,41.43,41.43,0,0,1,29.16,0,34.72,34.72,0,0,1,11.49,7.35A32.4,32.4,0,0,1,682,163.93,37.23,37.23,0,0,1,684.64,178.08Zm-36.16,20.25q9,0,14.34-5.64t5.37-14.61q0-9-5.37-14.62t-14.34-5.65q-9,0-14.42,5.65t-5.44,14.62q0,9,5.44,14.61T648.48,198.33Z" transform="translate(0.18 -0.1)"/><path class="cls-2" d="M764.58,177.53a39.7,39.7,0,0,1-2.65,14.82,33,33,0,0,1-7.34,11.35,31.64,31.64,0,0,1-11.35,7.21,41,41,0,0,1-14.55,2.52,38.83,38.83,0,0,1-14.62-2.66,34.74,34.74,0,0,1-11.42-7.34,32.59,32.59,0,0,1-7.48-11.21,37.41,37.41,0,0,1-2.65-14.14,38.11,38.11,0,0,1,2.93-15.57,33.47,33.47,0,0,1,7.61-11,30.78,30.78,0,0,1,10.67-6.6,34.85,34.85,0,0,1,12-2.18,28.78,28.78,0,0,1,13.39,3,22.93,22.93,0,0,1,9,8.16h.28V115.13h16.17Zm-35.89,20.8q9,0,14.34-5.64t5.38-14.61q0-9-5.38-14.62t-14.34-5.65q-9,0-14.41,5.65t-5.44,14.62q0,9,5.44,14.61T728.69,198.33Z" transform="translate(0.18 -0.1)"/><path class="cls-2" d="M792.18,183.79v.26a18.82,18.82,0,0,0,6.6,10.75q5,3.93,12.57,3.94,10.88,0,15.91-6.39h17.26A32,32,0,0,1,832,207.72q-8.71,5.7-20.67,5.71a38.83,38.83,0,0,1-14.62-2.66,34.74,34.74,0,0,1-11.42-7.34,32.59,32.59,0,0,1-7.48-11.21,39.08,39.08,0,0,1,0-28.29,32.4,32.4,0,0,1,7.48-11.21,34.93,34.93,0,0,1,11.42-7.35,41.46,41.46,0,0,1,29.17,0,32.56,32.56,0,0,1,18.69,18.56,37.23,37.23,0,0,1,2.65,14.15v5.71Zm19.17-26.38a19.82,19.82,0,0,0-12,3.53,18.36,18.36,0,0,0-6.73,9.66v.27h37.52v-.27a18.21,18.21,0,0,0-6.8-9.66A19.92,19.92,0,0,0,811.35,157.41Z" transform="translate(0.18 -0.1)"/><path class="cls-2" d="M894.15,163.8a6.59,6.59,0,0,0-3-5,12.82,12.82,0,0,0-7.47-1.9c-3.63,0-6.32.72-8.09,2.17a6.88,6.88,0,0,0-2.65,5.57,4.29,4.29,0,0,0,2.85,4.22,30.75,30.75,0,0,0,7.21,1.9c2.9.45,6,.91,9.31,1.36a32.37,32.37,0,0,1,9.32,2.72,18.84,18.84,0,0,1,7.2,5.85c1.91,2.54,2.85,6.11,2.85,10.74a19.83,19.83,0,0,1-7.61,15.84,27.07,27.07,0,0,1-8.9,4.55,38.91,38.91,0,0,1-11.63,1.64A38.14,38.14,0,0,1,872,211.79a28,28,0,0,1-8.84-4.48,20.49,20.49,0,0,1-5.71-6.8,19.92,19.92,0,0,1-2.18-8.7h16.32a6.66,6.66,0,0,0,3.06,5.43c1.94,1.37,4.82,2,8.63,2,4.35,0,7.46-.72,9.31-2.17a6.89,6.89,0,0,0,2.79-5.71,4.16,4.16,0,0,0-2.85-4.15,31.24,31.24,0,0,0-7.21-1.77L876,184.19a33.18,33.18,0,0,1-9.31-2.65,17.79,17.79,0,0,1-7.2-5.91q-2.87-3.94-2.86-11a20.2,20.2,0,0,1,1.9-8.77,20.52,20.52,0,0,1,5.37-6.93,25.18,25.18,0,0,1,8.44-4.55,35.23,35.23,0,0,1,11.08-1.64,34.65,34.65,0,0,1,11,1.64,26,26,0,0,1,8.36,4.48,20.57,20.57,0,0,1,5.37,6.66,19.66,19.66,0,0,1,2,8.3Z" transform="translate(0.18 -0.1)"/><path class="cls-2" d="M368.07,176.75a37.13,37.13,0,0,1-2.65,14.13,32.53,32.53,0,0,1-7.48,11.22,34.65,34.65,0,0,1-11.48,7.34,41.46,41.46,0,0,1-29.17,0,34.9,34.9,0,0,1-11.42-7.34,32.53,32.53,0,0,1-7.48-11.22,39,39,0,0,1,0-28.28,32.4,32.4,0,0,1,7.48-11.21A34.93,34.93,0,0,1,317.29,144a41.46,41.46,0,0,1,29.17,0,34.68,34.68,0,0,1,11.48,7.35,32.4,32.4,0,0,1,7.48,11.21A37.2,37.2,0,0,1,368.07,176.75ZM331.91,197q9,0,14.34-5.64t5.37-14.61q0-9-5.37-14.62t-14.34-5.65q-9,0-14.41,5.65t-5.44,14.62q0,9,5.44,14.61T331.91,197Z" transform="translate(0.18 -0.1)"/><path class="cls-2" d="M381,210.33V113.79h16.18v96.54Z" transform="translate(0.18 -0.1)"/><path class="cls-2" d="M423.14,135.14a10.69,10.69,0,0,1-10.75-10.74,10.56,10.56,0,0,1,3.13-7.75,10.91,10.91,0,0,1,15.3,0,10.66,10.66,0,0,1,3.06,7.75,10.46,10.46,0,0,1-3.06,7.61A10.28,10.28,0,0,1,423.14,135.14Zm-8,75.19V143.16h16.17v67.17Z" transform="translate(0.18 -0.1)"/><path class="cls-2" d="M483.23,162.47a6.58,6.58,0,0,0-3-5,12.84,12.84,0,0,0-7.47-1.91q-5.44,0-8.1,2.18a6.91,6.91,0,0,0-2.65,5.57,4.28,4.28,0,0,0,2.86,4.22,30.52,30.52,0,0,0,7.2,1.9c2.9.45,6,.91,9.31,1.36a32.19,32.19,0,0,1,9.32,2.72,19,19,0,0,1,7.21,5.84c1.9,2.55,2.85,6.12,2.85,10.75a19.8,19.8,0,0,1-7.61,15.83,27.13,27.13,0,0,1-8.91,4.56,38.85,38.85,0,0,1-11.62,1.63,38.21,38.21,0,0,1-11.56-1.63,28,28,0,0,1-8.83-4.48,20.52,20.52,0,0,1-5.72-6.8,19.91,19.91,0,0,1-2.17-8.7h16.31a6.66,6.66,0,0,0,3.06,5.43c1.95,1.37,4.83,2,8.64,2q6.52,0,9.31-2.17a6.88,6.88,0,0,0,2.78-5.71,4.16,4.16,0,0,0-2.85-4.15,31.14,31.14,0,0,0-7.2-1.77l-9.32-1.29a33.08,33.08,0,0,1-9.31-2.65,17.88,17.88,0,0,1-7.21-5.91q-2.85-3.95-2.85-11a20.2,20.2,0,0,1,1.9-8.77,20.52,20.52,0,0,1,5.37-6.93,24.86,24.86,0,0,1,8.43-4.55,35.28,35.28,0,0,1,11.08-1.64,34.61,34.61,0,0,1,11,1.64,25.84,25.84,0,0,1,8.37,4.48,20.47,20.47,0,0,1,5.37,6.66,19.5,19.5,0,0,1,2,8.3Z" transform="translate(0.18 -0.1)"/></svg>