<svg id="Capa_1" data-name="Capa 1" xmlns="http://www.w3.org/2000/svg" viewBox="0 0 1024.16 170.02"><defs><style>.cls-1{fill:#4772de;}.cls-2{fill:#fff;}</style></defs><title>PolisNodes2-4</title><path class="cls-1" d="M1024,152.25c0,9.6-13.62,17.38-30.44,17.38H30.27c-16.81,0-30.43-7.78-30.43-17.38V17C-.16,7.39,13.46-.39,30.27-.39H993.56C1010.38-.39,1024,7.39,1024,17Z" transform="translate(0.16 0.39)"/><path class="cls-2" d="M435.27,70.24h17.05v2.91H438.25v9.32h13.94v2.91H438.25V97.07h13.94V100H435.27Z" transform="translate(0.16 0.39)"/><path class="cls-2" d="M457,78h2.84v3.79a10.92,10.92,0,0,1,3-3.07,8.64,8.64,0,0,1,4.51-1.29,7.49,7.49,0,0,1,3,.63,6.48,6.48,0,0,1,2.35,1.66,9.07,9.07,0,0,1,1.57,3,10.6,10.6,0,0,1,3.53-3.93,8.44,8.44,0,0,1,4.56-1.34,7.1,7.1,0,0,1,4,1.15,6.9,6.9,0,0,1,2.6,3.21,17.33,17.33,0,0,1,.84,6.19v12H487V88a15.56,15.56,0,0,0-.5-4.86A4.42,4.42,0,0,0,484.74,81a5.17,5.17,0,0,0-2.91-.81,6.32,6.32,0,0,0-3.76,1.21,6.94,6.94,0,0,0-2.49,3.24,20.51,20.51,0,0,0-.79,6.75V100H472V88.72a19.27,19.27,0,0,0-.5-5.41A4.52,4.52,0,0,0,469.74,81a5,5,0,0,0-2.93-.86,6.31,6.31,0,0,0-3.67,1.18,7,7,0,0,0-2.53,3.18,17.38,17.38,0,0,0-.81,6.13V100H457Z" transform="translate(0.16 0.39)"/><path class="cls-2" d="M495.86,78h2.83v4a11.33,11.33,0,0,1,3.86-3.46,10.2,10.2,0,0,1,4.86-1.15,10.9,10.9,0,0,1,8,3.37,11.19,11.19,0,0,1,3.33,8.13,11.36,11.36,0,0,1-3.3,8.24,11.08,11.08,0,0,1-12.79,2.29,12,12,0,0,1-4-3.25V108h-2.83Zm11.32,2.16A8.29,8.29,0,0,0,501,82.71a8.74,8.74,0,0,0-2.51,6.38,9.06,9.06,0,0,0,1.12,4.51,8.13,8.13,0,0,0,3.2,3.17,8.91,8.91,0,0,0,4.41,1.17,8.4,8.4,0,0,0,4.29-1.18,8.72,8.72,0,0,0,3.19-3.3,8.93,8.93,0,0,0,0-8.89,8.42,8.42,0,0,0-3.17-3.26A8.6,8.6,0,0,0,507.18,80.15Z" transform="translate(0.16 0.39)"/><path class="cls-2" d="M534.47,77.42a10.9,10.9,0,0,1,8.42,3.68,11.8,11.8,0,0,1-.17,16,11.61,11.61,0,0,1-16.52,0,11.79,11.79,0,0,1-.18-16A10.89,10.89,0,0,1,534.47,77.42Zm0,2.77a8.16,8.16,0,0,0-6.07,2.61,8.69,8.69,0,0,0-2.53,6.3A9,9,0,0,0,527,93.55a8.18,8.18,0,0,0,3.13,3.18,8.82,8.82,0,0,0,8.64,0,8.16,8.16,0,0,0,3.12-3.18,9,9,0,0,0,1.16-4.45,8.67,8.67,0,0,0-2.55-6.3A8.15,8.15,0,0,0,534.46,80.19Z" transform="translate(0.16 0.39)"/><path class="cls-2" d="M548.19,78h2.92l6.74,16,7-16h.51l7.06,16,6.87-16h3l-9.56,22h-.52l-7-15.75-7,15.75h-.53Z" transform="translate(0.16 0.39)"/><path class="cls-2" d="M604.09,92.68l2.38,1.25a13,13,0,0,1-2.71,3.73,10.75,10.75,0,0,1-3.46,2.15,12.1,12.1,0,0,1-4.35.74A10.51,10.51,0,0,1,587.54,97a12,12,0,0,1-.47-15.44,10.52,10.52,0,0,1,8.72-4.16,10.82,10.82,0,0,1,9,4.27,11.85,11.85,0,0,1,2.43,7.52H587.41a9,9,0,0,0,2.45,6.28,7.83,7.83,0,0,0,5.85,2.45,9.4,9.4,0,0,0,3.27-.59,8.46,8.46,0,0,0,2.7-1.55A13.24,13.24,0,0,0,604.09,92.68Zm0-5.92a9.43,9.43,0,0,0-1.65-3.62A7.83,7.83,0,0,0,599.58,81a8.84,8.84,0,0,0-3.75-.83,8,8,0,0,0-5.56,2.08,9.37,9.37,0,0,0-2.58,4.55Z" transform="translate(0.16 0.39)"/><path class="cls-2" d="M611.41,78h2.89V81.2A10.07,10.07,0,0,1,617,78.36a5.33,5.33,0,0,1,3-.94,5.2,5.2,0,0,1,2.51.75l-1.48,2.38a3.54,3.54,0,0,0-4.22.78,7.37,7.37,0,0,0-2,3.61,34.74,34.74,0,0,0-.52,7.6V100h-2.89Z" transform="translate(0.16 0.39)"/><path class="cls-2" d="M625.91,68.93a2.34,2.34,0,1,1-1.63,4,2.33,2.33,0,0,1,0-3.29A2.22,2.22,0,0,1,625.91,68.93ZM624.51,78h2.83v22h-2.83Z" transform="translate(0.16 0.39)"/><path class="cls-2" d="M633.22,78h2.83v3.94a11.89,11.89,0,0,1,3.76-3.39,9.2,9.2,0,0,1,4.49-1.12,7.82,7.82,0,0,1,4.37,1.25,7.48,7.48,0,0,1,2.83,3.38,18,18,0,0,1,.91,6.61V100h-2.84V89.49a26,26,0,0,0-.31-5.08,5.58,5.58,0,0,0-1.89-3.28,5.72,5.72,0,0,0-3.64-1.1,7,7,0,0,0-4.6,1.7,8,8,0,0,0-2.68,4.2,30.06,30.06,0,0,0-.4,6V100h-2.83Z" transform="translate(0.16 0.39)"/><path class="cls-2" d="M677.43,78h2.83V95.51a20.63,20.63,0,0,1-.81,6.77,8.81,8.81,0,0,1-3.86,4.67,12.71,12.71,0,0,1-6.61,1.64,15.17,15.17,0,0,1-5.08-.8,10,10,0,0,1-3.67-2.15,12.75,12.75,0,0,1-2.61-3.94h3.07a8.17,8.17,0,0,0,3.24,3.23,10.41,10.41,0,0,0,4.92,1,10.28,10.28,0,0,0,4.89-1.07,6.67,6.67,0,0,0,2.84-2.71,12.06,12.06,0,0,0,.85-5.27V95.8a10.78,10.78,0,0,1-3.9,3.1,11.6,11.6,0,0,1-10.61-.43,10.65,10.65,0,0,1-4.13-4,11.08,11.08,0,0,1-1.45-5.6,11.44,11.44,0,0,1,11.37-11.4,10.53,10.53,0,0,1,4.6,1,12.54,12.54,0,0,1,4.12,3.37Zm-8.35,2.16a9,9,0,0,0-4.47,1.16,8.47,8.47,0,0,0-3.23,3.22A8.76,8.76,0,0,0,660.21,89a8,8,0,0,0,2.42,6,8.65,8.65,0,0,0,6.29,2.36A8.54,8.54,0,0,0,675.2,95a8.27,8.27,0,0,0,2.37-6.16,8.93,8.93,0,0,0-1.09-4.44,8,8,0,0,0-3.09-3.08A8.67,8.67,0,0,0,669.08,80.15Z" transform="translate(0.16 0.39)"/><path class="cls-2" d="M696.9,100l4.25-29.74h.49l12.09,24.4,12-24.4h.47L730.45,100h-2.91L724.6,78.71,714.09,100h-.76L702.69,78.55,699.77,100Z" transform="translate(0.16 0.39)"/><path class="cls-2" d="M757.74,78v22H755V96.2a11.93,11.93,0,0,1-4,3.25,11.13,11.13,0,0,1-12.82-2.29,11.36,11.36,0,0,1-3.3-8.24,11.16,11.16,0,0,1,3.34-8.13,10.89,10.89,0,0,1,8-3.37,10.33,10.33,0,0,1,4.9,1.15A11.12,11.12,0,0,1,755,82V78Zm-11.31,2.16a8.53,8.53,0,0,0-7.54,4.42A8.89,8.89,0,0,0,737.71,89a9,9,0,0,0,1.19,4.45,8.75,8.75,0,0,0,3.2,3.3,8.44,8.44,0,0,0,4.31,1.18,8.88,8.88,0,0,0,4.41-1.17A8.26,8.26,0,0,0,754,93.6a9.17,9.17,0,0,0,1.12-4.51,8.75,8.75,0,0,0-2.52-6.38A8.31,8.31,0,0,0,746.43,80.15Z" transform="translate(0.16 0.39)"/><path class="cls-2" d="M775.17,80.39l-1.82,1.88a6.56,6.56,0,0,0-4.44-2.2,3.33,3.33,0,0,0-2.36.91,2.77,2.77,0,0,0-1,2.12,3.14,3.14,0,0,0,.81,2,11.34,11.34,0,0,0,3.4,2.33,12.67,12.67,0,0,1,4.29,3.15,5.7,5.7,0,0,1,1.12,3.46,6.22,6.22,0,0,1-1.9,4.58,6.49,6.49,0,0,1-4.76,1.89,8.39,8.39,0,0,1-3.64-.83A8,8,0,0,1,762,97.43l1.78-2a6.19,6.19,0,0,0,4.6,2.45,4.12,4.12,0,0,0,2.89-1.1,3.35,3.35,0,0,0,1.2-2.56,3.3,3.3,0,0,0-.79-2.17,12.74,12.74,0,0,0-3.57-2.34,11.54,11.54,0,0,1-4-3A5.77,5.77,0,0,1,763,83.24a5.54,5.54,0,0,1,1.71-4.16,5.94,5.94,0,0,1,4.32-1.66C771.08,77.42,773.11,78.41,775.17,80.39Z" transform="translate(0.16 0.39)"/><path class="cls-2" d="M782.65,69.82h2.83V78H790v2.44h-4.49V100h-2.83V80.43h-3.86V78h3.86Z" transform="translate(0.16 0.39)"/><path class="cls-2" d="M812.73,92.68l2.38,1.25a13,13,0,0,1-2.71,3.73,10.75,10.75,0,0,1-3.46,2.15,12.1,12.1,0,0,1-4.35.74A10.53,10.53,0,0,1,796.17,97a11.91,11.91,0,0,1-3-8,11.73,11.73,0,0,1,2.57-7.46,10.52,10.52,0,0,1,8.72-4.16,10.83,10.83,0,0,1,9,4.27,11.91,11.91,0,0,1,2.43,7.52H796.05a9,9,0,0,0,2.45,6.28,7.83,7.83,0,0,0,5.85,2.45,9.4,9.4,0,0,0,3.27-.59,8.46,8.46,0,0,0,2.7-1.55A13.24,13.24,0,0,0,812.73,92.68Zm0-5.92a9.43,9.43,0,0,0-1.65-3.62A7.79,7.79,0,0,0,808.21,81a8.76,8.76,0,0,0-3.74-.83,8.06,8.06,0,0,0-5.57,2.08,9.44,9.44,0,0,0-2.57,4.55Z" transform="translate(0.16 0.39)"/><path class="cls-2" d="M820,78h2.89V81.2a10.23,10.23,0,0,1,2.74-2.84,5.33,5.33,0,0,1,3-.94,5.14,5.14,0,0,1,2.5.75l-1.47,2.38a3.55,3.55,0,0,0-4.23.78,7.44,7.44,0,0,0-2,3.61,34.53,34.53,0,0,0-.53,7.6V100H820Z" transform="translate(0.16 0.39)"/><path class="cls-2" d="M833.57,78h2.83v3.94a11.78,11.78,0,0,1,3.76-3.39,9.2,9.2,0,0,1,4.49-1.12A7.82,7.82,0,0,1,849,78.67a7.39,7.39,0,0,1,2.82,3.38,17.72,17.72,0,0,1,.92,6.61V100h-2.84V89.49a26,26,0,0,0-.31-5.08,5.58,5.58,0,0,0-1.89-3.28,5.72,5.72,0,0,0-3.64-1.1,7,7,0,0,0-4.6,1.7,8,8,0,0,0-2.68,4.2,30.06,30.06,0,0,0-.4,6V100h-2.83Z" transform="translate(0.16 0.39)"/><path class="cls-2" d="M869.23,77.42a10.9,10.9,0,0,1,8.42,3.68,11.8,11.8,0,0,1-.17,16,11.61,11.61,0,0,1-16.52,0,11.78,11.78,0,0,1-.17-16A10.86,10.86,0,0,1,869.23,77.42Zm0,2.77a8.16,8.16,0,0,0-6.07,2.61,8.69,8.69,0,0,0-2.53,6.3,9,9,0,0,0,1.15,4.45,8.18,8.18,0,0,0,3.13,3.18,8.82,8.82,0,0,0,8.64,0,8.16,8.16,0,0,0,3.12-3.18,9,9,0,0,0,1.16-4.45,8.67,8.67,0,0,0-2.55-6.3A8.15,8.15,0,0,0,869.22,80.19Z" transform="translate(0.16 0.39)"/><path class="cls-2" d="M907.88,69.5V100h-2.79V96.2a12.13,12.13,0,0,1-4,3.25,11.13,11.13,0,0,1-12.82-2.29,11.36,11.36,0,0,1-3.3-8.24,11.19,11.19,0,0,1,3.33-8.13,10.91,10.91,0,0,1,8-3.37,10.36,10.36,0,0,1,4.9,1.15A11.12,11.12,0,0,1,905.09,82V69.5ZM896.57,80.15a8.54,8.54,0,0,0-4.36,1.16A8.45,8.45,0,0,0,889,84.57a8.93,8.93,0,0,0,0,8.89,8.68,8.68,0,0,0,3.2,3.3,8.42,8.42,0,0,0,4.31,1.18,8.84,8.84,0,0,0,4.4-1.17,8.2,8.2,0,0,0,3.2-3.17,9.06,9.06,0,0,0,1.12-4.51,8.78,8.78,0,0,0-2.51-6.38A8.33,8.33,0,0,0,896.57,80.15Z" transform="translate(0.16 0.39)"/><path class="cls-2" d="M932.81,92.68l2.38,1.25a13,13,0,0,1-2.71,3.73A10.85,10.85,0,0,1,929,99.81a12.1,12.1,0,0,1-4.35.74A10.53,10.53,0,0,1,916.25,97a11.91,11.91,0,0,1-3-8,11.73,11.73,0,0,1,2.57-7.46,10.52,10.52,0,0,1,8.72-4.16,10.83,10.83,0,0,1,9,4.27,11.91,11.91,0,0,1,2.43,7.52H916.13a9,9,0,0,0,2.45,6.28,7.81,7.81,0,0,0,5.85,2.45,9.45,9.45,0,0,0,3.27-.59,8.68,8.68,0,0,0,2.7-1.55A13.24,13.24,0,0,0,932.81,92.68Zm0-5.92a9.43,9.43,0,0,0-1.65-3.62A7.87,7.87,0,0,0,928.29,81a8.8,8.8,0,0,0-3.74-.83A8.06,8.06,0,0,0,919,82.21a9.44,9.44,0,0,0-2.57,4.55Z" transform="translate(0.16 0.39)"/><path class="cls-2" d="M952.25,80.39l-1.82,1.88a6.52,6.52,0,0,0-4.44-2.2,3.36,3.36,0,0,0-2.36.91,2.81,2.81,0,0,0-1,2.12,3.14,3.14,0,0,0,.81,2,11.34,11.34,0,0,0,3.4,2.33,12.73,12.73,0,0,1,4.3,3.15,5.76,5.76,0,0,1,1.11,3.46,6.18,6.18,0,0,1-1.9,4.58,6.49,6.49,0,0,1-4.76,1.89,8.32,8.32,0,0,1-3.63-.83,8,8,0,0,1-2.87-2.29l1.78-2a6.2,6.2,0,0,0,4.6,2.45,4.16,4.16,0,0,0,2.9-1.1,3.34,3.34,0,0,0,1.19-2.56,3.3,3.3,0,0,0-.79-2.17,12.49,12.49,0,0,0-3.56-2.34,11.35,11.35,0,0,1-4.05-3,5.71,5.71,0,0,1-1.08-3.42,5.51,5.51,0,0,1,1.72-4.16,5.9,5.9,0,0,1,4.32-1.66Q949.17,77.42,952.25,80.39Z" transform="translate(0.16 0.39)"/><path class="cls-2" d="M960.38,95.53a2.39,2.39,0,0,1,1.76.73,2.52,2.52,0,0,1,0,3.55,2.5,2.5,0,0,1-3.52-3.55A2.37,2.37,0,0,1,960.38,95.53Z" transform="translate(0.16 0.39)"/><path class="cls-2" d="M108.64,44.25A36.11,36.11,0,0,0,72.52,80.37V140l12.91-14.38V80.27a22.88,22.88,0,0,1,43.65-9.58H108.14a3.21,3.21,0,1,0,.13,3.23h22a22.93,22.93,0,0,1,.9,6.35c0,.22,0,.44,0,.66h-33a3.23,3.23,0,1,0,0,3.23h32.66a22.37,22.37,0,0,1-1.79,5.75H115.7a3.23,3.23,0,1,0,0,3.23h11.53a22.86,22.86,0,0,1-18.92,10,22.6,22.6,0,0,1-7.88-1.4v13.79a36.12,36.12,0,1,0,8.21-71.29Z" transform="translate(0.16 0.39)"/><path class="cls-2" d="M275,102.19V79.37a9.33,9.33,0,0,0-2.17-6.58q-2.18-2.34-6.52-2.34t-6.51,2.34a9.33,9.33,0,0,0-2.17,6.58v22.82H250.2V79.37a19.12,19.12,0,0,1,1.07-6.58,13.87,13.87,0,0,1,3.1-5,13.35,13.35,0,0,1,5-3.15,22.16,22.16,0,0,1,13.79,0,13.51,13.51,0,0,1,5,3.15,13.71,13.71,0,0,1,3.09,5,18.88,18.88,0,0,1,1.08,6.58v22.82Z" transform="translate(0.16 0.39)"/><path class="cls-2" d="M317.91,87.88a15.94,15.94,0,0,1-1.13,6,13.66,13.66,0,0,1-3.19,4.77,14.6,14.6,0,0,1-4.89,3.13,17.63,17.63,0,0,1-12.42,0,14.61,14.61,0,0,1-4.87-3.13,13.93,13.93,0,0,1-3.19-4.77,16.77,16.77,0,0,1,0-12,13.88,13.88,0,0,1,3.19-4.78A14.77,14.77,0,0,1,296.28,74a17.63,17.63,0,0,1,12.42,0,14.76,14.76,0,0,1,4.89,3.13,13.61,13.61,0,0,1,3.19,4.78A15.89,15.89,0,0,1,317.91,87.88ZM302.5,96.51a8,8,0,0,0,6.11-2.4,9.61,9.61,0,0,0,0-12.45,8,8,0,0,0-6.11-2.41,8.12,8.12,0,0,0-6.14,2.41,9.54,9.54,0,0,0,0,12.45A8.15,8.15,0,0,0,302.5,96.51Z" transform="translate(0.16 0.39)"/><path class="cls-2" d="M352,87.65A17,17,0,0,1,350.84,94a14.19,14.19,0,0,1-3.13,4.84,13.45,13.45,0,0,1-4.84,3.07,17.27,17.27,0,0,1-6.19,1.07,16.61,16.61,0,0,1-6.23-1.13,14.61,14.61,0,0,1-4.87-3.13,13.77,13.77,0,0,1-3.18-4.77,15.94,15.94,0,0,1-1.13-6,16.24,16.24,0,0,1,1.24-6.63,14.19,14.19,0,0,1,3.25-4.69,13,13,0,0,1,4.54-2.81,14.8,14.8,0,0,1,5.1-.93,12.19,12.19,0,0,1,5.7,1.28A9.7,9.7,0,0,1,345,77.57h.11V61.06H352Zm-15.29,8.86a8,8,0,0,0,6.1-2.4,9.61,9.61,0,0,0,0-12.45,8,8,0,0,0-6.1-2.41,8.1,8.1,0,0,0-6.14,2.41,9.51,9.51,0,0,0,0,12.45A8.13,8.13,0,0,0,336.68,96.51Z" transform="translate(0.16 0.39)"/><path class="cls-2" d="M363.72,90.31v.12A8.08,8.08,0,0,0,366.53,95a8.36,8.36,0,0,0,5.36,1.68q4.64,0,6.78-2.73H386a13.55,13.55,0,0,1-5.33,6.55,15.67,15.67,0,0,1-8.8,2.43,16.65,16.65,0,0,1-6.23-1.13,14.67,14.67,0,0,1-4.86-3.13,13.93,13.93,0,0,1-3.19-4.77,16.63,16.63,0,0,1,0-12,13.88,13.88,0,0,1,3.19-4.78A14.83,14.83,0,0,1,365.66,74a17.66,17.66,0,0,1,12.43,0,13.88,13.88,0,0,1,8,7.91,15.89,15.89,0,0,1,1.13,6v2.43Zm8.17-11.23a8.42,8.42,0,0,0-5.12,1.5,7.8,7.8,0,0,0-2.87,4.12v.11h16V84.7A7.78,7.78,0,0,0,377,80.58,8.5,8.5,0,0,0,371.89,79.08Z" transform="translate(0.16 0.39)"/><path class="cls-2" d="M407.17,81.8a2.83,2.83,0,0,0-1.28-2.14,5.47,5.47,0,0,0-3.19-.81,5.33,5.33,0,0,0-3.44.92,2.92,2.92,0,0,0-1.13,2.38,1.8,1.8,0,0,0,1.22,1.79,12.7,12.7,0,0,0,3.06.81c1.24.2,2.56.39,4,.58a13.9,13.9,0,0,1,4,1.16A8,8,0,0,1,413.42,89a7.52,7.52,0,0,1,1.22,4.58,8.63,8.63,0,0,1-.84,3.76,8.46,8.46,0,0,1-2.41,3,11.68,11.68,0,0,1-3.79,1.94,16.73,16.73,0,0,1-5,.69,16.45,16.45,0,0,1-4.93-.69,12.09,12.09,0,0,1-3.76-1.91,8.85,8.85,0,0,1-2.43-2.9,8.52,8.52,0,0,1-.93-3.71h6.95a2.84,2.84,0,0,0,1.3,2.32,6.43,6.43,0,0,0,3.68.87,6.55,6.55,0,0,0,4-.93,2.94,2.94,0,0,0,1.18-2.43,1.77,1.77,0,0,0-1.21-1.77A13,13,0,0,0,403.4,91l-4-.55a14,14,0,0,1-4-1.13,7.68,7.68,0,0,1-3.08-2.52,7.88,7.88,0,0,1-1.21-4.69,8.53,8.53,0,0,1,3.1-6.69,10.56,10.56,0,0,1,3.59-1.94,14.86,14.86,0,0,1,4.72-.7,14.58,14.58,0,0,1,4.69.7,10.91,10.91,0,0,1,3.56,1.91,8.63,8.63,0,0,1,2.29,2.84A8.4,8.4,0,0,1,414,81.8Z" transform="translate(0.16 0.39)"/><path class="cls-2" d="M183.05,87.31a15.88,15.88,0,0,1-1.12,6,13.88,13.88,0,0,1-3.19,4.78,14.7,14.7,0,0,1-4.9,3.13,17.63,17.63,0,0,1-12.42,0,15,15,0,0,1-4.87-3.13,13.72,13.72,0,0,1-3.18-4.78,16.6,16.6,0,0,1,0-12,13.72,13.72,0,0,1,3.18-4.78,15,15,0,0,1,4.87-3.13,17.63,17.63,0,0,1,12.42,0,14.7,14.7,0,0,1,4.9,3.13,13.88,13.88,0,0,1,3.19,4.78A15.88,15.88,0,0,1,183.05,87.31Zm-15.4,8.63a8.05,8.05,0,0,0,6.11-2.4,9.62,9.62,0,0,0,0-12.46,8.05,8.05,0,0,0-6.11-2.4,8.13,8.13,0,0,0-6.14,2.4,9.52,9.52,0,0,0,0,12.46A8.13,8.13,0,0,0,167.65,95.94Z" transform="translate(0.16 0.39)"/><path class="cls-2" d="M188.56,101.62V60.49h6.89v41.13Z" transform="translate(0.16 0.39)"/><path class="cls-2" d="M206.51,69.59A4.54,4.54,0,0,1,201.94,65a4.48,4.48,0,0,1,1.33-3.3,4.65,4.65,0,0,1,6.51,0,4.54,4.54,0,0,1,1.31,3.3,4.47,4.47,0,0,1-1.31,3.25A4.42,4.42,0,0,1,206.51,69.59Zm-3.42,32V73H210v28.62Z" transform="translate(0.16 0.39)"/><path class="cls-2" d="M232.11,81.23a2.82,2.82,0,0,0-1.27-2.14,5.52,5.52,0,0,0-3.19-.82,5.38,5.38,0,0,0-3.45.93,2.94,2.94,0,0,0-1.12,2.38,1.81,1.81,0,0,0,1.21,1.79,12.79,12.79,0,0,0,3.07.81c1.24.2,2.56.39,4,.58a13.59,13.59,0,0,1,4,1.16,8.1,8.1,0,0,1,3.07,2.49A7.52,7.52,0,0,1,239.58,93a8.45,8.45,0,0,1-3.24,6.74,11.49,11.49,0,0,1-3.79,1.94,16.42,16.42,0,0,1-5,.7,16.11,16.11,0,0,1-4.92-.7,11.77,11.77,0,0,1-3.76-1.91,8.63,8.63,0,0,1-2.44-2.89,8.37,8.37,0,0,1-.92-3.71h6.95a2.82,2.82,0,0,0,1.3,2.32,6.41,6.41,0,0,0,3.68.87,6.51,6.51,0,0,0,4-.93A3,3,0,0,0,232.63,93a1.77,1.77,0,0,0-1.22-1.77,12.78,12.78,0,0,0-3.06-.75l-4-.55a14.53,14.53,0,0,1-4-1.13,7.58,7.58,0,0,1-3.07-2.52,7.9,7.9,0,0,1-1.22-4.69,8.61,8.61,0,0,1,.82-3.74,8.72,8.72,0,0,1,2.28-3,10.61,10.61,0,0,1,3.6-1.94,14.79,14.79,0,0,1,4.71-.7,14.64,14.64,0,0,1,4.7.7,11,11,0,0,1,3.56,1.91,8.76,8.76,0,0,1,2.29,2.84,8.21,8.21,0,0,1,.86,3.53Z" transform="translate(0.16 0.39)"/></svg>