<svg id="Capa_1" data-name="Capa 1" xmlns="http://www.w3.org/2000/svg" viewBox="0 0 1025.7 1023.72"><defs><style>.cls-1{fill:#4772de;}.cls-2{fill:#fff;}</style></defs><title>PolisNodes2-1</title><path class="cls-1" d="M1025.25,919.35A104.67,104.67,0,0,1,920.58,1024H104.21A104.67,104.67,0,0,1-.46,919.35V104.91A104.65,104.65,0,0,1,104.21.28H920.58a104.65,104.65,0,0,1,104.67,104.63Z" transform="translate(0.46 -0.28)"/><path class="cls-2" d="M512.39,168C371.92,168,258,281.88,258,422.38V842l91-101.26v-319a161.11,161.11,0,0,1,307.41-67.47H508.91a22.7,22.7,0,1,0,.87,22.68H664.85a161.16,161.16,0,0,1,6.35,44.79c0,1.57-.05,3.13-.11,4.67H438.82a22.7,22.7,0,1,0,0,22.67h230a159.66,159.66,0,0,1-12.65,40.55H562.14a22.69,22.69,0,1,0,0,22.7h81.2A161.21,161.21,0,0,1,454.55,573v97.1a254.58,254.58,0,0,0,57.84,6.64c140.5,0,254.38-113.89,254.38-254.39S652.89,168,512.39,168Z" transform="translate(0.46 -0.28)"/></svg>