<svg id="Capa_1" data-name="Capa 1" xmlns="http://www.w3.org/2000/svg" viewBox="0 0 1023.2 1355.6"><defs><style>.cls-1{fill:#4772de;}</style></defs><title>PolisNodes1-2</title><path class="cls-1" d="M511.83-.1C229.26-.1.19,228.93.19,511.51v844l182.94-203.67V510.25c0-178.95,145.09-324,324-324,130.51,0,242.92,77.18,294.28,188.34H504.78a45.56,45.56,0,1,0,1.77,45.64H818.43a322.71,322.71,0,0,1,12.78,90.07c0,3.11-.14,6.22-.25,9.31H363.81a45.68,45.68,0,1,0,0,45.71H826.47a323.83,323.83,0,0,1-25.39,81.52H611.81a45.63,45.63,0,1,0,0,45.64H775.17c-58.36,85.62-156.61,141.85-268,141.85a323.35,323.35,0,0,1-111.67-19.79V1009.8a510.21,510.21,0,0,0,116.36,13.31c282.54,0,511.56-229,511.56-511.6S794.37-.1,511.83-.1Z" transform="translate(-0.19 0.1)"/></svg>