<svg id="Capa_1" data-name="Capa 1" xmlns="http://www.w3.org/2000/svg" viewBox="0 0 1024.19 286.49"><defs><style>.cls-1{fill:#4772de;}</style></defs><title>PolisNodes2-3</title><path class="cls-1" d="M107.94,3.11A108.13,108.13,0,0,0-.19,111.24V289.6l38.67-43V111A68.48,68.48,0,0,1,169.15,82.29h-62.7a9.64,9.64,0,1,0,.37,9.63h65.93a68.83,68.83,0,0,1,2.7,19c0,.66,0,1.32,0,2H76.66a9.65,9.65,0,1,0,0,9.64h97.79a67.78,67.78,0,0,1-5.38,17.23h-40a9.66,9.66,0,1,0,0,9.65H163.6a68.62,68.62,0,0,1-80.26,25.81v41.27A108.14,108.14,0,1,0,107.94,3.11Z" transform="translate(0.19 -3.11)"/><path class="cls-1" d="M606,176.56V108.25q0-12.68-6.5-19.69t-19.51-7q-13,0-19.5,7t-6.51,19.69v68.31H531.74V108.25a56.91,56.91,0,0,1,3.2-19.69,41,41,0,0,1,9.29-14.91,40,40,0,0,1,15.08-9.44,66.33,66.33,0,0,1,41.26,0,39.87,39.87,0,0,1,15.08,9.44,41.16,41.16,0,0,1,9.29,14.91,57.15,57.15,0,0,1,3.2,19.69v68.31Z" transform="translate(0.19 -3.11)"/><path class="cls-1" d="M734.42,133.73a47.53,47.53,0,0,1-3.37,18,41.35,41.35,0,0,1-9.54,14.31,44,44,0,0,1-14.65,9.36,52.69,52.69,0,0,1-37.19,0,44.36,44.36,0,0,1-14.57-9.36,41.19,41.19,0,0,1-9.53-14.31,49.67,49.67,0,0,1,0-36.07,41.34,41.34,0,0,1,9.53-14.3A44.69,44.69,0,0,1,669.67,92a52.84,52.84,0,0,1,37.19,0,44.32,44.32,0,0,1,14.65,9.36,41.5,41.5,0,0,1,9.54,14.3A47.55,47.55,0,0,1,734.42,133.73Zm-46.11,25.84q11.43,0,18.3-7.2t6.85-18.64q0-11.44-6.85-18.64t-18.3-7.2q-11.46,0-18.39,7.2T663,133.73q0,11.45,6.92,18.64T688.31,159.57Z" transform="translate(0.19 -3.11)"/><path class="cls-1" d="M836.39,133a50.56,50.56,0,0,1-3.38,18.9,42.67,42.67,0,0,1-9.36,14.48,40.58,40.58,0,0,1-14.48,9.19,52.33,52.33,0,0,1-18.55,3.21A49.46,49.46,0,0,1,772,175.43a44.22,44.22,0,0,1-14.56-9.36,41.35,41.35,0,0,1-9.54-14.31,47.54,47.54,0,0,1-3.38-18,48.59,48.59,0,0,1,3.73-19.85,42.86,42.86,0,0,1,9.7-14,39.25,39.25,0,0,1,13.62-8.4,44.39,44.39,0,0,1,15.26-2.78,36.84,36.84,0,0,1,17.08,3.81,29.41,29.41,0,0,1,11.54,10.41h.34V53.45h20.63Zm-45.77,26.53c7.63,0,13.71-2.4,18.29-7.2s6.85-11,6.85-18.64-2.3-13.85-6.85-18.64-10.66-7.2-18.29-7.2-13.77,2.41-18.38,7.2-6.94,11-6.94,18.64,2.3,13.85,6.94,18.64S783,159.57,790.62,159.57Z" transform="translate(0.19 -3.11)"/><path class="cls-1" d="M871.58,141v.34a24.06,24.06,0,0,0,8.41,13.7c4.23,3.34,9.56,5,16,5q13.86,0,20.28-8.15h22a40.87,40.87,0,0,1-16,19.6q-11.08,7.28-26.34,7.28a49.55,49.55,0,0,1-18.66-3.39,44.42,44.42,0,0,1-14.56-9.36,41.33,41.33,0,0,1-9.53-14.31,49.81,49.81,0,0,1,0-36.07,41.48,41.48,0,0,1,9.53-14.3A44.75,44.75,0,0,1,877.38,92a52.89,52.89,0,0,1,37.21,0,41.5,41.5,0,0,1,23.84,23.66,47.55,47.55,0,0,1,3.38,18V141ZM896,107.37q-9.21,0-15.35,4.51a23.36,23.36,0,0,0-8.59,12.31v.34H920v-.34a23.19,23.19,0,0,0-8.65-12.31A25.43,25.43,0,0,0,896,107.37Z" transform="translate(0.19 -3.11)"/><path class="cls-1" d="M1001.62,115.53a8.43,8.43,0,0,0-3.8-6.42c-2.32-1.61-5.49-2.43-9.54-2.43q-6.94,0-10.31,2.78a8.77,8.77,0,0,0-3.39,7.1,5.47,5.47,0,0,0,3.64,5.38,39.62,39.62,0,0,0,9.19,2.43q5.55.87,11.89,1.73a40.89,40.89,0,0,1,11.87,3.47,24.19,24.19,0,0,1,9.19,7.45q3.63,4.86,3.64,13.7a25.39,25.39,0,0,1-9.71,20.21,34.28,34.28,0,0,1-11.36,5.8,49.57,49.57,0,0,1-14.83,2.09,48.67,48.67,0,0,1-14.73-2.09A35.36,35.36,0,0,1,962.1,171a26,26,0,0,1-7.28-8.66A25.32,25.32,0,0,1,952,151.24h20.81a8.51,8.51,0,0,0,3.9,6.94c2.48,1.73,6.14,2.61,11,2.61,5.55,0,9.5-.93,11.88-2.78a8.82,8.82,0,0,0,3.56-7.29,5.3,5.3,0,0,0-3.65-5.28,39,39,0,0,0-9.19-2.26l-11.88-1.65a42.59,42.59,0,0,1-11.88-3.38,22.7,22.7,0,0,1-9.19-7.54c-2.42-3.36-3.64-8-3.64-14.05a25.7,25.7,0,0,1,2.43-11.18A26.13,26.13,0,0,1,963,96.53a32,32,0,0,1,10.76-5.8,45,45,0,0,1,14.13-2.08A44.23,44.23,0,0,1,1002,90.73a33.12,33.12,0,0,1,10.66,5.72,25.91,25.91,0,0,1,6.85,8.5,25.06,25.06,0,0,1,2.6,10.58Z" transform="translate(0.19 -3.11)"/><path class="cls-1" d="M330.71,132a47.55,47.55,0,0,1-3.38,18,41.55,41.55,0,0,1-9.54,14.3,44.19,44.19,0,0,1-14.65,9.37,53,53,0,0,1-37.2,0,44.61,44.61,0,0,1-14.56-9.37,41.69,41.69,0,0,1-9.54-14.3,49.81,49.81,0,0,1,0-36.07,41.59,41.59,0,0,1,9.54-14.3,44.26,44.26,0,0,1,14.56-9.36,52.72,52.72,0,0,1,37.2,0,43.85,43.85,0,0,1,14.65,9.36,41.45,41.45,0,0,1,9.54,14.3A47.54,47.54,0,0,1,330.71,132Zm-46.12,25.84q11.45,0,18.29-7.2T309.73,132q0-11.45-6.85-18.64t-18.29-7.2q-11.44,0-18.39,7.2T259.28,132q0,11.44,6.92,18.64T284.59,157.86Z" transform="translate(0.19 -3.11)"/><path class="cls-1" d="M347.18,174.85V51.74h20.64V174.85Z" transform="translate(0.19 -3.11)"/><path class="cls-1" d="M400.94,79a13.61,13.61,0,0,1-13.7-13.71,13.42,13.42,0,0,1,4-9.88,13.93,13.93,0,0,1,19.52,0,13.62,13.62,0,0,1,3.89,9.88A13.42,13.42,0,0,1,410.74,75,13.18,13.18,0,0,1,400.94,79ZM390.7,174.85V89.19h20.64v85.66Z" transform="translate(0.19 -3.11)"/><path class="cls-1" d="M477.58,113.82a8.44,8.44,0,0,0-3.82-6.42c-2.31-1.61-5.49-2.43-9.53-2.43q-6.94,0-10.33,2.78a8.82,8.82,0,0,0-3.37,7.11,5.45,5.45,0,0,0,3.64,5.37,39,39,0,0,0,9.19,2.44c3.69.57,7.66,1.15,11.87,1.72a40.93,40.93,0,0,1,11.89,3.47,24,24,0,0,1,9.18,7.46q3.65,4.85,3.65,13.69a25.36,25.36,0,0,1-9.72,20.21,34.32,34.32,0,0,1-11.35,5.8,49.67,49.67,0,0,1-14.83,2.08A48.63,48.63,0,0,1,449.32,175a35.77,35.77,0,0,1-11.27-5.72,26,26,0,0,1-7.3-8.66A25.73,25.73,0,0,1,428,149.53H448.8a8.5,8.5,0,0,0,3.9,6.94c2.49,1.73,6.15,2.61,11,2.61q8.32,0,11.88-2.78a8.84,8.84,0,0,0,3.56-7.29,5.31,5.31,0,0,0-3.65-5.28,38.71,38.71,0,0,0-9.18-2.25c-3.7-.53-7.65-1.07-11.88-1.66a42.52,42.52,0,0,1-11.87-3.38,22.66,22.66,0,0,1-9.2-7.54q-3.64-5-3.65-14a25.61,25.61,0,0,1,2.44-11.19A25.9,25.9,0,0,1,439,94.83,31.92,31.92,0,0,1,449.75,89a45,45,0,0,1,14.13-2.08,44.17,44.17,0,0,1,14,2.08,32.91,32.91,0,0,1,10.66,5.72,26.12,26.12,0,0,1,6.85,8.5A25,25,0,0,1,498,113.82Z" transform="translate(0.19 -3.11)"/></svg>