<svg id="Capa_1" data-name="Capa 1" xmlns="http://www.w3.org/2000/svg" viewBox="0 0 1024.11 286.48"><defs><style>.cls-1{fill:#4772de;}.cls-2{fill:#aeaeae;}</style></defs><title>PolisNodes1-1</title><path class="cls-1" d="M108-.46A108.12,108.12,0,0,0-.11,107.66V286l38.66-43V107.39A68.48,68.48,0,0,1,169.22,78.71H106.53a9.64,9.64,0,1,0,.37,9.64h65.91a68.33,68.33,0,0,1,2.7,19c0,.66,0,1.31,0,2H76.74a9.65,9.65,0,1,0,0,9.66h97.77a68.93,68.93,0,0,1-5.36,17.23h-40a9.64,9.64,0,1,0,0,9.64h34.52a68.51,68.51,0,0,1-80.24,25.79V213A108.12,108.12,0,1,0,108-.46Z" transform="translate(0.11 0.46)"/><path class="cls-1" d="M606,173V104.67Q606,92,599.48,85T580,78q-13,0-19.51,7T554,104.67V173H531.78V104.67A57.13,57.13,0,0,1,535,85a41.09,41.09,0,0,1,9.28-14.91,40.18,40.18,0,0,1,15.09-9.45,66.33,66.33,0,0,1,41.26,0,40.21,40.21,0,0,1,15.08,9.45A41.09,41.09,0,0,1,625,85a56.89,56.89,0,0,1,3.21,19.68V173Z" transform="translate(0.11 0.46)"/><path class="cls-1" d="M734.46,130.16a47.35,47.35,0,0,1-3.39,18,41.42,41.42,0,0,1-9.53,14.31,44.42,44.42,0,0,1-14.65,9.36,52.84,52.84,0,0,1-37.19,0,44.69,44.69,0,0,1-14.57-9.36,41.42,41.42,0,0,1-9.53-14.31,49.78,49.78,0,0,1,0-36.06,41.42,41.42,0,0,1,9.53-14.31,44.69,44.69,0,0,1,14.57-9.36,52.84,52.84,0,0,1,37.19,0,44.42,44.42,0,0,1,14.65,9.36,41.42,41.42,0,0,1,9.53,14.31A47.35,47.35,0,0,1,734.46,130.16ZM688.34,156q11.43,0,18.29-7.19t6.85-18.64q0-11.44-6.85-18.64t-18.29-7.2q-11.45,0-18.38,7.2T663,130.16q0,11.44,6.94,18.64T688.34,156Z" transform="translate(0.11 0.46)"/><path class="cls-1" d="M836.4,129.46A50.65,50.65,0,0,1,833,148.37a42.23,42.23,0,0,1-9.36,14.47A40.27,40.27,0,0,1,809.18,172a52.07,52.07,0,0,1-18.55,3.21A49.64,49.64,0,0,1,772,171.86a44.54,44.54,0,0,1-14.56-9.36,41.59,41.59,0,0,1-9.54-14.31,47.54,47.54,0,0,1-3.38-18,48.59,48.59,0,0,1,3.73-19.85,42.93,42.93,0,0,1,9.71-14,39.11,39.11,0,0,1,13.61-8.4,44.35,44.35,0,0,1,15.26-2.78,36.64,36.64,0,0,1,17.07,3.81A29.2,29.2,0,0,1,815.43,99.3h.34V49.88H836.4ZM790.63,156q11.45,0,18.29-7.19t6.85-18.64q0-11.44-6.85-18.64t-18.29-7.2q-11.45,0-18.38,7.2t-6.93,18.64q0,11.44,6.93,18.64T790.63,156Z" transform="translate(0.11 0.46)"/><path class="cls-1" d="M871.6,137.44v.35A24,24,0,0,0,880,151.48q6.32,5,16,5,13.88,0,20.29-8.14h22a40.93,40.93,0,0,1-16,19.59q-11.1,7.28-26.36,7.28a49.55,49.55,0,0,1-18.63-3.38,44.58,44.58,0,0,1-14.57-9.36,41.42,41.42,0,0,1-9.53-14.31,49.64,49.64,0,0,1,0-36.06,41.42,41.42,0,0,1,9.53-14.31,44.58,44.58,0,0,1,14.57-9.36,52.84,52.84,0,0,1,37.19,0,41.48,41.48,0,0,1,23.84,23.67,47.54,47.54,0,0,1,3.38,18v7.28ZM896,103.8q-9.18,0-15.34,4.51a23.44,23.44,0,0,0-8.58,12.31V121H920v-.35a23.26,23.26,0,0,0-8.67-12.31A25.41,25.41,0,0,0,896,103.8Z" transform="translate(0.11 0.46)"/><path class="cls-1" d="M1001.63,112a8.44,8.44,0,0,0-3.81-6.41q-3.47-2.43-9.54-2.43-6.93,0-10.31,2.77a8.79,8.79,0,0,0-3.39,7.11,5.46,5.46,0,0,0,3.65,5.38,38.86,38.86,0,0,0,9.19,2.43q5.54.87,11.87,1.73a40.78,40.78,0,0,1,11.88,3.47,24.11,24.11,0,0,1,9.19,7.45q3.64,4.86,3.64,13.7a25.27,25.27,0,0,1-9.71,20.2,34.67,34.67,0,0,1-11.36,5.81,49.88,49.88,0,0,1-14.82,2.08,49.06,49.06,0,0,1-14.74-2.08,35.69,35.69,0,0,1-11.27-5.73,26,26,0,0,1-7.28-8.66,25.41,25.41,0,0,1-2.77-11.1h20.8a8.52,8.52,0,0,0,3.9,6.93q3.74,2.61,11,2.61,8.32,0,11.88-2.78a8.79,8.79,0,0,0,3.56-7.28,5.31,5.31,0,0,0-3.65-5.29,39.67,39.67,0,0,0-9.19-2.25L978.49,138a42.59,42.59,0,0,1-11.88-3.38,22.78,22.78,0,0,1-9.19-7.54q-3.64-5-3.64-14.05a25.73,25.73,0,0,1,2.43-11.18A26,26,0,0,1,963.06,93a31.83,31.83,0,0,1,10.75-5.81,44.92,44.92,0,0,1,14.13-2.08,44.17,44.17,0,0,1,14,2.08,33,33,0,0,1,10.66,5.72,26,26,0,0,1,6.85,8.5,25.05,25.05,0,0,1,2.6,10.57Z" transform="translate(0.11 0.46)"/><path class="cls-2" d="M330.78,128.44a47.55,47.55,0,0,1-3.38,18,41.55,41.55,0,0,1-9.54,14.3,44.21,44.21,0,0,1-14.65,9.36,52.84,52.84,0,0,1-37.19,0,44.36,44.36,0,0,1-14.57-9.36,41.38,41.38,0,0,1-9.53-14.3,49.81,49.81,0,0,1,0-36.07,41.38,41.38,0,0,1,9.53-14.3A44.36,44.36,0,0,1,266,86.75a52.84,52.84,0,0,1,37.19,0,44.21,44.21,0,0,1,14.65,9.36,41.55,41.55,0,0,1,9.54,14.3A47.54,47.54,0,0,1,330.78,128.44Zm-46.12,25.84q11.44,0,18.29-7.2t6.85-18.64q0-11.43-6.85-18.63t-18.29-7.2q-11.45,0-18.38,7.2t-6.94,18.63q0,11.44,6.94,18.64T284.66,154.28Z" transform="translate(0.11 0.46)"/><path class="cls-2" d="M347.25,171.27V48.17h20.63v123.1Z" transform="translate(0.11 0.46)"/><path class="cls-2" d="M401,75.39a13.61,13.61,0,0,1-13.69-13.7,13.42,13.42,0,0,1,4-9.88,13.92,13.92,0,0,1,19.51,0,13.59,13.59,0,0,1,3.9,9.88,13.36,13.36,0,0,1-3.9,9.71A13.14,13.14,0,0,1,401,75.39Zm-10.23,95.88V85.62H411.4v85.65Z" transform="translate(0.11 0.46)"/><path class="cls-2" d="M477.63,110.24a8.47,8.47,0,0,0-3.82-6.42q-3.46-2.41-9.53-2.42c-4.63,0-8.06.92-10.32,2.77a8.8,8.8,0,0,0-3.38,7.11,5.44,5.44,0,0,0,3.64,5.37,39,39,0,0,0,9.19,2.43q5.55.87,11.88,1.74a41.16,41.16,0,0,1,11.88,3.46,24.1,24.1,0,0,1,9.18,7.46q3.64,4.86,3.64,13.7a25.23,25.23,0,0,1-9.71,20.19,34.14,34.14,0,0,1-11.35,5.81,49.58,49.58,0,0,1-14.83,2.08,48.67,48.67,0,0,1-14.73-2.08,35.36,35.36,0,0,1-11.27-5.72,26.06,26.06,0,0,1-7.29-8.67A25.37,25.37,0,0,1,428,146h20.81a8.47,8.47,0,0,0,3.9,6.94q3.72,2.61,11,2.6,8.33,0,11.87-2.77a8.8,8.8,0,0,0,3.56-7.28,5.31,5.31,0,0,0-3.64-5.29,39.17,39.17,0,0,0-9.19-2.25c-3.7-.53-7.66-1.07-11.88-1.65a42.76,42.76,0,0,1-11.87-3.38,22.82,22.82,0,0,1-9.2-7.54q-3.63-5-3.63-14a25.69,25.69,0,0,1,2.42-11.18,26.15,26.15,0,0,1,6.85-8.85,32.1,32.1,0,0,1,10.75-5.81,45.31,45.31,0,0,1,14.13-2.07,44.46,44.46,0,0,1,14,2.07,33,33,0,0,1,10.67,5.73,26.11,26.11,0,0,1,6.85,8.49,25.25,25.25,0,0,1,2.6,10.58Z" transform="translate(0.11 0.46)"/></svg>