<svg id="Capa_1" data-name="Capa 1" xmlns="http://www.w3.org/2000/svg" viewBox="0 0 1017.67 109.39"><defs><style>.cls-1{fill:#c4c4c3;}.cls-2{fill:#4772de;}.cls-3{fill:#aeaeae;}</style></defs><title>PolisNodes1-3</title><path class="cls-1" d="M418,32.32h19.48v3.32H421.36V46.29H437.3v3.33H421.36V63H437.3V66.3H418Z" transform="translate(-3.33 -2.6)"/><path class="cls-1" d="M442.75,41.17H446v4.34A12.71,12.71,0,0,1,449.45,42a9.83,9.83,0,0,1,5.16-1.48,8.53,8.53,0,0,1,3.47.72,7.43,7.43,0,0,1,2.69,1.9,10.28,10.28,0,0,1,1.8,3.41,12,12,0,0,1,4-4.49,9.52,9.52,0,0,1,5.22-1.54,8.13,8.13,0,0,1,4.59,1.32,7.77,7.77,0,0,1,3,3.67,19.5,19.5,0,0,1,1,7.07V66.3H477V52.58a17.71,17.71,0,0,0-.58-5.56,4.93,4.93,0,0,0-2-2.43,5.81,5.81,0,0,0-3.32-.93,7.21,7.21,0,0,0-4.3,1.39A7.92,7.92,0,0,0,464,48.74q-.9,2.32-.9,7.72V66.3H459.9V53.43a21.84,21.84,0,0,0-.57-6.17,5.22,5.22,0,0,0-2-2.62,5.73,5.73,0,0,0-3.35-1A7.23,7.23,0,0,0,449.81,45a8.08,8.08,0,0,0-2.89,3.64,19.71,19.71,0,0,0-.94,7V66.3h-3.23Z" transform="translate(-3.33 -2.6)"/><path class="cls-1" d="M487.21,41.17h3.23v4.62a12.9,12.9,0,0,1,4.41-3.95,11.7,11.7,0,0,1,5.56-1.32,12.4,12.4,0,0,1,9.17,3.86,12.74,12.74,0,0,1,3.81,9.29,13,13,0,0,1-3.78,9.41A12.7,12.7,0,0,1,495,65.7,13.79,13.79,0,0,1,490.44,62V75.5h-3.23Zm12.94,2.47a9.48,9.48,0,0,0-7.07,2.93,10,10,0,0,0-2.87,7.29A10.38,10.38,0,0,0,491.49,59a9.26,9.26,0,0,0,3.67,3.62,10.13,10.13,0,0,0,5,1.34,9.5,9.5,0,0,0,4.9-1.35,9.87,9.87,0,0,0,3.65-3.77,10.23,10.23,0,0,0,0-10.16,9.76,9.76,0,0,0-8.61-5Z" transform="translate(-3.33 -2.6)"/><path class="cls-1" d="M531.34,40.52a12.47,12.47,0,0,1,9.63,4.2,13.5,13.5,0,0,1-.2,18.29,13.29,13.29,0,0,1-18.89,0,13.45,13.45,0,0,1-.19-18.26A12.43,12.43,0,0,1,531.34,40.52Zm0,3.16a9.35,9.35,0,0,0-6.93,3,9.94,9.94,0,0,0-2.9,7.21A10.25,10.25,0,0,0,522.82,59a9.4,9.4,0,0,0,3.57,3.64,10.17,10.17,0,0,0,9.88,0A9.4,9.4,0,0,0,539.84,59a10.25,10.25,0,0,0,1.32-5.09,10,10,0,0,0-2.91-7.21A9.37,9.37,0,0,0,531.33,43.68Z" transform="translate(-3.33 -2.6)"/><path class="cls-1" d="M547,41.17h3.33l7.7,18.25,8-18.25h.59l8.07,18.25,7.86-18.25H586L575,66.3h-.6l-8-18-8,18h-.6Z" transform="translate(-3.33 -2.6)"/><path class="cls-1" d="M610.91,58l2.73,1.43a14.66,14.66,0,0,1-3.1,4.26,12.25,12.25,0,0,1-3.95,2.46,13.85,13.85,0,0,1-5,.84q-6.17,0-9.62-4a13.75,13.75,0,0,1-.54-17.64,12,12,0,0,1,10-4.76,12.4,12.4,0,0,1,10.27,4.87,13.61,13.61,0,0,1,2.77,8.6H591.85a10.25,10.25,0,0,0,2.8,7.18,8.94,8.94,0,0,0,6.69,2.8,10.6,10.6,0,0,0,3.73-.67,9.69,9.69,0,0,0,3.09-1.77A14.79,14.79,0,0,0,610.91,58Zm0-6.77A10.77,10.77,0,0,0,609,47.06a9,9,0,0,0-3.27-2.5,10.08,10.08,0,0,0-4.28-1A9.23,9.23,0,0,0,595.12,46a10.73,10.73,0,0,0-2.94,5.2Z" transform="translate(-3.33 -2.6)"/><path class="cls-1" d="M619.28,41.17h3.31v3.67a11.59,11.59,0,0,1,3.11-3.25,6.23,6.23,0,0,1,3.42-1.07,5.9,5.9,0,0,1,2.87.85L630.3,44.1a4.57,4.57,0,0,0-1.71-.44A4.65,4.65,0,0,0,625.47,45a8.4,8.4,0,0,0-2.28,4.12c-.41,1.44-.6,4.33-.6,8.69v8.5h-3.31Z" transform="translate(-3.33 -2.6)"/><path class="cls-1" d="M635.86,30.81a2.68,2.68,0,0,1,2.67,2.68,2.65,2.65,0,1,1-2.67-2.68Zm-1.61,10.36h3.24V66.3h-3.24Z" transform="translate(-3.33 -2.6)"/><path class="cls-1" d="M644.21,41.17h3.24v4.5a13.59,13.59,0,0,1,4.29-3.87,10.64,10.64,0,0,1,5.13-1.28,9,9,0,0,1,5,1.43,8.62,8.62,0,0,1,3.22,3.86,20.51,20.51,0,0,1,1,7.56V66.3H662.9v-12a29.59,29.59,0,0,0-.36-5.8,6.35,6.35,0,0,0-2.15-3.75,6.53,6.53,0,0,0-4.16-1.26A8,8,0,0,0,651,45.44a9.06,9.06,0,0,0-3.06,4.81,33.23,33.23,0,0,0-.46,6.84V66.3h-3.24Z" transform="translate(-3.33 -2.6)"/><path class="cls-1" d="M694.74,41.17H698v20a23.49,23.49,0,0,1-.93,7.74,10,10,0,0,1-4.41,5.34,14.55,14.55,0,0,1-7.55,1.87,17.34,17.34,0,0,1-5.82-.92,11.78,11.78,0,0,1-4.19-2.45,14.75,14.75,0,0,1-3-4.51h3.51a9.4,9.4,0,0,0,3.7,3.7,11.92,11.92,0,0,0,5.62,1.2,11.52,11.52,0,0,0,5.59-1.24,7.56,7.56,0,0,0,3.25-3.09,13.81,13.81,0,0,0,1-6V61.52a12.13,12.13,0,0,1-4.46,3.55,13.28,13.28,0,0,1-12.12-.49A12.15,12.15,0,0,1,673.44,60a12.65,12.65,0,0,1-1.66-6.4,13.06,13.06,0,0,1,13-13A12,12,0,0,1,690,41.69a14.51,14.51,0,0,1,4.7,3.84Zm-9.54,2.47A10.16,10.16,0,0,0,680.1,45a9.53,9.53,0,0,0-3.7,3.67,10,10,0,0,0-1.34,5.07,9.13,9.13,0,0,0,2.77,6.84A9.87,9.87,0,0,0,685,63.26a9.76,9.76,0,0,0,7.17-2.69,9.43,9.43,0,0,0,2.71-7,10.18,10.18,0,0,0-1.24-5.07,9.1,9.1,0,0,0-3.54-3.53A9.83,9.83,0,0,0,685.2,43.64Z" transform="translate(-3.33 -2.6)"/><path class="cls-1" d="M717,66.3l4.87-34h.55l13.82,27.89,13.68-27.89h.55l4.89,34H752L748.66,42l-12,24.3h-.86L723.61,41.81,720.28,66.3Z" transform="translate(-3.33 -2.6)"/><path class="cls-1" d="M786.54,41.17V66.3h-3.18V62a13.85,13.85,0,0,1-4.57,3.72,12.74,12.74,0,0,1-14.65-2.62,13,13,0,0,1-3.77-9.41,12.74,12.74,0,0,1,3.81-9.29,12.4,12.4,0,0,1,9.17-3.86,11.84,11.84,0,0,1,5.6,1.32,12.72,12.72,0,0,1,4.41,3.95V41.17Zm-12.92,2.47a9.76,9.76,0,0,0-8.62,5,10.11,10.11,0,0,0-1.36,5.08A10.23,10.23,0,0,0,765,58.85a9.87,9.87,0,0,0,3.65,3.77A9.6,9.6,0,0,0,773.59,64a10.11,10.11,0,0,0,5-1.34A9.3,9.3,0,0,0,782.28,59a10.28,10.28,0,0,0,1.28-5.15,10,10,0,0,0-2.87-7.29A9.49,9.49,0,0,0,773.62,43.64Z" transform="translate(-3.33 -2.6)"/><path class="cls-1" d="M806.46,43.91l-2.08,2.15q-2.6-2.52-5.07-2.52a3.82,3.82,0,0,0-2.7,1.05A3.19,3.19,0,0,0,795.49,47a3.58,3.58,0,0,0,.92,2.34A13.16,13.16,0,0,0,800.3,52a14.43,14.43,0,0,1,4.91,3.61,6.56,6.56,0,0,1,1.27,4,7.08,7.08,0,0,1-2.17,5.24A7.45,7.45,0,0,1,798.87,67a9.35,9.35,0,0,1-4.15-1,9.05,9.05,0,0,1-3.28-2.61l2-2.31q2.49,2.81,5.26,2.8A4.73,4.73,0,0,0,802,62.63a3.86,3.86,0,0,0,1.37-2.93,3.79,3.79,0,0,0-.9-2.48,14.62,14.62,0,0,0-4.08-2.68,13.05,13.05,0,0,1-4.63-3.46,6.52,6.52,0,0,1-1.23-3.91,6.38,6.38,0,0,1,2-4.76,6.81,6.81,0,0,1,4.94-1.89C801.79,40.52,804.11,41.65,806.46,43.91Z" transform="translate(-3.33 -2.6)"/><path class="cls-1" d="M815,31.83h3.24v9.34h5.12V44h-5.12V66.3H815V44H810.6V41.17H815Z" transform="translate(-3.33 -2.6)"/><path class="cls-1" d="M849.39,58l2.73,1.43a15,15,0,0,1-3.1,4.26,12.19,12.19,0,0,1-4,2.46,13.81,13.81,0,0,1-5,.84q-6.15,0-9.62-4A13.63,13.63,0,0,1,827,53.8a13.42,13.42,0,0,1,2.94-8.52,12,12,0,0,1,10-4.76,12.41,12.41,0,0,1,10.27,4.87A13.67,13.67,0,0,1,853,54H830.33a10.21,10.21,0,0,0,2.8,7.18,8.91,8.91,0,0,0,6.69,2.8,10.6,10.6,0,0,0,3.73-.67,9.69,9.69,0,0,0,3.09-1.77A15,15,0,0,0,849.39,58Zm0-6.77a10.77,10.77,0,0,0-1.88-4.13,9,9,0,0,0-3.28-2.5,10,10,0,0,0-4.28-1A9.25,9.25,0,0,0,833.59,46a10.89,10.89,0,0,0-2.94,5.2Z" transform="translate(-3.33 -2.6)"/><path class="cls-1" d="M857.76,41.17h3.3v3.67a11.75,11.75,0,0,1,3.12-3.25,6.18,6.18,0,0,1,3.42-1.07,5.93,5.93,0,0,1,2.87.85l-1.69,2.73a4.57,4.57,0,0,0-1.71-.44A4.65,4.65,0,0,0,864,45a8.48,8.48,0,0,0-2.29,4.12,39.67,39.67,0,0,0-.6,8.69v8.5h-3.3Z" transform="translate(-3.33 -2.6)"/><path class="cls-1" d="M873.21,41.17h3.24v4.5a13.62,13.62,0,0,1,4.3-3.87,10.61,10.61,0,0,1,5.13-1.28,9,9,0,0,1,5,1.43,8.56,8.56,0,0,1,3.22,3.86,20.29,20.29,0,0,1,1,7.56V66.3h-3.23v-12a29.59,29.59,0,0,0-.36-5.8,6.41,6.41,0,0,0-2.16-3.75,6.51,6.51,0,0,0-4.16-1.26A8,8,0,0,0,880,45.44a9.12,9.12,0,0,0-3.06,4.81,33.23,33.23,0,0,0-.46,6.84V66.3h-3.24Z" transform="translate(-3.33 -2.6)"/><path class="cls-1" d="M914,40.52a12.44,12.44,0,0,1,9.63,4.2A13.51,13.51,0,0,1,923.41,63a13.29,13.29,0,0,1-18.89,0,13.46,13.46,0,0,1-.2-18.26A12.44,12.44,0,0,1,914,40.52Zm0,3.16a9.35,9.35,0,0,0-6.93,3,10,10,0,0,0-2.9,7.21A10.25,10.25,0,0,0,905.45,59,9.4,9.4,0,0,0,909,62.6a10.17,10.17,0,0,0,9.88,0A9.4,9.4,0,0,0,922.47,59a10.25,10.25,0,0,0,1.32-5.09,10,10,0,0,0-2.91-7.21A9.36,9.36,0,0,0,914,43.68Z" transform="translate(-3.33 -2.6)"/><path class="cls-1" d="M958.15,31.46V66.3H955V62a13.72,13.72,0,0,1-4.56,3.72,12.74,12.74,0,0,1-14.65-2.62A13,13,0,0,1,932,53.67a12.71,12.71,0,0,1,3.82-9.29A12.38,12.38,0,0,1,945,40.52a11.84,11.84,0,0,1,5.6,1.32,12.61,12.61,0,0,1,4.4,3.95V31.46ZM945.22,43.64a9.79,9.79,0,0,0-8.62,5,10.17,10.17,0,0,0,0,10.16,9.87,9.87,0,0,0,3.65,3.77A9.58,9.58,0,0,0,945.2,64a10.11,10.11,0,0,0,5-1.34A9.37,9.37,0,0,0,953.89,59a10.38,10.38,0,0,0,1.28-5.15,10,10,0,0,0-2.87-7.29A9.52,9.52,0,0,0,945.22,43.64Z" transform="translate(-3.33 -2.6)"/><path class="cls-1" d="M986.64,58l2.73,1.43a15,15,0,0,1-3.1,4.26,12.19,12.19,0,0,1-4,2.46,13.81,13.81,0,0,1-5,.84q-6.15,0-9.62-4a13.63,13.63,0,0,1-3.47-9.12,13.42,13.42,0,0,1,2.94-8.52,12,12,0,0,1,10-4.76,12.4,12.4,0,0,1,10.27,4.87A13.62,13.62,0,0,1,990.2,54H967.58a10.21,10.21,0,0,0,2.8,7.18,8.9,8.9,0,0,0,6.68,2.8,10.65,10.65,0,0,0,3.74-.67,9.69,9.69,0,0,0,3.09-1.77A15.31,15.31,0,0,0,986.64,58Zm0-6.77a10.63,10.63,0,0,0-1.89-4.13,8.86,8.86,0,0,0-3.27-2.5,10,10,0,0,0-4.28-1A9.23,9.23,0,0,0,970.84,46a10.81,10.81,0,0,0-2.94,5.2Z" transform="translate(-3.33 -2.6)"/><path class="cls-1" d="M1008.87,43.91l-2.08,2.15q-2.6-2.52-5.07-2.52a3.8,3.8,0,0,0-2.7,1.05A3.2,3.2,0,0,0,997.89,47a3.6,3.6,0,0,0,.93,2.34,13.16,13.16,0,0,0,3.89,2.65,14.53,14.53,0,0,1,4.91,3.61,6.56,6.56,0,0,1,1.27,4,7.08,7.08,0,0,1-2.17,5.24,7.45,7.45,0,0,1-5.44,2.15,9.42,9.42,0,0,1-4.16-1,9,9,0,0,1-3.27-2.61l2-2.31q2.49,2.81,5.26,2.8a4.73,4.73,0,0,0,3.31-1.25,3.86,3.86,0,0,0,1.37-2.93,3.79,3.79,0,0,0-.9-2.48,14.78,14.78,0,0,0-4.08-2.68,13.05,13.05,0,0,1-4.63-3.46A6.52,6.52,0,0,1,995,47.17a6.34,6.34,0,0,1,2-4.76,6.81,6.81,0,0,1,4.94-1.89Q1005.35,40.52,1008.87,43.91Z" transform="translate(-3.33 -2.6)"/><path class="cls-1" d="M1018.16,61.22a2.77,2.77,0,0,1,2,.83,2.9,2.9,0,0,1,0,4.06,2.74,2.74,0,0,1-2,.84,2.71,2.71,0,0,1-2-.84,2.86,2.86,0,0,1,2-4.89Z" transform="translate(-3.33 -2.6)"/><path class="cls-2" d="M44.61,2.6A41.28,41.28,0,0,0,3.33,43.89V112L18.09,95.56V43.78A26.15,26.15,0,0,1,68,32.84H44a3.63,3.63,0,0,0-3.1-1.73,3.69,3.69,0,1,0,3.25,5.41H69.35a26,26,0,0,1,1,7.26c0,.26,0,.51,0,.76H32.67a3.69,3.69,0,1,0,0,3.69H70a25.76,25.76,0,0,1-2,6.57H52.68A3.64,3.64,0,0,0,49.51,53a3.69,3.69,0,0,0,0,7.37,3.64,3.64,0,0,0,3.17-1.84H65.86a26.21,26.21,0,0,1-30.64,9.85V84.1A41.29,41.29,0,1,0,44.61,2.6Z" transform="translate(-3.33 -2.6)"/><path class="cls-2" d="M234.75,68.83V42.75c0-3.23-.83-5.73-2.48-7.52s-4.14-2.68-7.45-2.68-5.79.89-7.45,2.68-2.48,4.29-2.48,7.52V68.83h-8.47V42.75a21.65,21.65,0,0,1,1.22-7.52,15.68,15.68,0,0,1,3.54-5.69,15.41,15.41,0,0,1,5.76-3.61,25.27,25.27,0,0,1,15.76,0,15.41,15.41,0,0,1,5.76,3.61A15.68,15.68,0,0,1,242,35.23a21.65,21.65,0,0,1,1.23,7.52V68.83Z" transform="translate(-3.33 -2.6)"/><path class="cls-2" d="M283.81,52.48a18.12,18.12,0,0,1-1.29,6.88,16,16,0,0,1-3.64,5.46,16.85,16.85,0,0,1-5.6,3.58,20.18,20.18,0,0,1-14.2,0,16.78,16.78,0,0,1-5.56-3.58,15.71,15.71,0,0,1-3.64-5.46,19,19,0,0,1,0-13.77,15.71,15.71,0,0,1,3.64-5.46,16.91,16.91,0,0,1,5.56-3.57,20.18,20.18,0,0,1,14.2,0,17,17,0,0,1,5.6,3.57,16,16,0,0,1,3.64,5.46A18.17,18.17,0,0,1,283.81,52.48ZM266.2,62.34a9.15,9.15,0,0,0,7-2.75,9.9,9.9,0,0,0,2.62-7.11,9.91,9.91,0,0,0-2.62-7.12,9.19,9.19,0,0,0-7-2.75,9.29,9.29,0,0,0-7,2.75,9.8,9.8,0,0,0-2.65,7.12,9.8,9.8,0,0,0,2.65,7.11A9.26,9.26,0,0,0,266.2,62.34Z" transform="translate(-3.33 -2.6)"/><path class="cls-2" d="M322.74,52.21a19.38,19.38,0,0,1-1.3,7.22A16.28,16.28,0,0,1,317.87,65a15.48,15.48,0,0,1-5.53,3.51,20,20,0,0,1-7.08,1.22,18.92,18.92,0,0,1-7.12-1.29,16.78,16.78,0,0,1-5.56-3.58,15.71,15.71,0,0,1-3.64-5.46,18.12,18.12,0,0,1-1.29-6.88,18.54,18.54,0,0,1,1.42-7.58,16.53,16.53,0,0,1,3.71-5.37A15.05,15.05,0,0,1,298,36.32a17.15,17.15,0,0,1,5.83-1,14,14,0,0,1,6.52,1.45,11.15,11.15,0,0,1,4.4,4h.14V21.83h7.88ZM305.26,62.34a9.15,9.15,0,0,0,7-2.75,9.9,9.9,0,0,0,2.62-7.11,9.91,9.91,0,0,0-2.62-7.12,9.19,9.19,0,0,0-7-2.75,9.29,9.29,0,0,0-7,2.75,9.8,9.8,0,0,0-2.65,7.12,9.8,9.8,0,0,0,2.65,7.11A9.26,9.26,0,0,0,305.26,62.34Z" transform="translate(-3.33 -2.6)"/><path class="cls-2" d="M336.17,55.26v.13a9.18,9.18,0,0,0,3.21,5.23,9.58,9.58,0,0,0,6.13,1.92q5.3,0,7.74-3.11h8.41a15.52,15.52,0,0,1-6.09,7.48,17.94,17.94,0,0,1-10.06,2.78,18.92,18.92,0,0,1-7.12-1.29,16.88,16.88,0,0,1-5.56-3.58,15.71,15.71,0,0,1-3.64-5.46,19,19,0,0,1,0-13.77,15.71,15.71,0,0,1,3.64-5.46,17,17,0,0,1,5.56-3.57,20.18,20.18,0,0,1,14.2,0,15.77,15.77,0,0,1,9.1,9,18,18,0,0,1,1.3,6.89v2.78Zm9.34-12.85a9.65,9.65,0,0,0-5.86,1.73,8.89,8.89,0,0,0-3.28,4.7V49h18.27v-.13a8.77,8.77,0,0,0-3.31-4.7A9.65,9.65,0,0,0,345.51,42.41Z" transform="translate(-3.33 -2.6)"/><path class="cls-2" d="M385.83,45.53a3.22,3.22,0,0,0-1.46-2.45,6.25,6.25,0,0,0-3.64-.93,6.1,6.1,0,0,0-3.94,1.06,3.34,3.34,0,0,0-1.29,2.71A2.09,2.09,0,0,0,376.89,48a15.14,15.14,0,0,0,3.51.92q2.12.33,4.53.66a16.09,16.09,0,0,1,4.54,1.33A9.26,9.26,0,0,1,393,53.73,8.63,8.63,0,0,1,394.37,59a9.66,9.66,0,0,1-3.71,7.72,13,13,0,0,1-4.34,2.21,18.92,18.92,0,0,1-5.66.8,18.68,18.68,0,0,1-5.63-.8,13.39,13.39,0,0,1-4.3-2.18A10,10,0,0,1,368,63.4a9.81,9.81,0,0,1-1.06-4.24h7.95a3.23,3.23,0,0,0,1.49,2.65,7.33,7.33,0,0,0,4.2,1c2.12,0,3.63-.36,4.53-1.07A3.34,3.34,0,0,0,386.42,59,2,2,0,0,0,385,57a14.83,14.83,0,0,0-3.51-.87L377,55.46a16,16,0,0,1-4.54-1.3,8.57,8.57,0,0,1-3.5-2.88,9,9,0,0,1-1.4-5.36,9.81,9.81,0,0,1,.93-4.27,10,10,0,0,1,2.62-3.37,12.12,12.12,0,0,1,4.1-2.22,17.21,17.21,0,0,1,5.4-.79,16.91,16.91,0,0,1,5.36.79A12.65,12.65,0,0,1,390,38.24a9.77,9.77,0,0,1,2.61,3.25,9.6,9.6,0,0,1,1,4Z" transform="translate(-3.33 -2.6)"/><path class="cls-3" d="M129.67,51.82a18.13,18.13,0,0,1-1.29,6.89,15.85,15.85,0,0,1-3.64,5.46,16.83,16.83,0,0,1-5.6,3.57,20,20,0,0,1-14.2,0,16.85,16.85,0,0,1-5.56-3.57,15.71,15.71,0,0,1-3.64-5.46,19,19,0,0,1,0-13.77,15.71,15.71,0,0,1,3.64-5.46,16.88,16.88,0,0,1,5.56-3.58,20.18,20.18,0,0,1,14.2,0,16.85,16.85,0,0,1,5.6,3.58,15.85,15.85,0,0,1,3.64,5.46A18.12,18.12,0,0,1,129.67,51.82Zm-17.61,9.87a9.19,9.19,0,0,0,7-2.75,9.87,9.87,0,0,0,2.62-7.12A9.86,9.86,0,0,0,119,44.71a9.19,9.19,0,0,0-7-2.75,9.32,9.32,0,0,0-7,2.75,9.84,9.84,0,0,0-2.65,7.11A9.85,9.85,0,0,0,105,58.94,9.32,9.32,0,0,0,112.06,61.69Z" transform="translate(-3.33 -2.6)"/><path class="cls-3" d="M136,68.18v-47h7.88v47Z" transform="translate(-3.33 -2.6)"/><path class="cls-3" d="M156.48,31.56a5.19,5.19,0,0,1-5.23-5.23,5.16,5.16,0,0,1,1.52-3.77,5.32,5.32,0,0,1,7.45,0,5.21,5.21,0,0,1,1.49,3.77A5.11,5.11,0,0,1,160.22,30,5,5,0,0,1,156.48,31.56Zm-3.91,36.62V35.47h7.88V68.18Z" transform="translate(-3.33 -2.6)"/><path class="cls-3" d="M185.74,44.87a3.22,3.22,0,0,0-1.46-2.45,7.72,7.72,0,0,0-7.58.13,3.38,3.38,0,0,0-1.29,2.72,2.09,2.09,0,0,0,1.39,2,14.75,14.75,0,0,0,3.51.93c1.41.22,2.92.44,4.54.66a15.6,15.6,0,0,1,4.53,1.32,9.38,9.38,0,0,1,3.51,2.85,8.56,8.56,0,0,1,1.39,5.23A9.66,9.66,0,0,1,190.57,66a13.21,13.21,0,0,1-4.33,2.22,19,19,0,0,1-5.66.8,18.63,18.63,0,0,1-5.63-.8,13.69,13.69,0,0,1-4.3-2.18,9.87,9.87,0,0,1-2.78-3.31,9.53,9.53,0,0,1-1.06-4.24h7.94a3.24,3.24,0,0,0,1.49,2.65,7.36,7.36,0,0,0,4.2,1c2.12,0,3.63-.35,4.54-1.06a3.35,3.35,0,0,0,1.35-2.78,2,2,0,0,0-1.38-2,15.52,15.52,0,0,0-3.51-.86l-4.54-.63a16.2,16.2,0,0,1-4.53-1.29,8.62,8.62,0,0,1-3.51-2.88,9,9,0,0,1-1.39-5.36A9.75,9.75,0,0,1,171,37.62a12.1,12.1,0,0,1,4.1-2.21,17.25,17.25,0,0,1,5.4-.8,16.86,16.86,0,0,1,5.36.8,12.46,12.46,0,0,1,4.07,2.18,10,10,0,0,1,2.62,3.24,9.52,9.52,0,0,1,1,4Z" transform="translate(-3.33 -2.6)"/></svg>