<svg id="Capa_1" data-name="Capa 1" xmlns="http://www.w3.org/2000/svg" xmlns:xlink="http://www.w3.org/1999/xlink" viewBox="0 0 1023.72 377.1"><defs><style>.cls-1{fill:url(#linear-gradient);}.cls-2{fill:url(#linear-gradient-2);}.cls-3{fill:url(#linear-gradient-3);}.cls-4{fill:url(#linear-gradient-4);}.cls-5{fill:url(#linear-gradient-5);}.cls-6{fill:url(#linear-gradient-6);}.cls-7{fill:url(#linear-gradient-7);}.cls-8{fill:url(#linear-gradient-8);}.cls-9{fill:url(#linear-gradient-9);}</style><linearGradient id="linear-gradient" x1="4.28" y1="192.13" x2="288.91" y2="192.13" gradientUnits="userSpaceOnUse"><stop offset="0" stop-color="#5a9e97"/><stop offset="1" stop-color="#67a86a"/></linearGradient><linearGradient id="linear-gradient-2" x1="121.7" y1="149.95" x2="171.5" y2="149.95" xlink:href="#linear-gradient"/><linearGradient id="linear-gradient-3" x1="309.1" y1="172.11" x2="425.18" y2="172.11" xlink:href="#linear-gradient"/><linearGradient id="linear-gradient-4" x1="445.9" y1="148.55" x2="471.86" y2="148.55" xlink:href="#linear-gradient"/><linearGradient id="linear-gradient-5" x1="496.3" y1="148.34" x2="530.77" y2="148.34" xlink:href="#linear-gradient"/><linearGradient id="linear-gradient-6" x1="547.56" y1="172.11" x2="638.11" y2="172.11" xlink:href="#linear-gradient"/><linearGradient id="linear-gradient-7" x1="661.7" y1="153.84" x2="773.62" y2="153.84" xlink:href="#linear-gradient"/><linearGradient id="linear-gradient-8" x1="784.52" y1="171.29" x2="900.16" y2="171.29" xlink:href="#linear-gradient"/><linearGradient id="linear-gradient-9" x1="921.54" y1="195.73" x2="1028" y2="195.73" xlink:href="#linear-gradient"/></defs><title>PolisPay2-3</title><path class="cls-1" d="M146.6,3.59A142.32,142.32,0,0,0,4.28,145.89V380.68L55.18,324V145.55a90.11,90.11,0,1,1,59.06,84.63v54.34A142.33,142.33,0,1,0,146.6,3.59Z" transform="translate(-4.28 -3.59)"/><path class="cls-2" d="M171.5,149.94a24.9,24.9,0,1,0-24.9,24.91A24.91,24.91,0,0,0,171.5,149.94Z" transform="translate(-4.28 -3.59)"/><path class="cls-3" d="M425.18,172.12a59.81,59.81,0,0,1-4.26,22.69,52.52,52.52,0,0,1-12,18,55.62,55.62,0,0,1-18.43,11.78,66.54,66.54,0,0,1-46.8,0,56,56,0,0,1-18.32-11.78,52.07,52.07,0,0,1-12-18,62.56,62.56,0,0,1,0-45.38,51.88,51.88,0,0,1,12-18,55.66,55.66,0,0,1,18.32-11.79,66.54,66.54,0,0,1,46.8,0,55.33,55.33,0,0,1,18.43,11.79,52.33,52.33,0,0,1,12,18A59.81,59.81,0,0,1,425.18,172.12Zm-58,32.5q14.4,0,23-9.05t8.62-23.45q0-14.4-8.62-23.45t-23-9.06q-14.42,0-23.13,9.06t-8.72,23.45q0,14.4,8.72,23.45T367.14,204.62Z" transform="translate(-4.28 -3.59)"/><path class="cls-4" d="M445.9,226V71.1h26V226Z" transform="translate(-4.28 -3.59)"/><path class="cls-5" d="M513.53,105.35A17.12,17.12,0,0,1,496.3,88.12a16.93,16.93,0,0,1,5-12.44,17.53,17.53,0,0,1,24.54,0,17.09,17.09,0,0,1,4.92,12.44,16.79,16.79,0,0,1-4.92,12.21A16.43,16.43,0,0,1,513.53,105.35ZM500.65,226V118.24h26V226Z" transform="translate(-4.28 -3.59)"/><path class="cls-6" d="M610,149.21a10.62,10.62,0,0,0-4.79-8.07c-2.92-2-6.91-3-12-3q-8.73,0-13,3.48a11,11,0,0,0-4.26,9,6.88,6.88,0,0,0,4.58,6.76,49,49,0,0,0,11.56,3.05q7,1.09,14.95,2.19A51.58,51.58,0,0,1,622,166.88a30.33,30.33,0,0,1,11.57,9.38q4.59,6.12,4.58,17.24a31.86,31.86,0,0,1-12.22,25.41,43.59,43.59,0,0,1-14.29,7.32,62.43,62.43,0,0,1-18.66,2.61,61.25,61.25,0,0,1-18.54-2.61,45,45,0,0,1-14.18-7.2,32.85,32.85,0,0,1-9.16-10.92,32,32,0,0,1-3.5-14h26.19a10.69,10.69,0,0,0,4.91,8.73q4.7,3.28,13.84,3.28c7,0,12-1.17,15-3.5a11.07,11.07,0,0,0,4.48-9.16,6.69,6.69,0,0,0-4.58-6.66A50.42,50.42,0,0,0,595.78,184c-4.66-.67-9.63-1.35-14.94-2.07a54,54,0,0,1-14.94-4.26,28.56,28.56,0,0,1-11.57-9.49q-4.59-6.33-4.59-17.67a32.27,32.27,0,0,1,11.68-25.21,40.45,40.45,0,0,1,13.52-7.3,56.66,56.66,0,0,1,17.78-2.62A55.58,55.58,0,0,1,610.4,118a41.15,41.15,0,0,1,13.41,7.21,32.66,32.66,0,0,1,8.62,10.67,31.62,31.62,0,0,1,3.28,13.32Z" transform="translate(-4.28 -3.59)"/><path class="cls-7" d="M661.7,225.18V82.49h58.24q14,0,24.12,3.6a43.91,43.91,0,0,1,16.68,10.14,40.85,40.85,0,0,1,9.71,15.39,60.37,60.37,0,0,1,0,38.61,40.77,40.77,0,0,1-9.71,15.39,44,44,0,0,1-16.68,10.14q-10.15,3.59-24.12,3.6H689.62v45.82Zm58.68-71.56q14,0,19.42-6.44t5.46-16.25q0-9.62-5.46-16t-19.42-6.45H689.62v45.17Z" transform="translate(-4.28 -3.59)"/><path class="cls-8" d="M900.16,225.18H876.37V205.11h-.43a35.21,35.21,0,0,1-14.4,16.69q-10,6.21-23.78,6.22a56.17,56.17,0,0,1-19.19-3.49,49.33,49.33,0,0,1-17.14-10.59,53.91,53.91,0,0,1-12.21-17.66q-4.71-10.59-4.7-25a59.63,59.63,0,0,1,4.26-22.7,51.91,51.91,0,0,1,12-18,55.91,55.91,0,0,1,18.33-11.79,62.31,62.31,0,0,1,23.47-4.26,64.07,64.07,0,0,1,23.33,4.14,51.94,51.94,0,0,1,18.22,11.68,53.44,53.44,0,0,1,11.79,18.1,63.17,63.17,0,0,1,4.25,23.68ZM842.57,203.8q14.37,0,23-9.05t8.62-23.45c0-9.62-2.88-17.42-8.62-23.47s-13.43-9.05-23-9.05-17.31,3-23.14,9.05-8.72,13.85-8.72,23.47,2.9,17.42,8.72,23.45S833,203.8,842.57,203.8Z" transform="translate(-4.28 -3.59)"/><path class="cls-9" d="M1002,209.47h-.43a34.73,34.73,0,0,1-12.88,12.65A37.28,37.28,0,0,1,970,226.71a53,53,0,0,1-18.11-3.17,43.22,43.22,0,0,1-15.49-9.7,46.89,46.89,0,0,1-10.8-16.92c-2.69-6.9-4-15.17-4-24.76V117.4h26v54.76q0,15.5,7.42,22.91t19.86,7.42q12,0,19.63-7.64t7.64-22.69V117.4h26V221.47q0,14.17-4.14,24.11a43,43,0,0,1-11.46,16.25,46,46,0,0,1-17.11,9.27,72.46,72.46,0,0,1-20.95,3,70.27,70.27,0,0,1-17.79-2.2,49.42,49.42,0,0,1-15.27-6.76,44.29,44.29,0,0,1-11.77-11.56,46.22,46.22,0,0,1-7.1-16.57h26q6.32,14.6,26,14.6,13.3,0,20.5-6.86t7.2-22.59Z" transform="translate(-4.28 -3.59)"/></svg>