<svg id="Capa_1" data-name="Capa 1" xmlns="http://www.w3.org/2000/svg" xmlns:xlink="http://www.w3.org/1999/xlink" viewBox="0 0 1022.74 361.36"><defs><style>.cls-1{fill:url(#linear-gradient);}.cls-2{fill:#fff;}</style><linearGradient id="linear-gradient" x1="0.26" y1="183.95" x2="1023" y2="183.95" gradientUnits="userSpaceOnUse"><stop offset="0" stop-color="#5a9e97"/><stop offset="1" stop-color="#67a86a"/></linearGradient></defs><title>PolisPayBckngd</title><path class="cls-1" d="M1023,327.69c0,20.4-13.6,36.94-30.39,36.94h-962C13.86,364.63.26,348.09.26,327.69V40.21c0-20.4,13.6-36.94,30.38-36.94h962c16.79,0,30.39,16.54,30.39,36.94Z" transform="translate(-0.26 -3.27)"/><path class="cls-2" d="M273.47,77.63a93.93,93.93,0,0,0-93.93,93.92v155l33.59-37.39V171.32a59.48,59.48,0,1,1,39,55.86V263a93.93,93.93,0,1,0,21.35-185.4Z" transform="translate(-0.26 -3.27)"/><path class="cls-2" d="M289.91,174.23a16.44,16.44,0,1,0-16.44,16.44A16.44,16.44,0,0,0,289.91,174.23Z" transform="translate(-0.26 -3.27)"/><path class="cls-2" d="M457.33,188.86a39.38,39.38,0,0,1-2.81,15,34.45,34.45,0,0,1-7.92,11.88,36.64,36.64,0,0,1-12.17,7.78,43.82,43.82,0,0,1-30.88,0,36.74,36.74,0,0,1-12.1-7.78,34.45,34.45,0,0,1-7.92-11.88,41.31,41.31,0,0,1,0-30A34.5,34.5,0,0,1,391.45,162a36.74,36.74,0,0,1,12.1-7.78,43.82,43.82,0,0,1,30.88,0A36.64,36.64,0,0,1,446.6,162a34.5,34.5,0,0,1,7.92,11.87A39.46,39.46,0,0,1,457.33,188.86ZM419,210.31q9.51,0,15.2-6t5.68-15.48q0-9.51-5.68-15.48t-15.2-6q-9.5,0-15.26,6T398,188.86q0,9.51,5.76,15.48T419,210.31Z" transform="translate(-0.26 -3.27)"/><path class="cls-2" d="M471,224.42V122.19h17.13V224.42Z" transform="translate(-0.26 -3.27)"/><path class="cls-2" d="M515.64,144.8a11.3,11.3,0,0,1-11.37-11.38,11.15,11.15,0,0,1,3.31-8.21,11.57,11.57,0,0,1,16.2,0,11.29,11.29,0,0,1,3.24,8.21,11.11,11.11,0,0,1-3.24,8.07A10.92,10.92,0,0,1,515.64,144.8Zm-8.5,79.62V153.29h17.14v71.13Z" transform="translate(-0.26 -3.27)"/><path class="cls-2" d="M579.28,173.74a7,7,0,0,0-3.16-5.33,13.69,13.69,0,0,0-7.92-2q-5.76,0-8.57,2.3a7.3,7.3,0,0,0-2.81,5.9,4.54,4.54,0,0,0,3,4.47,32.25,32.25,0,0,0,7.63,2c3.07.47,6.35.95,9.86,1.43a34.26,34.26,0,0,1,9.86,2.88,20,20,0,0,1,7.63,6.2q3,4,3,11.37a21.06,21.06,0,0,1-8.06,16.78,28.77,28.77,0,0,1-9.44,4.82,41.28,41.28,0,0,1-12.31,1.73,40.62,40.62,0,0,1-12.24-1.73,29.76,29.76,0,0,1-9.36-4.75,21.75,21.75,0,0,1-6-7.2,21.16,21.16,0,0,1-2.31-9.22h17.28a7,7,0,0,0,3.24,5.76q3.09,2.16,9.15,2.16,6.9,0,9.86-2.3a7.3,7.3,0,0,0,3-6.05,4.41,4.41,0,0,0-3-4.39,32.55,32.55,0,0,0-7.64-1.87l-9.86-1.37a35.37,35.37,0,0,1-9.86-2.81,18.94,18.94,0,0,1-7.64-6.26c-2-2.79-3-6.67-3-11.67a21.29,21.29,0,0,1,2-9.28,21.7,21.7,0,0,1,5.69-7.35,26.48,26.48,0,0,1,8.92-4.82,37.51,37.51,0,0,1,11.74-1.73,36.77,36.77,0,0,1,11.66,1.73,27.58,27.58,0,0,1,8.86,4.75,21.67,21.67,0,0,1,5.68,7.06,20.73,20.73,0,0,1,2.17,8.78Z" transform="translate(-0.26 -3.27)"/><path class="cls-2" d="M613.42,223.88V129.7h38.45a47.76,47.76,0,0,1,15.91,2.38,28.9,28.9,0,0,1,11,6.7,26.79,26.79,0,0,1,6.41,10.15,39.91,39.91,0,0,1,0,25.49,26.75,26.75,0,0,1-6.41,10.14,28.9,28.9,0,0,1-11,6.7,47.76,47.76,0,0,1-15.91,2.38h-20v30.24Zm38.74-47.23c6.14,0,10.4-1.41,12.81-4.25a16,16,0,0,0,3.6-10.73,15.8,15.8,0,0,0-3.6-10.58c-2.41-2.82-6.67-4.25-12.81-4.25h-20.3v29.81Z" transform="translate(-0.26 -3.27)"/><path class="cls-2" d="M770.81,223.88h-15.7V210.63h-.29a23.24,23.24,0,0,1-9.5,11,29.27,29.27,0,0,1-15.7,4.1,37,37,0,0,1-12.67-2.3,32.63,32.63,0,0,1-11.3-7,35.35,35.35,0,0,1-8.06-11.66,40.2,40.2,0,0,1-3.1-16.49,39.53,39.53,0,0,1,2.8-15,34.5,34.5,0,0,1,7.92-11.87,36.74,36.74,0,0,1,12.1-7.78,41.14,41.14,0,0,1,15.48-2.81,42.17,42.17,0,0,1,15.41,2.74,34.25,34.25,0,0,1,12,7.7,35.42,35.42,0,0,1,7.78,12,41.71,41.71,0,0,1,2.81,15.62Zm-38-14.11q9.51,0,15.19-6t5.69-15.48q0-9.5-5.69-15.47t-15.19-6q-9.51,0-15.27,6t-5.75,15.47q0,9.49,5.75,15.48T732.79,209.77Z" transform="translate(-0.26 -3.27)"/><path class="cls-2" d="M838,213.51h-.29a22.94,22.94,0,0,1-8.48,8.35,24.68,24.68,0,0,1-12.4,3,34.92,34.92,0,0,1-12-2.09,28.55,28.55,0,0,1-10.21-6.41,30.84,30.84,0,0,1-7.14-11.16,45.16,45.16,0,0,1-2.66-16.34V152.75h17.14v36.14q0,10.23,4.89,15.11c3.27,3.28,7.63,4.9,13.1,4.9a17.57,17.57,0,0,0,13-5q5-5,5-15V152.75h17.14v68.68a41.55,41.55,0,0,1-2.73,15.91,28.53,28.53,0,0,1-7.57,10.73,30.48,30.48,0,0,1-11.3,6.11,49.31,49.31,0,0,1-25.56.51,33.23,33.23,0,0,1-10.08-4.46,29.31,29.31,0,0,1-7.76-7.63,30.58,30.58,0,0,1-4.69-10.94h17.14q4.17,9.63,17.13,9.64,8.79,0,13.53-4.54c3.18-3,4.75-8,4.75-14.9Z" transform="translate(-0.26 -3.27)"/></svg>