<svg id="Capa_1" data-name="Capa 1" xmlns="http://www.w3.org/2000/svg" viewBox="0 0 1023.87 1021.9"><defs><style>.cls-1{fill:#5a297f;}.cls-2{fill:#fff;}</style></defs><title>Olympus2-1</title><rect class="cls-1" width="1023.87" height="1021.9" rx="104.48"/><path class="cls-2" d="M768,486v-.14a255.33,255.33,0,0,0-23-83c-.33-.74-.66-1.52-1-2.25-.08-.18-.19-.35-.27-.52a257.22,257.22,0,0,0-231.62-145.2c-142,0-257.22,115.17-257.25,257.26a256.75,256.75,0,0,0,92,197.09V511.55A162.93,162.93,0,0,1,672.25,499.8h-121a45.29,45.29,0,1,0,0,45.27h118c-15.48,73.92-81,129.44-159.45,129.44a162.56,162.56,0,0,1-56.2-10v98.12c.82.22,1.65.42,2.47.61,2.95.65,5.93,1.24,8.94,1.8,1.62.3,3.23.6,4.84.88,3,.46,6.05.91,9.08,1.3,1.62.19,3.23.44,4.89.62,3.23.36,6.47.61,9.76.85,1.42.1,2.87.24,4.28.33,4.73.24,9.46.41,14.22.41,142.09,0,257.26-115.19,257.26-257.26A260.25,260.25,0,0,0,768,486Z" transform="translate(-0.13 -1.23)"/></svg>