<svg id="Capa_1" data-name="Capa 1" xmlns="http://www.w3.org/2000/svg" viewBox="0 0 1024.21 274.51"><defs><style>.cls-1{fill:#5a297f;}</style></defs><title>Olympus2-3</title><path class="cls-1" d="M273.59,123.24v-.06a136.24,136.24,0,0,0-12.3-44.28c-.17-.39-.33-.82-.54-1.2a2.64,2.64,0,0,0-.15-.29A137.25,137.25,0,1,0,48.87,242.35V136.86a86.93,86.93,0,0,1,173.63-6.27H158a24.17,24.17,0,1,0,0,24.18h62.92a87,87,0,0,1-115,63.71v52.36l1.32.32c1.58.33,3.18.67,4.77,1,.86.16,1.73.32,2.59.45,1.6.27,3.22.51,4.84.72l2.59.32c1.73.19,3.47.32,5.21.45l2.3.18c2.53.14,5.05.22,7.6.22A137.26,137.26,0,0,0,274.28,137.2C274.28,132.48,274,127.84,273.59,123.24Z" transform="translate(0.21 0.05)"/><path class="cls-1" d="M311.43,214.19V60h25.86V214.19Z" transform="translate(0.21 0.05)"/><path class="cls-1" d="M442.44,198.55H442a34.51,34.51,0,0,1-12.81,12.61,37.36,37.36,0,0,1-18.69,4.55,52.51,52.51,0,0,1-18-3.14,43.11,43.11,0,0,1-15.42-9.67,46.6,46.6,0,0,1-10.76-16.83c-2.69-6.89-4-15.1-4-24.66V106.88h25.84v54.53q0,15.42,7.39,22.79t19.77,7.4q12,0,19.56-7.6t7.6-22.59V106.88h25.84V210.5q0,14.13-4.12,24a42.88,42.88,0,0,1-11.4,16.19,46.09,46.09,0,0,1-17.06,9.23,72.36,72.36,0,0,1-20.85,2.93,70.09,70.09,0,0,1-17.71-2.17A50,50,0,0,1,381.93,254a44,44,0,0,1-11.72-11.52,45.72,45.72,0,0,1-7.06-16.51H389q6.28,14.58,25.85,14.57,13.25,0,20.42-6.85t7.17-22.48Z" transform="translate(0.21 0.05)"/><path class="cls-1" d="M562.36,214.19V152.93q0-13-6.2-18.89a21.68,21.68,0,0,0-15.53-5.88q-9.55,0-15.65,5.77t-6.07,19v61.26H493.05V152.93a62,62,0,0,1,3.48-21.84,42.15,42.15,0,0,1,9.45-15.2A37.57,37.57,0,0,1,520.21,107,52.9,52.9,0,0,1,538,104.05a46.32,46.32,0,0,1,21.63,4.89A39.77,39.77,0,0,1,575,123h.43a38.12,38.12,0,0,1,15.1-14,46.73,46.73,0,0,1,21.83-4.89A53,53,0,0,1,630.14,107a37.46,37.46,0,0,1,14.22,8.91,42.3,42.3,0,0,1,9.46,15.2q3.48,9.25,3.47,21.84v61.26H631.44V152.93q0-13.25-6.08-19t-15.65-5.77c-6.22,0-11.37,2-15.41,5.88s-6.09,10.2-6.09,18.89v61.26Z" transform="translate(0.21 0.05)"/><path class="cls-1" d="M678.58,161.41a62.91,62.91,0,0,1,4.23-23.57,53.53,53.53,0,0,1,11.73-18,52.17,52.17,0,0,1,18.05-11.63,63.64,63.64,0,0,1,23.35-4.12,62.42,62.42,0,0,1,23.24,4.24A55.57,55.57,0,0,1,777.54,120a52.27,52.27,0,0,1,12,17.93,59.53,59.53,0,0,1,4.23,22.6q0,14.33-4.66,24.87A53.94,53.94,0,0,1,776.89,203a49.16,49.16,0,0,1-17,10.54A55.58,55.58,0,0,1,740.72,217a46,46,0,0,1-21.4-4.77,36.32,36.32,0,0,1-14.45-13h-.43V260H678.58Zm57.36-33.25q-14.36,0-22.93,9t-8.57,23.36q0,14.33,8.57,23.34t22.93,9q14.32,0,23-9t8.68-23.34q0-14.34-8.68-23.36T735.94,128.16Z" transform="translate(0.21 0.05)"/><path class="cls-1" d="M890.83,106.88h25.86v55.83a66.88,66.88,0,0,1-3.81,23.57,46.1,46.1,0,0,1-10.75,16.94,45.07,45.07,0,0,1-16.73,10.33A64.44,64.44,0,0,1,863.68,217,66.54,66.54,0,0,1,842,213.65a43.69,43.69,0,0,1-16.72-10.21,45.91,45.91,0,0,1-10.76-17.05,67.56,67.56,0,0,1-3.81-23.68V106.88h25.86v55.83q0,15.43,7.39,22.81t19.77,7.38q12.38,0,19.77-7.38t7.38-22.81Z" transform="translate(0.21 0.05)"/><path class="cls-1" d="M996,137.73a10.58,10.58,0,0,0-4.78-8c-2.9-2-6.88-3-12-3-5.79,0-10.1,1.17-12.93,3.48a11,11,0,0,0-4.23,8.91,6.83,6.83,0,0,0,4.55,6.73,49.35,49.35,0,0,0,11.52,3.05q6.95,1.08,14.88,2.17a50.73,50.73,0,0,1,14.89,4.35,30,30,0,0,1,11.51,9.33c3,4.07,4.56,9.77,4.56,17.17a31.74,31.74,0,0,1-12.17,25.31,43.24,43.24,0,0,1-14.22,7.27A61.92,61.92,0,0,1,979,217a60.79,60.79,0,0,1-18.47-2.6,44.77,44.77,0,0,1-14.12-7.17,32.72,32.72,0,0,1-9.13-10.85,31.87,31.87,0,0,1-3.48-13.92h26.07a10.69,10.69,0,0,0,4.9,8.7c3.1,2.17,7.71,3.25,13.78,3.25q10.42,0,14.88-3.46a11.06,11.06,0,0,0,4.46-9.13,6.65,6.65,0,0,0-4.57-6.63,50.22,50.22,0,0,0-11.51-2.83L967,170.31a53.18,53.18,0,0,1-14.88-4.23,28.3,28.3,0,0,1-11.51-9.45Q936,150.32,936,139a32.21,32.21,0,0,1,3-14,32.55,32.55,0,0,1,8.59-11.08,40.35,40.35,0,0,1,13.47-7.29,56.45,56.45,0,0,1,17.7-2.6,55.37,55.37,0,0,1,17.6,2.6,41.32,41.32,0,0,1,13.36,7.18,32.58,32.58,0,0,1,8.58,10.64,31.64,31.64,0,0,1,3.27,13.26Z" transform="translate(0.21 0.05)"/></svg>