<svg id="Capa_1" data-name="Capa 1" xmlns="http://www.w3.org/2000/svg" viewBox="0 0 1023.58 412.45"><defs><style>.cls-1{fill:#5a297f;}.cls-2{fill:#fff;}</style></defs><title>Olympus2-2</title><path class="cls-1" d="M1024,370.76c0,23.29-13.62,42.17-30.42,42.17H30.83C14,412.93.42,394.05.42,370.76V42.65C.42,19.36,14,.48,30.83.48H993.58c16.8,0,30.42,18.88,30.42,42.17Z" transform="translate(-0.42 -0.48)"/><path class="cls-2" d="M330.79,195.41v0a103.08,103.08,0,0,0-9.29-33.5c-.13-.3-.27-.6-.42-.91a2.09,2.09,0,0,0-.1-.21A103.83,103.83,0,1,0,160.79,285.52V205.71A65.76,65.76,0,0,1,292.14,201H243.32a18.28,18.28,0,1,0,0,18.28h47.61a65.79,65.79,0,0,1-87.05,48.2v39.62l1,.23c1.2.26,2.41.52,3.61.73l2,.35c1.22.2,2.44.37,3.66.54l2,.25c1.3.13,2.62.24,3.94.33.58,0,1.16.1,1.74.13,1.91.11,3.81.17,5.74.17A103.84,103.84,0,0,0,331.33,206,105.3,105.3,0,0,0,330.79,195.41Z" transform="translate(-0.42 -0.48)"/><path class="cls-2" d="M359.44,264.22V147.53H379V264.22Z" transform="translate(-0.42 -0.48)"/><path class="cls-2" d="M458.54,252.38h-.33a26,26,0,0,1-9.7,9.54,28.12,28.12,0,0,1-14.13,3.45A39.69,39.69,0,0,1,420.74,263a32.46,32.46,0,0,1-11.67-7.31,35,35,0,0,1-8.13-12.74,51.28,51.28,0,0,1-3.05-18.65V183h19.56v41.25q0,11.67,5.59,17.26T438,247.12q9,0,14.8-5.75t5.75-17.09V183h19.55v78.39q0,10.68-3.12,18.16a32.46,32.46,0,0,1-8.62,12.25,34.8,34.8,0,0,1-12.91,7A54.55,54.55,0,0,1,437.67,301a52.9,52.9,0,0,1-13.4-1.65,37.54,37.54,0,0,1-11.5-5.09,33.56,33.56,0,0,1-8.88-8.71,35.12,35.12,0,0,1-5.34-12.49h19.56q4.75,11,19.56,11,10,0,15.44-5.18c3.62-3.44,5.43-9.12,5.43-17Z" transform="translate(-0.42 -0.48)"/><path class="cls-2" d="M549.26,264.22V217.87q0-9.85-4.69-14.3a18,18,0,0,0-23.58-.08q-4.61,4.37-4.6,14.38v46.35H496.83V217.87a46.61,46.61,0,0,1,2.63-16.51,31.71,31.71,0,0,1,7.15-11.51,28.53,28.53,0,0,1,10.76-6.74,40,40,0,0,1,13.48-2.22,35,35,0,0,1,16.35,3.7,29.88,29.88,0,0,1,11.59,10.6h.33a28.76,28.76,0,0,1,11.42-10.6,35.4,35.4,0,0,1,16.52-3.7,39.9,39.9,0,0,1,13.47,2.22,28.57,28.57,0,0,1,10.77,6.74,31.84,31.84,0,0,1,7.15,11.51,46.84,46.84,0,0,1,2.63,16.51v46.35H601.52V217.87q0-10-4.6-14.38a16.49,16.49,0,0,0-11.84-4.35,16.08,16.08,0,0,0-11.66,4.43q-4.6,4.44-4.6,14.3v46.35Z" transform="translate(-0.42 -0.48)"/><path class="cls-2" d="M637.18,224.28a47.38,47.38,0,0,1,3.21-17.83,40,40,0,0,1,8.87-13.64A39.05,39.05,0,0,1,662.9,184a47.86,47.86,0,0,1,17.67-3.13,47.07,47.07,0,0,1,17.58,3.21A41.79,41.79,0,0,1,712,193a39.3,39.3,0,0,1,9,13.56,44.93,44.93,0,0,1,3.21,17.09,46.23,46.23,0,0,1-3.54,18.82,40.46,40.46,0,0,1-9.2,13.31,37.12,37.12,0,0,1-12.9,8,42.17,42.17,0,0,1-14.46,2.63,34.75,34.75,0,0,1-16.2-3.61,27.79,27.79,0,0,1-10.93-9.86h-.32v46H637.18Zm43.39-25.14q-10.85,0-17.34,6.82t-6.49,17.66q0,10.84,6.49,17.67t17.34,6.82q10.84,0,17.42-6.82t6.57-17.67q0-10.85-6.57-17.66T680.57,199.14Z" transform="translate(-0.42 -0.48)"/><path class="cls-2" d="M797.75,183H817.3v42.23a50.73,50.73,0,0,1-2.87,17.84,35.08,35.08,0,0,1-8.14,12.82,34,34,0,0,1-12.65,7.8,48.88,48.88,0,0,1-16.44,2.63,50.17,50.17,0,0,1-16.43-2.55,33.1,33.1,0,0,1-12.66-7.72,34.94,34.94,0,0,1-8.13-12.9,51.15,51.15,0,0,1-2.88-17.92V183h19.56v42.23q0,11.69,5.59,17.26t15,5.59q9.38,0,15-5.59t5.59-17.26Z" transform="translate(-0.42 -0.48)"/><path class="cls-2" d="M877.29,206.37a8,8,0,0,0-3.62-6.09q-3.28-2.29-9-2.3-6.57,0-9.77,2.63a8.33,8.33,0,0,0-3.21,6.74,5.16,5.16,0,0,0,3.45,5.09,36.35,36.35,0,0,0,8.71,2.3q5.27.84,11.26,1.65a38.66,38.66,0,0,1,11.26,3.29,22.82,22.82,0,0,1,8.71,7.07q3.45,4.59,3.45,13a24,24,0,0,1-9.2,19.14,32.76,32.76,0,0,1-10.77,5.51,47.23,47.23,0,0,1-14,2,46.41,46.41,0,0,1-14-2A34,34,0,0,1,839.82,259a24.74,24.74,0,0,1-6.9-8.22,24,24,0,0,1-2.63-10.52H850a8.07,8.07,0,0,0,3.69,6.58q3.54,2.46,10.44,2.46,7.89,0,11.26-2.63a8.32,8.32,0,0,0,3.37-6.9,5,5,0,0,0-3.45-5,37.46,37.46,0,0,0-8.71-2.13c-3.51-.5-7.26-1-11.26-1.56a40.49,40.49,0,0,1-11.26-3.21,21.49,21.49,0,0,1-8.71-7.15q-3.45-4.75-3.45-13.31a24.5,24.5,0,0,1,2.3-10.6,24.91,24.91,0,0,1,6.49-8.38,30.35,30.35,0,0,1,10.19-5.51,42.92,42.92,0,0,1,13.4-2,42.12,42.12,0,0,1,13.31,2,31.41,31.41,0,0,1,10.11,5.43,24.74,24.74,0,0,1,6.49,8.05,23.82,23.82,0,0,1,2.46,10Z" transform="translate(-0.42 -0.48)"/></svg>