<svg id="Capa_1" data-name="Capa 1" xmlns="http://www.w3.org/2000/svg" viewBox="0 0 1023.7 184.84"><defs><style>.cls-1{fill:#5a297f;}.cls-2{fill:#fff;}</style></defs><title>Olympus2-4</title><path class="cls-1" d="M1024,166c0,10.43-13.62,18.89-30.42,18.89H30.71C13.92,184.93.3,176.47.3,166V19C.3,8.55,13.92.09,30.71.09H993.58C1010.38.09,1024,8.55,1024,19Z" transform="translate(-0.3 -0.09)"/><path class="cls-2" d="M459.36,115.84V77.51h.83l25.51,29.38V77.51h3.78v38.33h-.86l-25.3-29v29Z" transform="translate(-0.3 -0.09)"/><path class="cls-2" d="M511.63,86.76a14,14,0,0,1,10.86,4.74,15.22,15.22,0,0,1-.22,20.63,15,15,0,0,1-21.31,0,15.21,15.21,0,0,1-.22-20.6A14,14,0,0,1,511.63,86.76Zm0,3.57a10.52,10.52,0,0,0-7.82,3.36,11.23,11.23,0,0,0-3.27,8.13,11.55,11.55,0,0,0,1.49,5.73,10.62,10.62,0,0,0,4,4.11,11.49,11.49,0,0,0,11.14,0,10.59,10.59,0,0,0,4-4.11,11.45,11.45,0,0,0,1.49-5.73,11.2,11.2,0,0,0-3.28-8.13A10.52,10.52,0,0,0,511.62,90.33Z" transform="translate(-0.3 -0.09)"/><path class="cls-2" d="M561.45,76.54v39.3h-3.59V111a15.8,15.8,0,0,1-5.15,4.19,14.36,14.36,0,0,1-16.52-3,14.64,14.64,0,0,1-4.26-10.62,14.34,14.34,0,0,1,4.3-10.47,14,14,0,0,1,10.34-4.35,13.36,13.36,0,0,1,6.32,1.48,14.42,14.42,0,0,1,5,4.46V76.54ZM546.87,90.28a11,11,0,0,0-9.72,5.7,11.51,11.51,0,0,0,0,11.45,11.17,11.17,0,0,0,4.13,4.25,10.72,10.72,0,0,0,5.56,1.52,11.45,11.45,0,0,0,5.67-1.5,10.61,10.61,0,0,0,4.13-4.09,11.69,11.69,0,0,0,1.44-5.8,11.3,11.3,0,0,0-3.24-8.23A10.74,10.74,0,0,0,546.87,90.28Z" transform="translate(-0.3 -0.09)"/><path class="cls-2" d="M593.58,106.43l3.08,1.62a16.87,16.87,0,0,1-3.5,4.79,13.93,13.93,0,0,1-4.46,2.78,15.64,15.64,0,0,1-5.61.95q-6.93,0-10.84-4.55a15.53,15.53,0,0,1-.61-19.9,13.58,13.58,0,0,1,11.25-5.36,14,14,0,0,1,11.58,5.49,15.4,15.4,0,0,1,3.13,9.7H572.08a11.59,11.59,0,0,0,3.16,8.1,10.09,10.09,0,0,0,7.54,3.15,12,12,0,0,0,4.22-.75,11.12,11.12,0,0,0,3.48-2A17.41,17.41,0,0,0,593.58,106.43Zm0-7.64a12.06,12.06,0,0,0-2.12-4.66,10,10,0,0,0-3.7-2.81,11.3,11.3,0,0,0-4.82-1.07,10.39,10.39,0,0,0-7.18,2.68,12.2,12.2,0,0,0-3.31,5.86Z" transform="translate(-0.3 -0.09)"/><path class="cls-2" d="M618.65,90.59,616.3,93c-1.95-1.89-3.85-2.84-5.72-2.84a4.32,4.32,0,0,0-3,1.17,3.61,3.61,0,0,0-1.27,2.74,4,4,0,0,0,1.05,2.63,14.73,14.73,0,0,0,4.38,3,16.38,16.38,0,0,1,5.54,4.06,7.4,7.4,0,0,1,1.44,4.46,8,8,0,0,1-2.46,5.92,8.38,8.38,0,0,1-6.13,2.42,10.69,10.69,0,0,1-4.68-1.07,10.12,10.12,0,0,1-3.7-3L604,110q2.79,3.15,5.93,3.15a5.33,5.33,0,0,0,3.73-1.41,4.32,4.32,0,0,0,1.54-3.31,4.21,4.21,0,0,0-1-2.78,16.46,16.46,0,0,0-4.59-3,14.77,14.77,0,0,1-5.23-3.91,7.35,7.35,0,0,1-1.38-4.4,7.19,7.19,0,0,1,2.21-5.37,7.68,7.68,0,0,1,5.57-2.13C613.38,86.76,616,88,618.65,90.59Z" transform="translate(-0.3 -0.09)"/><path class="cls-2" d="M638.51,87.49h3.72v4.14A13.17,13.17,0,0,1,645.75,88a6.92,6.92,0,0,1,3.86-1.21,6.7,6.7,0,0,1,3.23,1l-1.9,3.08a5.13,5.13,0,0,0-1.93-.5,5.27,5.27,0,0,0-3.52,1.5,9.47,9.47,0,0,0-2.58,4.65c-.45,1.62-.68,4.88-.68,9.8v9.59h-3.72Z" transform="translate(-0.3 -0.09)"/><path class="cls-2" d="M679.81,106.43l3.07,1.62a16.85,16.85,0,0,1-3.49,4.79,13.93,13.93,0,0,1-4.46,2.78,15.68,15.68,0,0,1-5.61.95q-6.95,0-10.85-4.55a15.33,15.33,0,0,1-3.91-10.28,15.16,15.16,0,0,1,3.31-9.62,13.56,13.56,0,0,1,11.24-5.36,14,14,0,0,1,11.58,5.49,15.34,15.34,0,0,1,3.13,9.7H658.31a11.54,11.54,0,0,0,3.16,8.1A10.06,10.06,0,0,0,669,113.2a12,12,0,0,0,4.21-.75,10.9,10.9,0,0,0,3.48-2A17.4,17.4,0,0,0,679.81,106.43Zm0-7.64a12.22,12.22,0,0,0-2.13-4.66A10.06,10.06,0,0,0,674,91.32a11.35,11.35,0,0,0-4.83-1.07A10.38,10.38,0,0,0,662,92.93a12.21,12.21,0,0,0-3.32,5.86Z" transform="translate(-0.3 -0.09)"/><path class="cls-2" d="M691.89,75.81a2.87,2.87,0,0,1,2.12.89A3,3,0,0,1,694,81a3,3,0,0,1-4.23,0,3,3,0,0,1,0-4.25A2.88,2.88,0,0,1,691.89,75.81Zm-1.82,11.68h3.65v28.35h-3.65Z" transform="translate(-0.3 -0.09)"/><path class="cls-2" d="M701.28,87.49h3.65v4.9a14.2,14.2,0,0,1,3.91-4,11.09,11.09,0,0,1,5.82-1.66,9.8,9.8,0,0,1,3.91.8,8.52,8.52,0,0,1,3,2.15,11.58,11.58,0,0,1,2,3.85,13.43,13.43,0,0,1,4.55-5.07,10.81,10.81,0,0,1,5.88-1.73,9.19,9.19,0,0,1,5.18,1.48,8.78,8.78,0,0,1,3.34,4.15,22,22,0,0,1,1.1,8v15.48H740V100.36a20.34,20.34,0,0,0-.65-6.27,5.67,5.67,0,0,0-2.22-2.75,6.68,6.68,0,0,0-3.75-1,8.2,8.2,0,0,0-4.85,1.56,9,9,0,0,0-3.2,4.17q-1,2.61-1,8.71v11.1h-3.65V101.32a24.75,24.75,0,0,0-.64-7,5.81,5.81,0,0,0-2.22-2.94A6.44,6.44,0,0,0,714,90.3a8.13,8.13,0,0,0-4.73,1.53,9,9,0,0,0-3.26,4.1,22.23,22.23,0,0,0-1.05,7.9v12h-3.65Z" transform="translate(-0.3 -0.09)"/><path class="cls-2" d="M779.61,87.49v28.35H776V111a15.67,15.67,0,0,1-5.14,4.19,14.36,14.36,0,0,1-16.52-3,14.6,14.6,0,0,1-4.26-10.62,14.37,14.37,0,0,1,4.29-10.47,14,14,0,0,1,10.35-4.35,13.39,13.39,0,0,1,6.32,1.48,14.39,14.39,0,0,1,5,4.46V87.49ZM765,90.28a11,11,0,0,0-9.72,5.7,11.44,11.44,0,0,0-1.53,5.72,11.57,11.57,0,0,0,1.54,5.73,11.1,11.1,0,0,0,4.13,4.25A10.68,10.68,0,0,0,765,113.2a11.46,11.46,0,0,0,5.68-1.5,10.52,10.52,0,0,0,4.12-4.09,11.59,11.59,0,0,0,1.45-5.8A11.3,11.3,0,0,0,773,93.58,10.74,10.74,0,0,0,765,90.28Z" transform="translate(-0.3 -0.09)"/><path class="cls-2" d="M812.26,87.49h3.65v22.59q0,6-1,8.73a11.42,11.42,0,0,1-5,6,16.41,16.41,0,0,1-8.52,2.11,19.66,19.66,0,0,1-6.55-1,13.17,13.17,0,0,1-4.74-2.77,16.56,16.56,0,0,1-3.35-5.09h3.95a10.41,10.41,0,0,0,4.18,4.17,13.45,13.45,0,0,0,6.34,1.36,13.18,13.18,0,0,0,6.3-1.39,8.46,8.46,0,0,0,3.66-3.5c.74-1.4,1.1-3.66,1.1-6.79v-1.46a13.77,13.77,0,0,1-5,4,14.93,14.93,0,0,1-13.67-.54,13.79,13.79,0,0,1-5.32-5.23A14.73,14.73,0,0,1,801,86.76,13.65,13.65,0,0,1,807,88.07a16.38,16.38,0,0,1,5.31,4.34ZM801.5,90.28a11.51,11.51,0,0,0-5.76,1.49,10.87,10.87,0,0,0-4.17,4.15,11.3,11.3,0,0,0-1.51,5.72,10.29,10.29,0,0,0,3.13,7.71,12.31,12.31,0,0,0,16.19,0,10.69,10.69,0,0,0,3.06-7.95,11.6,11.6,0,0,0-1.4-5.72,10.31,10.31,0,0,0-4-4A11.11,11.11,0,0,0,801.5,90.28Z" transform="translate(-0.3 -0.09)"/><path class="cls-2" d="M825,75.81a2.91,2.91,0,0,1,2.13.89,3,3,0,0,1,0,4.25,2.9,2.9,0,0,1-2.13.88,2.85,2.85,0,0,1-2.1-.88,3,3,0,0,1,0-4.25A2.86,2.86,0,0,1,825,75.81Zm-1.81,11.68h3.65v28.35h-3.65Z" transform="translate(-0.3 -0.09)"/><path class="cls-2" d="M834.41,87.49h3.65v5.08a15.3,15.3,0,0,1,4.84-4.37,12,12,0,0,1,5.79-1.44,10.09,10.09,0,0,1,5.64,1.61A9.67,9.67,0,0,1,858,92.72q1.17,2.75,1.17,8.53v14.59h-3.65V102.31a33.34,33.34,0,0,0-.41-6.54,7.18,7.18,0,0,0-2.43-4.23A7.32,7.32,0,0,0,848,90.12,9,9,0,0,0,842,92.31a10.23,10.23,0,0,0-3.45,5.42,37.55,37.55,0,0,0-.52,7.71v10.4h-3.65Z" transform="translate(-0.3 -0.09)"/><path class="cls-2" d="M890.83,106.43l3.07,1.62a16.85,16.85,0,0,1-3.49,4.79,14,14,0,0,1-4.47,2.78,15.62,15.62,0,0,1-5.6.95q-6.95,0-10.85-4.55a15.33,15.33,0,0,1-3.91-10.28,15.16,15.16,0,0,1,3.31-9.62,13.56,13.56,0,0,1,11.24-5.36,14,14,0,0,1,11.58,5.49,15.34,15.34,0,0,1,3.13,9.7H869.33a11.58,11.58,0,0,0,3.15,8.1A10.09,10.09,0,0,0,880,113.2a12,12,0,0,0,4.22-.75,11.12,11.12,0,0,0,3.48-2A17.4,17.4,0,0,0,890.83,106.43Zm0-7.64a12.22,12.22,0,0,0-2.13-4.66A10.06,10.06,0,0,0,885,91.32a11.35,11.35,0,0,0-4.83-1.07A10.38,10.38,0,0,0,873,92.93a12.21,12.21,0,0,0-3.32,5.86Z" transform="translate(-0.3 -0.09)"/><path class="cls-2" d="M929.94,76.54v39.3h-3.6V111a15.67,15.67,0,0,1-5.14,4.19,14.36,14.36,0,0,1-16.52-3,14.6,14.6,0,0,1-4.26-10.62,14.37,14.37,0,0,1,4.29-10.47,14,14,0,0,1,10.35-4.35,13.39,13.39,0,0,1,6.32,1.48,14.39,14.39,0,0,1,5,4.46V76.54ZM915.36,90.28a11,11,0,0,0-9.72,5.7,11.44,11.44,0,0,0-1.53,5.72,11.57,11.57,0,0,0,1.54,5.73,11.1,11.1,0,0,0,4.13,4.25,10.68,10.68,0,0,0,5.55,1.52,11.46,11.46,0,0,0,5.68-1.5,10.52,10.52,0,0,0,4.12-4.09,11.59,11.59,0,0,0,1.45-5.8,11.3,11.3,0,0,0-3.24-8.23A10.74,10.74,0,0,0,915.36,90.28Z" transform="translate(-0.3 -0.09)"/><path class="cls-2" d="M942.21,110.11a3.19,3.19,0,0,1,3.21,3.23,3.13,3.13,0,0,1-.94,2.28,3.18,3.18,0,0,1-4.53,0,3.26,3.26,0,0,1,0-4.58A3.09,3.09,0,0,1,942.21,110.11Z" transform="translate(-0.3 -0.09)"/><path class="cls-2" d="M182.57,87v0a46.23,46.23,0,0,0-4.17-15c-.06-.14-.11-.28-.18-.41l-.05-.1a46.56,46.56,0,1,0-71.82,56V91.64a29.48,29.48,0,0,1,58.89-2.13H143.35a8.19,8.19,0,1,0,0,8.2h21.34a29.48,29.48,0,0,1-39,21.61v17.77l.45.1c.53.12,1.07.23,1.61.33l.88.16,1.65.23.88.11c.58.07,1.17.12,1.76.16l.78,0c.86.05,1.71.08,2.57.08A46.57,46.57,0,0,0,182.57,87Z" transform="translate(-0.3 -0.09)"/><path class="cls-2" d="M195.41,117.87V65.55h8.77v52.32Z" transform="translate(-0.3 -0.09)"/><path class="cls-2" d="M239.85,112.57h-.15a11.69,11.69,0,0,1-4.34,4.27,12.7,12.7,0,0,1-6.34,1.55,17.88,17.88,0,0,1-6.12-1.07,14.64,14.64,0,0,1-5.23-3.28,15.69,15.69,0,0,1-3.65-5.71,23,23,0,0,1-1.36-8.36V81.47h8.77V100q0,5.22,2.5,7.73a9.08,9.08,0,0,0,6.71,2.51,9,9,0,0,0,6.63-2.58c1.72-1.72,2.58-4.28,2.58-7.66V81.47h8.77v35.15a21.17,21.17,0,0,1-1.4,8.14,14.58,14.58,0,0,1-3.87,5.49,15.6,15.6,0,0,1-5.78,3.14,24.62,24.62,0,0,1-7.08,1,24,24,0,0,1-6-.74,16.76,16.76,0,0,1-5.15-2.28,14.94,14.94,0,0,1-4-3.91,15.55,15.55,0,0,1-2.4-5.6h8.77q2.15,4.94,8.77,4.94c3,0,5.3-.77,6.93-2.32s2.43-4.09,2.43-7.63Z" transform="translate(-0.3 -0.09)"/><path class="cls-2" d="M280.53,117.87V97.09c0-3-.7-5.08-2.1-6.41a7.35,7.35,0,0,0-5.27-2,7.43,7.43,0,0,0-5.31,2q-2.06,2-2.06,6.45v20.78H257V97.09a20.85,20.85,0,0,1,1.18-7.4,14.19,14.19,0,0,1,3.2-5.16,12.8,12.8,0,0,1,4.83-3,17.76,17.76,0,0,1,6-1,15.65,15.65,0,0,1,7.33,1.66,13.41,13.41,0,0,1,5.2,4.75H285a12.86,12.86,0,0,1,5.12-4.75,15.84,15.84,0,0,1,7.41-1.66,17.76,17.76,0,0,1,6,1,12.77,12.77,0,0,1,4.82,3,14.21,14.21,0,0,1,3.21,5.16,20.85,20.85,0,0,1,1.18,7.4v20.78H304V97.09q0-4.49-2.06-6.45a7.43,7.43,0,0,0-5.31-2,7.21,7.21,0,0,0-5.23,2C290,92,289.3,94.14,289.3,97.09v20.78Z" transform="translate(-0.3 -0.09)"/><path class="cls-2" d="M320,100a21.23,21.23,0,0,1,1.44-8,18.11,18.11,0,0,1,4-6.12,17.73,17.73,0,0,1,6.11-3.94,21.63,21.63,0,0,1,7.92-1.4A21.13,21.13,0,0,1,347.29,82a18.79,18.79,0,0,1,6.23,4A17.62,17.62,0,0,1,357.57,92,20.09,20.09,0,0,1,359,99.67a20.67,20.67,0,0,1-1.59,8.44,18.4,18.4,0,0,1-4.12,6,16.74,16.74,0,0,1-5.79,3.57,18.76,18.76,0,0,1-6.49,1.18,15.53,15.53,0,0,1-7.25-1.62,12.43,12.43,0,0,1-4.9-4.42h-.15v20.63H320ZM339.4,88.69a10.22,10.22,0,0,0-7.77,3.06,12.23,12.23,0,0,0,0,15.84,10.22,10.22,0,0,0,7.77,3.06,10.36,10.36,0,0,0,7.82-3.06,12.14,12.14,0,0,0,0-15.84A10.36,10.36,0,0,0,339.4,88.69Z" transform="translate(-0.3 -0.09)"/><path class="cls-2" d="M391.94,81.47h8.77v18.94a22.62,22.62,0,0,1-1.29,8,15.68,15.68,0,0,1-3.64,5.75,15.23,15.23,0,0,1-5.68,3.5,21.79,21.79,0,0,1-7.37,1.18,22.57,22.57,0,0,1-7.37-1.14,14.8,14.8,0,0,1-5.67-3.47,15.58,15.58,0,0,1-3.65-5.78,23,23,0,0,1-1.29-8V81.47h8.77v18.94c0,3.49.84,6.06,2.51,7.73a10.21,10.21,0,0,0,13.41,0c1.67-1.67,2.5-4.24,2.5-7.73Z" transform="translate(-0.3 -0.09)"/><path class="cls-2" d="M427.61,91.93A3.61,3.61,0,0,0,426,89.2a7,7,0,0,0-4.05-1,6.87,6.87,0,0,0-4.39,1.17,3.75,3.75,0,0,0-1.44,3,2.32,2.32,0,0,0,1.55,2.28,16.4,16.4,0,0,0,3.91,1c1.57.25,3.25.49,5.05.74a17.37,17.37,0,0,1,5,1.47,10.24,10.24,0,0,1,3.91,3.17,9.57,9.57,0,0,1,1.55,5.82,10.77,10.77,0,0,1-4.13,8.59,14.47,14.47,0,0,1-4.83,2.46,20.76,20.76,0,0,1-6.3.89,20.36,20.36,0,0,1-6.26-.89,14.69,14.69,0,0,1-4.79-2.43,11.12,11.12,0,0,1-3.1-3.68,10.91,10.91,0,0,1-1.18-4.72h8.85a3.63,3.63,0,0,0,1.65,3,8.17,8.17,0,0,0,4.68,1.11c2.36,0,4-.4,5.05-1.18a3.74,3.74,0,0,0,1.51-3.1,2.24,2.24,0,0,0-1.54-2.24,16.79,16.79,0,0,0-3.91-1c-1.57-.23-3.26-.46-5.05-.7a18.38,18.38,0,0,1-5-1.44,9.63,9.63,0,0,1-3.9-3.21,10,10,0,0,1-1.55-6,10.91,10.91,0,0,1,1-4.76,11.18,11.18,0,0,1,2.91-3.76,13.79,13.79,0,0,1,4.57-2.46,18.92,18.92,0,0,1,6-.89,18.54,18.54,0,0,1,6,.89,14,14,0,0,1,4.53,2.43,11.05,11.05,0,0,1,2.91,3.61,10.74,10.74,0,0,1,1.11,4.49Z" transform="translate(-0.3 -0.09)"/></svg>