<svg id="Capa_1" data-name="Capa 1" xmlns="http://www.w3.org/2000/svg" viewBox="0 0 1023.56 1023.56"><defs><style>.cls-1{fill:#5a297f;}</style></defs><title>Olympus1-2</title><path class="cls-1" d="M1021,460.2v-.29a507.27,507.27,0,0,0-45.85-165c-.67-1.49-1.27-3.06-2-4.55a6.41,6.41,0,0,1-.52-1.05C889.72,118.33,714.56.44,511.84.44,229.21.44.11,229.57.07,512.22c0,157.45,71.2,298.23,183,392.09V510.94c0-179,145.1-324.1,324.16-324.1,171.11,0,311.28,132.67,323.24,300.77H589.86a90.07,90.07,0,1,0,0,90.06H824.44c-30.75,147-161.08,257.43-317.18,257.43a322.65,322.65,0,0,1-111.77-19.84v195.25c1.64.37,3.28.79,4.94,1.17,5.87,1.3,11.79,2.49,17.73,3.61,3.25.59,6.46,1.18,9.67,1.71,6,1,12,1.8,18.07,2.63,3.21.36,6.42.81,9.67,1.19,6.43.74,12.89,1.26,19.42,1.7,2.87.2,5.71.46,8.55.61,9.41.56,18.81.87,28.3.87,282.66,0,511.78-229.16,511.78-511.78A516.47,516.47,0,0,0,1021,460.2Z" transform="translate(-0.07 -0.44)"/></svg>