<svg id="Capa_1" data-name="Capa 1" xmlns="http://www.w3.org/2000/svg" viewBox="0 0 1023.86 111.41"><defs><style>.cls-1{fill:#c4c4c3;}.cls-2{fill:#5a297f;}.cls-3{fill:#aeaeae;}</style></defs><title>Olympus1-3</title><path class="cls-1" d="M442.44,84.59V38.73h1L474,73.89V38.73h4.52V84.59h-1L447.17,49.86V84.59Z" transform="translate(-0.14 -0.07)"/><path class="cls-1" d="M505,49.8a16.8,16.8,0,0,1,13,5.67,18.21,18.21,0,0,1-.26,24.68,17.93,17.93,0,0,1-25.49,0A18.19,18.19,0,0,1,492,55.5,16.82,16.82,0,0,1,505,49.8Zm0,4.27a12.57,12.57,0,0,0-9.35,4,13.44,13.44,0,0,0-3.91,9.73,13.79,13.79,0,0,0,1.78,6.86,12.64,12.64,0,0,0,4.82,4.91,13.7,13.7,0,0,0,13.33,0,12.64,12.64,0,0,0,4.82-4.91,13.9,13.9,0,0,0,1.78-6.86,13.42,13.42,0,0,0-3.93-9.73A12.61,12.61,0,0,0,505,54.07Z" transform="translate(-0.14 -0.07)"/><path class="cls-1" d="M564.59,37.58v47h-4.3V78.76a18.58,18.58,0,0,1-6.16,5,17.19,17.19,0,0,1-19.77-3.53,17.52,17.52,0,0,1-5.09-12.71A17.2,17.2,0,0,1,534.41,55a16.82,16.82,0,0,1,12.38-5.2,16,16,0,0,1,7.56,1.78,17.25,17.25,0,0,1,5.94,5.33V37.58ZM547.15,54a13.17,13.17,0,0,0-11.64,6.82,13.74,13.74,0,0,0,0,13.7,13.29,13.29,0,0,0,4.94,5.09,12.82,12.82,0,0,0,6.64,1.82,13.67,13.67,0,0,0,6.79-1.8,12.69,12.69,0,0,0,4.94-4.89,14,14,0,0,0,1.73-6.94A13.5,13.5,0,0,0,556.69,58,12.86,12.86,0,0,0,547.15,54Z" transform="translate(-0.14 -0.07)"/><path class="cls-1" d="M603,73.34l3.68,1.93A20,20,0,0,1,602.53,81a16.68,16.68,0,0,1-5.34,3.32,18.55,18.55,0,0,1-6.71,1.14q-8.29,0-13-5.44a18.37,18.37,0,0,1-4.68-12.3,18.1,18.1,0,0,1,4-11.51,16.18,16.18,0,0,1,13.44-6.42,16.72,16.72,0,0,1,13.86,6.58A18.45,18.45,0,0,1,607.84,68H577.31a13.74,13.74,0,0,0,3.78,9.68,12,12,0,0,0,9,3.78,14.48,14.48,0,0,0,5-.9,13.13,13.13,0,0,0,4.17-2.39A20.22,20.22,0,0,0,603,73.34Zm0-9.14a14.59,14.59,0,0,0-2.54-5.58,12,12,0,0,0-4.42-3.36A13.42,13.42,0,0,0,590.3,54a12.47,12.47,0,0,0-8.59,3.21,14.48,14.48,0,0,0-4,7Z" transform="translate(-0.14 -0.07)"/><path class="cls-1" d="M633,54.38l-2.81,2.9c-2.33-2.26-4.62-3.4-6.85-3.4a5.17,5.17,0,0,0-3.64,1.41,4.31,4.31,0,0,0-1.51,3.27,4.83,4.83,0,0,0,1.25,3.15,17.47,17.47,0,0,0,5.24,3.58q4.88,2.53,6.63,4.87a8.91,8.91,0,0,1,1.72,5.33,9.57,9.57,0,0,1-2.94,7.08,10,10,0,0,1-7.33,2.9,12.87,12.87,0,0,1-5.61-1.28,12.25,12.25,0,0,1-4.42-3.52l2.74-3.12q3.35,3.77,7.1,3.77a6.4,6.4,0,0,0,4.47-1.68,5.2,5.2,0,0,0,1.84-4,5,5,0,0,0-1.22-3.34c-.81-1-2.64-2.16-5.5-3.62-3.06-1.58-5.14-3.13-6.25-4.67a8.85,8.85,0,0,1-1.65-5.27,8.55,8.55,0,0,1,2.64-6.42,9.17,9.17,0,0,1,6.66-2.56Q628.29,49.8,633,54.38Z" transform="translate(-0.14 -0.07)"/><path class="cls-1" d="M656.78,50.67h4.46v5a15.69,15.69,0,0,1,4.21-4.38,8.3,8.3,0,0,1,4.62-1.45A7.93,7.93,0,0,1,673.93,51l-2.27,3.68a6.21,6.21,0,0,0-2.31-.59,6.32,6.32,0,0,0-4.21,1.79,11.39,11.39,0,0,0-3.09,5.57q-.81,2.9-.81,11.72V84.59h-4.46Z" transform="translate(-0.14 -0.07)"/><path class="cls-1" d="M706.2,73.34l3.68,1.93A20.23,20.23,0,0,1,705.7,81a16.68,16.68,0,0,1-5.34,3.32,18.55,18.55,0,0,1-6.71,1.14q-8.29,0-13-5.44A18.37,18.37,0,0,1,676,67.73a18.15,18.15,0,0,1,4-11.51A16.22,16.22,0,0,1,693.4,49.8a16.73,16.73,0,0,1,13.86,6.58A18.38,18.38,0,0,1,711,68H680.48a13.74,13.74,0,0,0,3.78,9.68,12,12,0,0,0,9,3.78,14.52,14.52,0,0,0,5-.9,13.24,13.24,0,0,0,4.17-2.39A20.22,20.22,0,0,0,706.2,73.34Zm0-9.14a14.59,14.59,0,0,0-2.54-5.58,12.1,12.1,0,0,0-4.42-3.36A13.43,13.43,0,0,0,693.46,54a12.42,12.42,0,0,0-8.58,3.21,14.48,14.48,0,0,0-4,7Z" transform="translate(-0.14 -0.07)"/><path class="cls-1" d="M720.65,36.7a3.61,3.61,0,0,1,0,7.21,3.62,3.62,0,0,1-3.57-3.59,3.48,3.48,0,0,1,1.06-2.56A3.44,3.44,0,0,1,720.65,36.7Zm-2.16,14h4.36V84.59h-4.36Z" transform="translate(-0.14 -0.07)"/><path class="cls-1" d="M731.89,50.67h4.37v5.86a17,17,0,0,1,4.68-4.74,13.26,13.26,0,0,1,7-2,11.51,11.51,0,0,1,4.68,1,9.93,9.93,0,0,1,3.62,2.57,13.75,13.75,0,0,1,2.44,4.6,16.15,16.15,0,0,1,5.44-6.07,12.9,12.9,0,0,1,7-2.07,10.94,10.94,0,0,1,6.2,1.78,10.52,10.52,0,0,1,4,5q1.31,3.18,1.31,9.54V84.59h-4.46V66.07q0-5.44-.78-7.49a6.73,6.73,0,0,0-2.65-3.29A7.88,7.88,0,0,0,770.24,54a9.74,9.74,0,0,0-5.8,1.87,10.8,10.8,0,0,0-3.84,5c-.8,2.08-1.21,5.55-1.21,10.41V84.59H755V67.23q0-6.15-.77-8.34a6.94,6.94,0,0,0-2.67-3.52A7.63,7.63,0,0,0,747.08,54a9.77,9.77,0,0,0-5.66,1.82,10.83,10.83,0,0,0-3.9,4.91q-1.26,3.09-1.26,9.45V84.59h-4.37Z" transform="translate(-0.14 -0.07)"/><path class="cls-1" d="M825.61,50.67V84.59h-4.3V78.76a18.58,18.58,0,0,1-6.16,5,17.17,17.17,0,0,1-19.76-3.53,17.53,17.53,0,0,1-5.1-12.71A17.2,17.2,0,0,1,795.43,55a16.82,16.82,0,0,1,12.38-5.2,15.91,15.91,0,0,1,7.56,1.78,17.07,17.07,0,0,1,5.94,5.33V50.67ZM808.17,54a13.14,13.14,0,0,0-11.63,6.82,13.77,13.77,0,0,0,0,13.7,13.36,13.36,0,0,0,4.94,5.09,12.83,12.83,0,0,0,6.65,1.82,13.67,13.67,0,0,0,6.79-1.8,12.67,12.67,0,0,0,4.93-4.89,14,14,0,0,0,1.73-6.94A13.5,13.5,0,0,0,817.71,58,12.84,12.84,0,0,0,808.17,54Z" transform="translate(-0.14 -0.07)"/><path class="cls-1" d="M864.68,50.67H869v27q0,7.14-1.24,10.45a13.58,13.58,0,0,1-6,7.2,19.6,19.6,0,0,1-10.19,2.53,23.47,23.47,0,0,1-7.85-1.24,15.7,15.7,0,0,1-5.65-3.31,19.78,19.78,0,0,1-4-6.09h4.74a12.49,12.49,0,0,0,5,5,16.07,16.07,0,0,0,7.58,1.62A15.65,15.65,0,0,0,859,92.19,10.24,10.24,0,0,0,863.37,88q1.3-2.52,1.31-8.12V78.14a16.46,16.46,0,0,1-6,4.78,17.89,17.89,0,0,1-16.36-.65A16.57,16.57,0,0,1,835.93,76a17.64,17.64,0,0,1,15.3-26.22,16.25,16.25,0,0,1,7.1,1.57,19.66,19.66,0,0,1,6.35,5.19ZM851.8,54a13.86,13.86,0,0,0-6.89,1.79,13.06,13.06,0,0,0-5,5,13.61,13.61,0,0,0-1.8,6.84,12.32,12.32,0,0,0,3.74,9.23,14.72,14.72,0,0,0,19.37,0,12.74,12.74,0,0,0,3.67-9.51,13.79,13.79,0,0,0-1.69-6.84,12.26,12.26,0,0,0-4.77-4.76A13.28,13.28,0,0,0,851.8,54Z" transform="translate(-0.14 -0.07)"/><path class="cls-1" d="M879.91,36.7a3.6,3.6,0,0,1,3.6,3.62,3.48,3.48,0,0,1-1,2.53,3.51,3.51,0,0,1-2.55,1.06,3.62,3.62,0,0,1-3.57-3.59,3.48,3.48,0,0,1,1.06-2.56A3.44,3.44,0,0,1,879.91,36.7Zm-2.17,14h4.37V84.59h-4.37Z" transform="translate(-0.14 -0.07)"/><path class="cls-1" d="M891.18,50.67h4.37v6.08a18.31,18.31,0,0,1,5.79-5.22,14.33,14.33,0,0,1,6.93-1.73A12,12,0,0,1,915,51.73a11.6,11.6,0,0,1,4.35,5.21q1.39,3.27,1.4,10.2V84.59H916.4V68.41a40.25,40.25,0,0,0-.48-7.82A8.62,8.62,0,0,0,913,55.52a8.82,8.82,0,0,0-5.61-1.7,10.76,10.76,0,0,0-7.1,2.62,12.31,12.31,0,0,0-4.13,6.49,44.8,44.8,0,0,0-.62,9.22V84.59h-4.37Z" transform="translate(-0.14 -0.07)"/><path class="cls-1" d="M958.68,73.34l3.68,1.93A20,20,0,0,1,958.18,81a16.68,16.68,0,0,1-5.34,3.32,18.55,18.55,0,0,1-6.71,1.14q-8.29,0-13-5.44a18.37,18.37,0,0,1-4.68-12.3,18.15,18.15,0,0,1,4-11.51,16.22,16.22,0,0,1,13.45-6.42,16.72,16.72,0,0,1,13.86,6.58A18.38,18.38,0,0,1,963.48,68H933a13.74,13.74,0,0,0,3.78,9.68,12,12,0,0,0,9,3.78,14.48,14.48,0,0,0,5-.9A13.24,13.24,0,0,0,955,78.15,20.22,20.22,0,0,0,958.68,73.34Zm0-9.14a14.59,14.59,0,0,0-2.54-5.58,12.1,12.1,0,0,0-4.42-3.36A13.42,13.42,0,0,0,946,54a12.47,12.47,0,0,0-8.59,3.21,14.48,14.48,0,0,0-4,7Z" transform="translate(-0.14 -0.07)"/><path class="cls-1" d="M1005.48,37.58v47h-4.3V78.76a18.58,18.58,0,0,1-6.16,5,17.19,17.19,0,0,1-19.77-3.53,17.52,17.52,0,0,1-5.09-12.71A17.2,17.2,0,0,1,975.3,55a16.82,16.82,0,0,1,12.38-5.2,16,16,0,0,1,7.56,1.78,17.25,17.25,0,0,1,5.94,5.33V37.58ZM988,54a13.17,13.17,0,0,0-11.64,6.82,13.74,13.74,0,0,0,0,13.7,13.29,13.29,0,0,0,4.94,5.09A12.82,12.82,0,0,0,988,81.44a13.67,13.67,0,0,0,6.79-1.8,12.69,12.69,0,0,0,4.94-4.89,14,14,0,0,0,1.73-6.94A13.5,13.5,0,0,0,997.58,58,12.86,12.86,0,0,0,988,54Z" transform="translate(-0.14 -0.07)"/><path class="cls-1" d="M1020.17,77.74A3.82,3.82,0,0,1,1024,81.6a3.74,3.74,0,0,1-1.12,2.73,3.8,3.8,0,0,1-5.43,0,3.78,3.78,0,0,1-1.12-2.73,3.82,3.82,0,0,1,3.84-3.86Z" transform="translate(-0.14 -0.07)"/><path class="cls-2" d="M111.27,50.12v0a55.33,55.33,0,0,0-5-18c-.08-.16-.14-.33-.22-.5l-.06-.11A55.71,55.71,0,1,0,20.06,98.45V55.64A35.28,35.28,0,0,1,90.53,53.1H64.34a9.8,9.8,0,1,0,0,9.8H89.87A35.29,35.29,0,0,1,43.18,88.76V110l.54.13,1.93.4,1.05.18c.65.11,1.31.2,2,.29l1,.12c.7.09,1.41.14,2.12.19l.93.07c1,.06,2,.09,3.08.09a55.7,55.7,0,0,0,55.7-55.7C111.55,53.86,111.45,52,111.27,50.12Z" transform="translate(-0.14 -0.07)"/><path class="cls-3" d="M126.64,87V24.43h10.49V87Z" transform="translate(-0.14 -0.07)"/><path class="cls-3" d="M179.8,80.68h-.18a14,14,0,0,1-5.2,5.11,15,15,0,0,1-7.58,1.85,21.35,21.35,0,0,1-7.32-1.27,17.5,17.5,0,0,1-6.26-3.93,18.77,18.77,0,0,1-4.36-6.83,27.51,27.51,0,0,1-1.64-10V43.47h10.5V65.6q0,6.27,3,9.26a10.86,10.86,0,0,0,8,3,10.73,10.73,0,0,0,7.93-3.09q3.09-3.09,3.09-9.17V43.47h10.49V85.53a25.18,25.18,0,0,1-1.68,9.74,17.38,17.38,0,0,1-4.62,6.57,18.8,18.8,0,0,1-6.92,3.75,29.49,29.49,0,0,1-8.47,1.19,28.76,28.76,0,0,1-7.18-.88,20.07,20.07,0,0,1-6.18-2.74,17.9,17.9,0,0,1-4.76-4.67,18.59,18.59,0,0,1-2.86-6.7h10.49q2.55,5.91,10.49,5.91,5.39,0,8.29-2.78t2.91-9.13Z" transform="translate(-0.14 -0.07)"/><path class="cls-3" d="M228.47,87V62.16q0-5.28-2.51-7.67a9.67,9.67,0,0,0-12.66,0c-1.64,1.56-2.47,4.13-2.47,7.71V87H200.34V62.16a25.15,25.15,0,0,1,1.41-8.86,17.06,17.06,0,0,1,3.84-6.17,15.27,15.27,0,0,1,5.77-3.61,21.34,21.34,0,0,1,7.23-1.19,18.89,18.89,0,0,1,8.78,2A16,16,0,0,1,233.58,50h.18a15.33,15.33,0,0,1,6.13-5.69,19,19,0,0,1,8.86-2A21.34,21.34,0,0,1,256,43.52a15.35,15.35,0,0,1,5.77,3.61,17.06,17.06,0,0,1,3.84,6.17A25.15,25.15,0,0,1,267,62.16V87H256.5V62.16q0-5.37-2.46-7.71a8.87,8.87,0,0,0-6.35-2.34,8.63,8.63,0,0,0-6.26,2.38Q239,56.88,239,62.16V87Z" transform="translate(-0.14 -0.07)"/><path class="cls-3" d="M275.64,65.6A25.36,25.36,0,0,1,277.36,56a21.42,21.42,0,0,1,4.76-7.32A21.13,21.13,0,0,1,289.44,44a25.7,25.7,0,0,1,9.47-1.67A25.44,25.44,0,0,1,308.35,44a22.56,22.56,0,0,1,7.45,4.77,21.13,21.13,0,0,1,4.85,7.27,24.06,24.06,0,0,1,1.72,9.17,24.83,24.83,0,0,1-1.9,10.1,21.71,21.71,0,0,1-4.94,7.14,19.8,19.8,0,0,1-6.92,4.27,22.59,22.59,0,0,1-7.76,1.41,18.54,18.54,0,0,1-8.68-1.94,14.74,14.74,0,0,1-5.86-5.29h-.18v24.69H275.64Zm23.27-13.49a12.23,12.23,0,0,0-9.3,3.66,13.19,13.19,0,0,0-3.48,9.48,13.19,13.19,0,0,0,3.48,9.48,12.23,12.23,0,0,0,9.3,3.66,12.39,12.39,0,0,0,9.35-3.66,13.1,13.1,0,0,0,3.53-9.48,13.1,13.1,0,0,0-3.53-9.48A12.39,12.39,0,0,0,298.91,52.11Z" transform="translate(-0.14 -0.07)"/><path class="cls-3" d="M361.78,43.47h10.49V66.13a27.06,27.06,0,0,1-1.54,9.57,18.79,18.79,0,0,1-4.37,6.87,18.09,18.09,0,0,1-6.79,4.19,26.14,26.14,0,0,1-8.81,1.41,26.94,26.94,0,0,1-8.82-1.36,17.71,17.71,0,0,1-6.79-4.15,18.52,18.52,0,0,1-4.36-6.92,27.4,27.4,0,0,1-1.55-9.61V43.47h10.5V66.13q0,6.25,3,9.26a12.23,12.23,0,0,0,16,0q3-3,3-9.26Z" transform="translate(-0.14 -0.07)"/><path class="cls-3" d="M404.45,56a4.28,4.28,0,0,0-1.94-3.26,8.34,8.34,0,0,0-4.85-1.24,8.2,8.2,0,0,0-5.24,1.41,4.48,4.48,0,0,0-1.72,3.62,2.76,2.76,0,0,0,1.85,2.73,19.92,19.92,0,0,0,4.67,1.24c1.88.29,3.89.59,6,.88a21,21,0,0,1,6,1.76,12.18,12.18,0,0,1,4.67,3.8q1.86,2.46,1.86,7a12.87,12.87,0,0,1-4.94,10.27,17.61,17.61,0,0,1-5.78,3,25.4,25.4,0,0,1-7.54,1,25,25,0,0,1-7.49-1,18.39,18.39,0,0,1-5.73-2.91,13.31,13.31,0,0,1-3.7-4.41,12.73,12.73,0,0,1-1.41-5.65h10.57a4.34,4.34,0,0,0,2,3.53A9.79,9.79,0,0,0,397.4,79q4.23,0,6-1.41a4.48,4.48,0,0,0,1.81-3.7,2.7,2.7,0,0,0-1.86-2.69,20.27,20.27,0,0,0-4.67-1.15l-6-.83a22,22,0,0,1-6-1.72A11.51,11.51,0,0,1,382,63.66c-1.24-1.7-1.85-4.08-1.85-7.14a13.16,13.16,0,0,1,1.23-5.69,13.31,13.31,0,0,1,3.48-4.49,16.21,16.21,0,0,1,5.47-3,23.11,23.11,0,0,1,7.19-1.05,22.7,22.7,0,0,1,7.14,1.05,17,17,0,0,1,5.42,2.91,13.29,13.29,0,0,1,3.48,4.32A12.53,12.53,0,0,1,414.85,56Z" transform="translate(-0.14 -0.07)"/></svg>