<svg id="Capa_1" data-name="Capa 1" xmlns="http://www.w3.org/2000/svg" viewBox="0 0 1023.72 274.38"><defs><style>.cls-1{fill:#5a297f;}.cls-2{fill:#aeaeae;}</style></defs><title>Olympus1-1</title><path class="cls-1" d="M274,123.09V123a136,136,0,0,0-12.29-44.24c-.18-.4-.34-.82-.54-1.22a2.44,2.44,0,0,1-.14-.28A137.19,137.19,0,1,0,49.34,242.14V136.69a86.89,86.89,0,0,1,173.55-6.25H158.38a24.14,24.14,0,1,0,0,24.14h62.88a86.9,86.9,0,0,1-115,63.69v52.34l1.32.31c1.57.35,3.16.67,4.75,1,.87.16,1.73.32,2.59.46,1.61.26,3.23.48,4.85.7l2.59.32c1.72.2,3.45.34,5.21.46.76.05,1.53.12,2.29.16,2.52.15,5,.24,7.58.24A137.19,137.19,0,0,0,274.65,137,139.65,139.65,0,0,0,274,123.09Z" transform="translate(-0.28 0.15)"/><path class="cls-2" d="M311.79,214V59.83h25.84V214Z" transform="translate(-0.28 0.15)"/><path class="cls-2" d="M442.72,198.37h-.43A34.61,34.61,0,0,1,429.48,211a37.22,37.22,0,0,1-18.68,4.56,52.46,52.46,0,0,1-18-3.15,43.12,43.12,0,0,1-15.42-9.66,46.41,46.41,0,0,1-10.75-16.83q-4-10.31-4-24.65v-54.5h25.84v54.5q0,15.42,7.38,22.8t19.76,7.39q11.94,0,19.54-7.6t7.6-22.59v-54.5h25.84V210.31q0,14.12-4.13,24A42.85,42.85,0,0,1,453,250.48,46,46,0,0,1,436,259.71a72.29,72.29,0,0,1-20.84,2.93,70.47,70.47,0,0,1-17.7-2.17,49.68,49.68,0,0,1-15.2-6.73,44.39,44.39,0,0,1-11.73-11.51,46.13,46.13,0,0,1-7-16.51h25.84q6.29,14.55,25.84,14.55,13.23,0,20.41-6.84T442.72,211Z" transform="translate(-0.28 0.15)"/><path class="cls-2" d="M562.58,214V152.77q0-13-6.19-18.9A21.66,21.66,0,0,0,540.87,128q-9.55,0-15.64,5.75t-6.08,19V214H493.31V152.77q0-12.6,3.48-21.83a42,42,0,0,1,9.45-15.2,37.56,37.56,0,0,1,14.22-8.9,52.88,52.88,0,0,1,17.8-2.93,46.34,46.34,0,0,1,21.61,4.89,39.45,39.45,0,0,1,15.31,14h.43a37.92,37.92,0,0,1,15.09-14,46.81,46.81,0,0,1,21.82-4.89,52.94,52.94,0,0,1,17.81,2.93,37.71,37.71,0,0,1,14.22,8.9,42.28,42.28,0,0,1,9.45,15.2,62.11,62.11,0,0,1,3.47,21.83V214H631.63V152.77q0-13.25-6.08-19T609.92,128q-9.34,0-15.42,5.86t-6.08,18.9V214Z" transform="translate(-0.28 0.15)"/><path class="cls-2" d="M678.75,161.23A62.77,62.77,0,0,1,683,137.67a53.3,53.3,0,0,1,11.73-18,52.07,52.07,0,0,1,18-11.62,63.71,63.71,0,0,1,23.35-4.12,62.36,62.36,0,0,1,23.23,4.23,55.61,55.61,0,0,1,18.35,11.73,51.88,51.88,0,0,1,11.94,17.91,59.52,59.52,0,0,1,4.24,22.59q0,14.32-4.68,24.86A53.64,53.64,0,0,1,777,202.82a49,49,0,0,1-17,10.53,55.74,55.74,0,0,1-19.11,3.47,46,46,0,0,1-21.39-4.77A36.64,36.64,0,0,1,705,199h-.43v60.8H678.75ZM736.08,128q-14.34,0-22.91,9t-8.58,23.35q0,14.32,8.58,23.34t22.91,9q14.32,0,23-9t8.69-23.34q0-14.34-8.69-23.35T736.08,128Z" transform="translate(-0.28 0.15)"/><path class="cls-2" d="M890.89,106.73h25.84v55.81q0,13.46-3.8,23.56A46.08,46.08,0,0,1,902.19,203a45,45,0,0,1-16.72,10.32,64.68,64.68,0,0,1-21.72,3.47A66.15,66.15,0,0,1,842,213.45a43.67,43.67,0,0,1-16.72-10.2,45.93,45.93,0,0,1-10.75-17,67.78,67.78,0,0,1-3.8-23.67V106.73h25.84v55.81q0,15.42,7.38,22.8t19.76,7.38q12.38,0,19.76-7.38t7.38-22.8Z" transform="translate(-0.28 0.15)"/><path class="cls-2" d="M996,137.56a10.57,10.57,0,0,0-4.78-8q-4.34-3-11.94-3-8.68,0-12.92,3.47a11,11,0,0,0-4.23,8.91,6.82,6.82,0,0,0,4.56,6.73,48.54,48.54,0,0,0,11.51,3q6.93,1.1,14.87,2.17a51.41,51.41,0,0,1,14.87,4.34,30.21,30.21,0,0,1,11.51,9.34q4.56,6.09,4.56,17.15a31.69,31.69,0,0,1-12.16,25.3,43.16,43.16,0,0,1-14.22,7.28,62.43,62.43,0,0,1-18.57,2.6,61.33,61.33,0,0,1-18.45-2.6,44.67,44.67,0,0,1-14.12-7.17,32.64,32.64,0,0,1-9.12-10.86,31.7,31.7,0,0,1-3.47-13.89h26.05a10.67,10.67,0,0,0,4.89,8.68q4.67,3.26,13.79,3.26,10.43,0,14.87-3.47a11,11,0,0,0,4.46-9.13,6.64,6.64,0,0,0-4.57-6.62,49.27,49.27,0,0,0-11.5-2.82q-7-1-14.88-2.06a53.56,53.56,0,0,1-14.87-4.24,28.41,28.41,0,0,1-11.51-9.44q-4.56-6.3-4.56-17.59a32.09,32.09,0,0,1,11.61-25.08,40.16,40.16,0,0,1,13.47-7.28,56.65,56.65,0,0,1,17.7-2.6,55.72,55.72,0,0,1,17.59,2.6,41.35,41.35,0,0,1,13.35,7.17,32.69,32.69,0,0,1,8.58,10.64,31.39,31.39,0,0,1,3.25,13.24Z" transform="translate(-0.28 0.15)"/></svg>