<svg id="svg" xmlns="http://www.w3.org/2000/svg" xmlns:xlink="http://www.w3.org/1999/xlink" width="400" height="38.54055968827488" viewBox="0, 0, 400,38.54055968827488"><g id="svgg"><path id="path0" d="M183.417 0.125 C 183.094 0.202,182.188 1.085,182.146 1.363 C 182.113 1.576,182.065 1.727,181.933 2.024 C 181.475 3.056,182.760 4.667,184.043 4.667 C 186.012 4.667,186.944 3.615,186.600 1.780 C 186.485 1.165,185.589 0.092,185.327 0.254 C 185.239 0.309,185.167 0.283,185.167 0.198 C 185.167 0.036,183.995 -0.013,183.417 0.125 M360.117 0.605 C 360.053 0.670,360.000 7.347,360.000 15.444 L 360.000 30.167 361.584 30.167 L 363.168 30.167 363.126 15.375 L 363.083 0.583 361.659 0.536 C 360.875 0.509,360.182 0.541,360.117 0.605 M-0.000 15.664 L 0.000 30.167 8.250 30.167 L 16.500 30.167 16.500 28.667 L 16.500 27.167 9.750 27.167 L 3.000 27.167 3.000 21.667 L 3.000 16.167 9.750 16.167 L 16.500 16.167 16.500 14.667 L 16.500 13.167 9.750 13.167 L 3.000 13.167 3.000 8.750 L 3.000 4.333 9.833 4.333 L 16.667 4.333 16.667 2.756 L 16.667 1.179 8.333 1.170 L -0.000 1.161 -0.000 15.664 M29.233 8.419 C 27.649 8.710,26.326 9.466,24.958 10.866 L 23.833 12.017 23.833 10.335 L 23.833 8.654 22.375 8.702 L 20.917 8.750 20.874 19.458 L 20.831 30.167 22.332 30.167 L 23.833 30.167 23.846 24.792 C 23.853 21.835,23.880 19.304,23.905 19.167 C 23.931 19.029,24.005 18.504,24.071 18.000 C 24.365 15.720,24.960 14.283,26.092 13.119 C 28.395 10.749,32.158 10.512,34.009 12.619 C 35.217 13.994,35.333 14.955,35.333 23.553 L 35.333 30.167 36.833 30.167 L 38.333 30.167 38.338 25.875 C 38.343 21.368,38.405 19.904,38.679 17.811 C 38.771 17.111,38.829 16.473,38.809 16.394 C 38.788 16.315,38.898 15.960,39.052 15.605 C 39.207 15.250,39.333 14.904,39.333 14.837 C 39.333 14.707,40.412 13.246,40.803 12.845 C 41.065 12.577,42.622 11.617,43.077 11.442 C 44.054 11.067,47.159 11.233,47.306 11.669 C 47.336 11.759,47.458 11.833,47.577 11.833 C 47.924 11.833,49.333 13.383,49.333 13.764 C 49.333 13.955,49.386 14.163,49.449 14.227 C 49.700 14.477,49.728 15.171,49.787 22.542 L 49.849 30.167 51.427 30.167 L 53.006 30.167 52.995 23.292 C 52.984 15.887,52.869 14.375,52.205 12.869 C 52.055 12.529,51.920 12.133,51.907 11.990 C 51.875 11.657,50.907 10.315,50.786 10.437 C 50.735 10.487,50.607 10.367,50.502 10.170 C 49.813 8.884,46.566 7.904,44.417 8.333 C 43.867 8.443,43.300 8.548,43.156 8.567 C 42.742 8.620,41.777 9.052,41.453 9.329 C 41.290 9.469,41.118 9.562,41.072 9.536 C 41.026 9.510,40.885 9.585,40.760 9.702 C 40.635 9.820,40.150 10.254,39.683 10.666 C 39.216 11.078,38.833 11.476,38.833 11.550 C 38.833 11.825,37.801 12.751,37.721 12.547 C 37.678 12.436,37.460 12.076,37.238 11.748 C 37.015 11.420,36.833 11.099,36.832 11.034 C 36.827 10.556,34.354 8.764,33.417 8.559 C 31.455 8.130,30.912 8.112,29.233 8.419 M68.000 8.358 C 67.404 8.440,66.804 8.554,66.667 8.612 C 66.529 8.670,66.292 8.741,66.140 8.772 C 65.670 8.865,64.302 9.647,63.620 10.212 C 62.235 11.360,61.847 11.721,61.896 11.817 C 61.924 11.872,61.802 12.055,61.626 12.223 C 61.309 12.525,61.305 12.501,61.360 10.592 L 61.417 8.654 60.000 8.702 L 58.583 8.750 58.541 23.375 L 58.498 38.000 59.957 38.000 L 61.417 38.000 61.369 32.420 C 61.317 26.394,61.312 26.424,62.162 27.566 C 62.525 28.055,63.440 28.793,63.917 28.983 C 64.008 29.020,64.284 29.217,64.530 29.421 C 67.008 31.481,73.404 31.099,76.323 28.717 C 77.198 28.003,78.500 26.689,78.500 26.520 C 78.500 26.437,78.617 26.324,78.761 26.269 C 78.904 26.214,78.974 26.093,78.917 26.001 C 78.860 25.909,78.888 25.833,78.980 25.833 C 79.191 25.833,80.028 24.056,80.432 22.750 C 80.850 21.401,80.918 18.313,80.563 16.831 C 80.421 16.237,80.289 15.675,80.271 15.583 C 79.983 14.163,77.768 11.238,76.342 10.395 C 76.062 10.230,75.833 10.041,75.833 9.976 C 75.833 9.910,75.268 9.585,74.577 9.252 C 72.693 8.346,70.370 8.030,68.000 8.358 M93.631 8.425 C 92.153 8.655,89.572 9.784,89.380 10.284 C 89.335 10.403,89.219 10.500,89.123 10.500 C 88.793 10.500,86.455 13.125,86.509 13.436 C 86.520 13.497,86.466 13.592,86.389 13.648 C 86.032 13.910,85.336 15.368,85.244 16.046 C 85.210 16.300,85.137 16.581,85.082 16.669 C 84.679 17.321,84.663 20.775,85.055 22.455 C 85.370 23.808,87.500 27.851,87.500 27.096 C 87.500 26.908,87.923 27.384,88.047 27.712 C 88.109 27.875,88.290 28.058,88.451 28.120 C 88.611 28.181,88.894 28.390,89.080 28.583 C 90.625 30.195,95.163 31.260,97.917 30.657 C 98.467 30.536,98.954 30.432,99.000 30.424 C 99.046 30.417,99.158 30.365,99.250 30.309 C 99.342 30.252,99.671 30.151,99.982 30.084 C 100.294 30.018,100.916 29.746,101.365 29.481 C 101.814 29.217,102.253 29.000,102.341 29.000 C 102.428 29.000,102.500 28.944,102.500 28.875 C 102.501 28.806,102.731 28.600,103.013 28.417 C 104.173 27.662,105.916 25.098,106.583 23.167 C 106.599 23.121,106.656 22.971,106.710 22.833 C 107.324 21.268,107.147 16.988,106.401 15.383 C 106.179 14.906,105.928 14.332,105.842 14.106 C 105.142 12.264,101.532 9.130,99.667 8.744 C 99.529 8.715,99.417 8.677,99.417 8.658 C 99.417 8.639,99.229 8.601,99.000 8.574 C 98.771 8.546,98.058 8.446,97.417 8.351 C 95.953 8.134,95.439 8.144,93.631 8.425 M153.000 8.414 C 150.260 8.821,146.081 11.789,145.765 13.552 C 145.746 13.661,145.566 14.012,145.366 14.333 C 145.165 14.654,144.992 14.973,144.980 15.042 C 144.946 15.238,144.896 15.397,144.783 15.667 C 144.003 17.532,144.076 23.500,144.879 23.500 C 144.956 23.500,144.973 23.576,144.916 23.668 C 144.858 23.761,145.079 24.277,145.406 24.815 C 145.733 25.353,146.000 25.859,146.001 25.938 C 146.001 26.018,146.258 26.363,146.572 26.704 C 146.885 27.045,147.242 27.467,147.364 27.642 C 147.723 28.155,149.019 29.175,149.182 29.074 C 149.265 29.022,149.333 29.058,149.333 29.153 C 149.333 29.329,150.147 29.808,150.641 29.923 C 150.793 29.958,151.229 30.099,151.610 30.237 C 154.446 31.263,158.500 30.893,161.160 29.366 C 162.160 28.792,163.681 27.491,163.567 27.307 C 163.519 27.230,163.579 27.165,163.698 27.162 C 163.818 27.160,164.179 26.766,164.499 26.287 C 164.820 25.808,165.176 25.318,165.291 25.196 C 165.694 24.772,165.545 24.032,165.000 23.750 C 164.725 23.608,164.500 23.540,164.500 23.599 C 164.500 23.658,164.243 23.510,163.928 23.270 C 163.337 22.819,163.000 22.717,163.000 22.989 C 163.000 23.493,160.541 26.500,160.129 26.500 C 160.054 26.500,159.696 26.688,159.333 26.917 C 158.970 27.146,158.522 27.333,158.337 27.333 C 158.151 27.333,158.000 27.408,158.000 27.500 C 158.000 27.592,157.944 27.652,157.875 27.635 C 157.806 27.617,157.353 27.692,156.867 27.801 C 154.802 28.266,152.191 27.791,150.782 26.695 C 149.940 26.041,148.623 24.590,148.468 24.147 C 148.376 23.883,148.246 23.701,148.178 23.743 C 148.111 23.785,148.056 23.728,148.055 23.618 C 148.055 23.507,147.940 23.154,147.799 22.833 C 147.530 22.220,147.195 20.332,147.300 20.017 C 147.344 19.886,150.103 19.833,156.951 19.833 L 166.542 19.833 166.419 19.292 C 166.351 18.994,166.306 18.563,166.319 18.333 C 166.344 17.863,166.052 16.421,165.828 15.917 C 165.747 15.733,165.602 15.273,165.506 14.894 C 165.410 14.516,165.219 14.113,165.082 13.999 C 164.945 13.885,164.833 13.724,164.833 13.640 C 164.833 13.462,164.250 12.616,163.708 12.008 C 163.502 11.776,163.333 11.530,163.333 11.460 C 163.333 11.390,163.219 11.333,163.080 11.333 C 162.940 11.333,162.747 11.165,162.649 10.958 C 162.477 10.594,161.467 9.833,161.155 9.833 C 161.070 9.833,161.000 9.758,161.000 9.667 C 161.000 9.575,160.917 9.500,160.816 9.500 C 160.715 9.500,160.247 9.307,159.776 9.070 C 159.306 8.834,158.733 8.614,158.502 8.582 C 158.272 8.549,157.558 8.444,156.917 8.348 C 155.482 8.133,154.812 8.144,153.000 8.414 M177.243 8.390 C 176.190 8.657,174.982 9.458,173.966 10.564 L 173.181 11.417 173.174 10.042 L 173.167 8.667 171.667 8.667 L 170.167 8.667 170.167 19.417 L 170.167 30.167 171.646 30.167 L 173.126 30.167 173.212 23.958 C 173.259 20.544,173.342 17.563,173.396 17.333 C 173.450 17.104,173.534 16.729,173.583 16.500 C 173.739 15.769,173.831 15.343,173.911 14.979 C 173.954 14.785,174.107 14.445,174.251 14.225 C 174.396 14.004,174.477 13.765,174.433 13.692 C 174.388 13.620,174.497 13.455,174.676 13.327 C 174.854 13.198,175.003 13.016,175.008 12.922 C 175.012 12.827,175.311 12.525,175.673 12.250 C 176.035 11.975,176.488 11.623,176.680 11.467 C 176.965 11.238,177.286 11.198,178.402 11.257 C 179.940 11.338,179.919 11.352,180.839 9.699 C 181.287 8.894,181.243 8.814,180.167 8.495 C 179.186 8.204,178.125 8.166,177.243 8.390 M200.583 8.360 C 200.125 8.444,199.583 8.520,199.378 8.527 C 199.173 8.535,199.050 8.612,199.103 8.699 C 199.156 8.785,199.099 8.842,198.975 8.825 C 198.520 8.762,198.316 8.838,198.433 9.026 C 198.498 9.132,198.482 9.175,198.398 9.123 C 198.313 9.071,197.945 9.169,197.580 9.342 C 197.215 9.514,196.990 9.658,197.081 9.661 C 197.171 9.664,197.002 9.798,196.706 9.958 C 196.410 10.119,195.717 10.693,195.167 11.234 L 194.167 12.217 194.167 10.442 L 194.167 8.667 192.671 8.667 L 191.176 8.667 191.169 19.417 L 191.162 30.167 192.640 30.167 L 194.118 30.167 194.215 24.208 C 194.269 20.931,194.353 18.063,194.403 17.833 C 194.453 17.604,194.545 17.192,194.607 16.917 C 194.669 16.642,194.730 16.302,194.743 16.162 C 194.770 15.865,195.824 13.964,196.046 13.814 C 196.129 13.758,196.284 13.539,196.390 13.327 C 196.569 12.971,197.020 12.630,197.958 12.142 C 198.165 12.034,198.333 11.894,198.333 11.829 C 198.333 10.954,203.590 10.878,204.490 11.740 C 204.735 11.975,204.992 12.167,205.063 12.167 C 205.228 12.167,205.569 12.514,205.719 12.833 C 205.784 12.971,205.988 13.334,206.174 13.641 C 206.936 14.900,207.028 15.837,207.120 23.208 L 207.206 30.167 208.609 30.167 L 210.013 30.167 209.992 22.833 C 209.980 18.800,209.921 15.500,209.861 15.500 C 209.800 15.500,209.739 15.256,209.726 14.958 C 209.673 13.798,208.980 11.982,208.294 11.210 C 207.346 10.143,206.667 9.457,206.667 9.565 C 206.667 9.630,206.416 9.492,206.109 9.258 C 205.803 9.025,205.440 8.833,205.304 8.833 C 205.167 8.833,205.003 8.781,204.940 8.717 C 204.810 8.588,204.810 8.588,203.417 8.344 C 202.267 8.142,201.746 8.145,200.583 8.360 M223.583 8.420 C 222.850 8.539,222.025 8.750,221.750 8.891 C 221.475 9.031,220.894 9.298,220.458 9.484 C 220.023 9.670,219.667 9.894,219.667 9.983 C 219.667 10.072,219.501 10.197,219.298 10.261 C 218.972 10.365,218.442 10.790,217.794 11.470 C 217.678 11.592,217.396 11.880,217.167 12.111 C 216.938 12.343,216.750 12.594,216.750 12.669 C 216.750 12.745,216.573 13.010,216.358 13.258 C 215.942 13.736,215.419 14.833,215.607 14.833 C 215.668 14.833,215.603 14.965,215.462 15.125 C 215.233 15.387,215.086 15.725,214.866 16.500 C 214.143 19.050,215.077 24.307,216.476 25.564 C 216.668 25.737,216.794 25.928,216.756 25.990 C 216.659 26.148,218.601 28.010,218.729 27.882 C 218.786 27.825,218.833 27.865,218.833 27.972 C 218.833 28.079,218.942 28.167,219.075 28.167 C 219.208 28.167,219.377 28.268,219.450 28.392 C 219.612 28.667,220.332 29.064,220.336 28.881 C 220.337 28.809,220.394 28.828,220.461 28.924 C 220.837 29.461,222.720 30.001,224.552 30.100 C 228.620 30.318,231.104 29.444,233.537 26.941 L 234.000 26.465 233.995 27.191 C 233.981 29.056,233.542 31.504,233.103 32.168 C 232.863 32.530,232.667 32.868,232.667 32.918 C 232.667 33.123,230.334 35.005,230.049 35.031 C 229.872 35.046,229.545 35.151,228.761 35.444 C 226.725 36.203,221.855 35.505,220.348 34.237 C 220.084 34.015,219.786 33.833,219.684 33.833 C 219.583 33.833,219.500 33.764,219.500 33.679 C 219.500 33.595,219.294 33.314,219.042 33.054 C 218.790 32.795,218.477 32.377,218.347 32.125 C 218.028 31.508,214.798 31.385,214.916 31.994 C 215.006 32.465,216.318 34.667,216.507 34.667 C 216.595 34.667,216.667 34.768,216.667 34.892 C 216.667 35.167,218.144 36.500,218.448 36.500 C 218.568 36.500,218.667 36.556,218.668 36.625 C 218.668 36.694,218.912 36.890,219.209 37.060 C 222.640 39.031,229.771 38.946,232.449 36.903 C 232.748 36.675,233.035 36.496,233.088 36.504 C 233.210 36.524,234.353 35.525,234.294 35.450 C 234.270 35.420,234.447 35.212,234.688 34.989 C 235.208 34.507,236.191 32.757,236.272 32.167 C 236.304 31.938,236.455 31.300,236.607 30.750 C 236.846 29.882,236.892 28.366,236.952 19.230 L 237.022 8.711 235.511 8.680 L 234.000 8.650 234.000 10.435 L 234.000 12.221 233.175 11.375 C 232.722 10.909,232.197 10.479,232.009 10.419 C 231.821 10.360,231.667 10.213,231.667 10.094 C 231.667 9.932,229.850 8.953,229.167 8.746 C 229.121 8.733,228.971 8.677,228.833 8.624 C 227.762 8.206,225.462 8.117,223.583 8.420 M263.973 8.250 C 263.927 8.295,263.446 8.379,262.903 8.435 C 260.993 8.633,258.409 10.163,257.035 11.910 L 256.667 12.378 256.667 10.522 L 256.667 8.667 255.167 8.667 L 253.667 8.667 253.667 23.333 L 253.667 38.000 255.164 38.000 L 256.662 38.000 256.706 32.480 L 256.750 26.959 257.799 27.980 C 258.376 28.541,258.931 29.000,259.033 29.000 C 259.135 29.000,259.459 29.183,259.752 29.407 C 261.969 31.098,268.459 31.161,270.295 29.509 C 270.454 29.367,270.804 29.137,271.074 29.000 C 271.739 28.661,274.038 26.363,273.913 26.161 C 273.859 26.073,273.886 26.000,273.974 26.000 C 274.231 26.000,275.167 24.481,275.167 24.065 C 275.167 23.857,275.233 23.645,275.314 23.595 C 275.538 23.457,276.058 21.391,275.944 21.094 C 275.889 20.951,275.910 20.833,275.991 20.833 C 276.431 20.833,276.039 16.909,275.484 15.761 C 275.309 15.400,275.167 14.974,275.167 14.814 C 275.167 14.654,275.073 14.424,274.958 14.301 C 274.844 14.178,274.608 13.800,274.435 13.461 C 274.159 12.921,272.238 10.831,271.427 10.189 C 271.012 9.860,269.000 8.828,269.000 8.943 C 269.000 8.997,268.891 8.950,268.758 8.840 C 268.625 8.729,268.344 8.615,268.133 8.586 C 267.922 8.557,267.225 8.452,266.583 8.353 C 265.341 8.162,264.109 8.113,263.973 8.250 M289.083 8.357 C 287.349 8.577,284.825 9.609,284.636 10.176 C 284.604 10.273,284.466 10.369,284.330 10.391 C 283.880 10.463,282.190 12.330,281.616 13.391 C 281.415 13.763,281.156 14.170,281.042 14.296 C 280.927 14.421,280.833 14.672,280.833 14.854 C 280.833 15.035,280.715 15.412,280.571 15.691 C 280.426 15.971,280.260 16.361,280.200 16.558 C 280.060 17.027,280.061 21.985,280.201 22.417 C 280.858 24.434,281.427 25.667,281.703 25.667 C 281.775 25.667,281.833 25.764,281.833 25.883 C 281.833 26.404,283.670 28.304,285.076 29.238 C 286.686 30.306,291.562 31.263,292.782 30.750 C 292.948 30.680,293.285 30.596,293.532 30.564 C 293.779 30.531,294.304 30.392,294.699 30.255 C 295.094 30.117,295.542 30.004,295.694 30.002 C 295.847 30.001,295.997 29.944,296.028 29.875 C 296.058 29.806,296.458 29.568,296.917 29.345 C 298.083 28.777,300.314 26.487,300.961 25.193 C 301.434 24.246,301.439 23.812,300.974 24.099 C 300.855 24.173,300.827 24.145,300.901 24.026 C 300.971 23.912,300.914 23.833,300.760 23.833 C 300.617 23.833,300.500 23.758,300.500 23.667 C 300.500 23.575,300.386 23.500,300.248 23.500 C 299.964 23.500,299.321 23.170,299.112 22.917 C 299.023 22.809,298.944 22.825,298.889 22.961 C 298.842 23.078,298.701 23.275,298.576 23.400 C 298.451 23.525,298.394 23.672,298.448 23.726 C 298.503 23.781,298.424 23.873,298.274 23.931 C 298.123 23.988,297.998 24.121,297.995 24.226 C 297.989 24.465,296.259 26.333,296.044 26.333 C 295.956 26.333,295.760 26.472,295.607 26.641 C 295.454 26.810,295.011 27.048,294.623 27.171 C 294.234 27.293,293.823 27.464,293.708 27.550 C 293.594 27.637,293.500 27.668,293.500 27.620 C 293.500 27.572,293.151 27.638,292.724 27.766 C 291.061 28.267,288.225 27.840,286.888 26.889 C 286.651 26.721,286.293 26.471,286.091 26.333 C 284.615 25.327,283.000 22.164,283.000 20.280 L 283.000 19.833 292.603 19.833 L 302.205 19.833 302.095 18.875 C 302.035 18.348,301.913 17.542,301.824 17.083 C 301.735 16.625,301.627 16.066,301.584 15.841 C 301.466 15.219,300.371 13.086,299.997 12.747 C 299.815 12.583,299.667 12.363,299.667 12.260 C 299.667 11.941,296.926 9.500,296.568 9.500 C 296.502 9.500,296.059 9.316,295.582 9.090 C 295.106 8.865,294.498 8.643,294.233 8.598 C 291.449 8.123,291.069 8.105,289.083 8.357 M314.917 8.438 C 314.183 8.565,313.490 8.681,313.375 8.696 C 313.260 8.710,313.167 8.785,313.167 8.861 C 313.167 8.938,313.060 9.000,312.930 9.000 C 312.588 9.000,311.146 9.752,310.715 10.156 C 310.513 10.345,310.285 10.500,310.209 10.500 C 310.010 10.500,308.500 12.062,308.500 12.268 C 308.500 12.364,308.309 12.621,308.076 12.841 C 307.598 13.290,306.635 15.079,306.789 15.233 C 306.844 15.288,306.814 15.333,306.722 15.333 C 306.631 15.333,306.553 15.427,306.550 15.542 C 306.546 15.656,306.410 16.237,306.246 16.833 C 305.592 19.220,305.993 22.634,307.196 24.917 C 307.648 25.775,309.361 27.981,309.694 28.134 C 309.754 28.162,310.004 28.370,310.248 28.596 C 310.679 28.996,312.248 29.892,312.583 29.930 C 312.675 29.940,312.862 29.994,313.000 30.048 C 315.374 30.991,318.967 31.027,321.146 30.129 C 321.386 30.030,321.678 29.929,321.794 29.905 C 321.910 29.882,322.323 29.673,322.711 29.443 C 325.682 27.677,327.781 24.616,328.185 21.459 C 328.496 19.034,327.983 15.081,327.330 14.861 C 327.239 14.830,327.200 14.748,327.243 14.679 C 327.321 14.552,326.499 13.174,325.796 12.254 C 325.281 11.581,323.956 10.340,323.748 10.336 C 323.656 10.335,323.485 10.180,323.368 9.994 C 323.251 9.807,323.090 9.695,323.009 9.745 C 322.928 9.795,322.837 9.779,322.806 9.709 C 322.727 9.531,320.834 8.668,320.333 8.581 C 317.669 8.122,316.858 8.101,314.917 8.438 M343.083 8.323 C 342.808 8.399,342.314 8.469,341.985 8.480 C 341.305 8.503,338.695 9.732,338.556 10.095 C 338.505 10.226,338.377 10.333,338.271 10.333 C 338.042 10.333,336.348 11.967,336.300 12.233 C 336.282 12.334,336.226 11.592,336.175 10.583 L 336.083 8.750 334.624 8.702 L 333.165 8.654 333.207 23.285 L 333.250 37.917 334.706 37.965 L 336.162 38.013 336.206 32.487 L 336.250 26.960 337.000 27.689 C 337.842 28.506,339.312 29.554,339.618 29.555 C 339.728 29.555,339.786 29.609,339.745 29.674 C 339.671 29.795,341.645 30.484,342.468 30.625 C 344.431 30.961,346.716 30.775,348.250 30.155 C 348.525 30.044,348.869 29.939,349.014 29.923 C 349.159 29.907,349.541 29.692,349.863 29.447 C 350.185 29.201,350.510 29.000,350.585 29.000 C 350.660 29.000,350.841 28.889,350.986 28.754 C 351.131 28.619,351.545 28.263,351.905 27.963 C 352.807 27.212,354.467 24.909,354.681 24.112 C 354.779 23.751,354.923 23.335,355.002 23.186 C 355.661 21.948,355.699 17.714,355.067 16.021 C 354.840 15.414,354.624 14.790,354.588 14.635 C 354.404 13.841,351.522 10.333,351.053 10.333 C 350.967 10.333,350.751 10.198,350.573 10.033 C 350.164 9.654,348.242 8.729,347.583 8.595 C 346.052 8.283,343.735 8.143,343.083 8.323 M376.750 8.355 C 376.292 8.438,375.666 8.534,375.360 8.569 C 374.652 8.651,372.496 9.725,371.884 10.302 C 371.627 10.544,371.364 10.744,371.300 10.746 C 371.039 10.755,368.863 13.498,369.114 13.503 C 369.189 13.504,369.175 13.560,369.083 13.628 C 368.830 13.814,368.126 15.166,368.281 15.169 C 368.356 15.171,368.327 15.229,368.217 15.299 C 368.108 15.368,367.973 15.686,367.918 16.004 C 367.864 16.323,367.737 16.883,367.638 17.250 C 367.400 18.124,367.412 20.882,367.657 21.833 C 367.764 22.246,367.875 22.733,367.904 22.917 C 367.933 23.100,367.973 23.250,367.991 23.250 C 368.010 23.250,368.059 23.434,368.100 23.659 C 368.141 23.885,368.230 24.110,368.298 24.159 C 368.365 24.209,368.601 24.644,368.822 25.125 C 369.043 25.606,369.270 26.000,369.326 26.000 C 369.382 26.000,369.566 26.233,369.734 26.517 C 370.072 27.091,370.830 27.896,371.564 28.462 C 371.829 28.666,371.979 28.837,371.897 28.841 C 371.742 28.850,372.397 29.234,373.347 29.690 C 377.134 31.510,383.606 30.876,385.682 28.482 C 385.833 28.309,386.032 28.167,386.124 28.167 C 386.285 28.167,387.516 26.770,387.511 26.593 C 387.510 26.546,387.687 26.315,387.906 26.079 C 389.138 24.750,389.049 24.179,387.494 23.436 L 386.311 22.871 386.150 23.294 C 385.647 24.617,382.648 27.333,381.690 27.333 C 381.505 27.333,381.307 27.408,381.250 27.500 C 381.193 27.592,380.968 27.667,380.750 27.667 C 380.532 27.667,380.310 27.736,380.258 27.821 C 380.043 28.168,377.008 27.988,375.875 27.562 C 374.396 27.005,372.333 25.528,372.333 25.026 C 372.333 24.942,372.219 24.779,372.079 24.663 C 371.463 24.152,370.680 21.994,370.600 20.590 L 370.558 19.833 380.080 19.833 L 389.603 19.833 389.627 18.889 C 389.641 18.369,389.600 17.863,389.537 17.764 C 389.474 17.665,389.419 17.471,389.415 17.333 C 389.405 16.937,388.965 15.433,388.809 15.258 C 388.731 15.171,388.667 14.962,388.667 14.792 C 388.667 14.140,385.759 10.333,385.260 10.333 C 385.146 10.333,384.925 10.193,384.770 10.022 C 383.648 8.783,379.348 7.889,376.750 8.355 M109.060 8.872 C 109.077 8.992,109.301 9.490,109.556 9.979 C 109.812 10.468,109.985 10.904,109.940 10.949 C 109.895 10.994,110.047 11.380,110.276 11.807 C 110.506 12.234,110.723 12.733,110.758 12.917 C 110.820 13.240,111.217 14.182,112.163 16.250 C 112.751 17.537,113.055 18.229,113.077 18.333 C 113.087 18.379,113.191 18.590,113.309 18.802 C 113.427 19.015,113.550 19.326,113.582 19.494 C 113.615 19.662,113.824 20.201,114.048 20.692 C 115.010 22.802,115.167 23.173,115.167 23.341 C 115.167 23.439,115.226 23.483,115.298 23.439 C 115.370 23.394,115.444 23.540,115.463 23.764 C 115.481 23.988,115.700 24.564,115.948 25.044 C 116.197 25.524,116.383 25.979,116.362 26.055 C 116.341 26.131,116.589 26.713,116.912 27.347 C 117.235 27.981,117.461 28.500,117.414 28.500 C 117.366 28.500,117.518 28.875,117.750 29.333 C 118.202 30.225,118.909 30.509,119.097 29.875 C 119.145 29.715,119.292 29.371,119.425 29.111 C 119.558 28.852,119.667 28.533,119.667 28.403 C 119.667 28.273,119.740 28.167,119.830 28.167 C 119.920 28.167,120.039 27.960,120.094 27.708 C 120.216 27.152,120.703 26.104,120.875 26.028 C 120.944 25.997,121.000 25.864,121.000 25.733 C 121.000 25.601,121.216 25.026,121.480 24.455 C 122.219 22.855,122.394 22.427,122.362 22.292 C 122.346 22.223,122.400 22.167,122.481 22.167 C 122.602 22.167,122.750 21.868,122.894 21.333 C 122.949 21.130,123.897 18.999,124.303 18.167 C 124.548 17.662,124.731 17.194,124.708 17.125 C 124.685 17.056,124.884 16.650,125.150 16.222 L 125.634 15.445 126.234 16.726 C 126.563 17.431,126.833 18.038,126.833 18.075 C 126.833 18.113,127.074 18.655,127.368 19.280 C 127.661 19.905,127.886 20.473,127.868 20.542 C 127.849 20.610,127.908 20.667,128.000 20.667 C 128.092 20.667,128.167 20.781,128.167 20.921 C 128.167 21.061,128.504 21.888,128.917 22.759 C 129.329 23.630,129.667 24.419,129.667 24.513 C 129.667 24.607,129.811 24.961,129.987 25.300 C 130.721 26.715,131.500 28.481,131.500 28.732 C 131.500 28.879,131.561 29.000,131.636 29.000 C 131.710 29.000,131.874 29.262,132.000 29.583 C 132.375 30.538,133.333 30.359,133.333 29.334 C 133.333 29.165,133.390 29.003,133.458 28.972 C 133.603 28.908,134.333 27.454,134.333 27.230 C 134.333 27.148,134.523 26.725,134.754 26.290 C 134.985 25.856,135.135 25.500,135.085 25.500 C 135.036 25.500,135.260 24.975,135.583 24.334 C 135.906 23.693,136.166 23.112,136.162 23.043 C 136.150 22.855,136.721 21.597,136.866 21.493 C 136.935 21.443,137.012 21.218,137.038 20.993 C 137.063 20.768,137.121 20.546,137.167 20.500 C 137.349 20.317,137.833 19.293,137.833 19.091 C 137.833 18.972,138.027 18.528,138.265 18.104 C 138.502 17.679,138.831 16.976,138.996 16.541 C 139.434 15.385,141.128 11.487,141.406 10.993 C 141.688 10.492,142.161 9.172,142.164 8.875 C 142.166 8.726,141.793 8.667,140.847 8.667 C 139.434 8.667,139.000 8.758,139.000 9.057 C 139.000 9.160,138.820 9.621,138.601 10.081 C 137.629 12.117,137.334 12.867,137.439 13.036 C 137.506 13.145,137.474 13.170,137.359 13.099 C 137.247 13.030,137.167 13.083,137.167 13.226 C 137.167 13.362,136.975 13.855,136.740 14.322 C 136.505 14.790,136.286 15.302,136.253 15.461 C 136.220 15.620,135.931 16.314,135.610 17.003 C 135.289 17.692,134.974 18.460,134.912 18.711 C 134.849 18.962,134.742 19.167,134.675 19.167 C 134.608 19.167,134.417 19.617,134.250 20.167 C 134.083 20.717,133.893 21.167,133.826 21.167 C 133.707 21.167,133.496 21.681,133.415 22.167 C 133.392 22.304,133.182 22.749,132.948 23.156 L 132.522 23.895 132.405 23.430 C 132.341 23.174,132.111 22.632,131.894 22.224 C 131.677 21.816,131.500 21.384,131.500 21.264 C 131.500 21.145,131.315 20.774,131.088 20.440 C 130.862 20.106,130.727 19.833,130.788 19.833 C 130.850 19.833,130.810 19.743,130.700 19.633 C 130.590 19.523,130.500 19.336,130.500 19.217 C 130.500 19.098,130.275 18.525,130.000 17.943 C 129.725 17.361,129.500 16.798,129.500 16.692 C 129.500 16.586,129.421 16.500,129.323 16.500 C 129.226 16.500,129.185 16.438,129.232 16.363 C 129.278 16.288,129.170 15.986,128.991 15.693 C 128.813 15.399,128.667 15.071,128.667 14.964 C 128.667 14.772,128.206 13.749,127.031 11.333 C 126.697 10.646,126.422 10.008,126.420 9.917 C 126.404 9.137,125.083 8.232,125.083 9.000 C 125.083 9.137,125.044 9.287,124.995 9.333 C 124.947 9.379,124.658 9.979,124.353 10.667 C 123.505 12.582,123.098 13.481,122.522 14.719 C 122.231 15.343,122.033 15.918,122.081 15.996 C 122.129 16.074,122.112 16.163,122.043 16.194 C 121.893 16.260,121.279 17.436,121.234 17.743 C 121.217 17.860,120.961 18.472,120.665 19.103 C 120.097 20.317,119.864 20.838,119.411 21.917 C 118.606 23.831,118.433 23.989,118.177 23.042 C 118.084 22.698,117.905 22.267,117.778 22.083 C 117.651 21.900,117.451 21.453,117.333 21.090 C 117.214 20.727,116.937 20.069,116.715 19.629 C 116.494 19.189,116.282 18.666,116.244 18.468 C 116.206 18.270,116.091 18.056,115.990 17.994 C 115.888 17.931,115.814 17.813,115.826 17.731 C 115.847 17.576,115.607 16.964,114.814 15.153 C 114.550 14.550,114.333 14.002,114.333 13.936 C 114.333 13.869,114.112 13.369,113.842 12.824 C 113.571 12.279,113.386 11.833,113.429 11.833 C 113.473 11.833,113.379 11.590,113.220 11.292 C 113.061 10.994,112.922 10.713,112.912 10.667 C 112.901 10.621,112.809 10.396,112.707 10.167 C 112.605 9.938,112.454 9.525,112.372 9.250 L 112.223 8.750 110.625 8.702 C 109.386 8.666,109.035 8.704,109.060 8.872 M182.833 19.417 L 182.833 30.167 184.333 30.167 L 185.833 30.167 185.833 19.417 L 185.833 8.667 184.333 8.667 L 182.833 8.667 182.833 19.417 M70.621 11.232 C 70.677 11.288,70.964 11.333,71.259 11.333 C 71.806 11.333,73.983 12.249,74.206 12.572 C 74.273 12.670,74.329 12.701,74.331 12.642 C 74.335 12.477,76.000 14.143,76.000 14.312 C 76.000 14.393,76.117 14.556,76.260 14.675 C 76.561 14.925,77.390 16.645,77.623 17.500 C 78.033 19.012,77.696 21.865,76.961 23.111 C 76.781 23.417,76.688 23.667,76.754 23.667 C 76.886 23.667,75.949 24.844,75.094 25.750 C 74.792 26.071,74.496 26.333,74.437 26.333 C 74.378 26.333,74.020 26.558,73.640 26.833 C 73.261 27.108,72.807 27.333,72.632 27.333 C 72.434 27.333,72.359 27.406,72.433 27.526 C 72.502 27.638,72.479 27.673,72.377 27.610 C 72.281 27.551,71.885 27.614,71.497 27.751 C 70.372 28.148,67.652 28.002,66.917 27.506 C 66.825 27.444,66.432 27.293,66.044 27.171 C 65.656 27.048,65.213 26.810,65.060 26.641 C 64.907 26.472,64.707 26.333,64.616 26.333 C 64.349 26.333,62.499 24.287,62.394 23.875 C 62.341 23.669,62.218 23.500,62.121 23.500 C 62.024 23.500,61.994 23.451,62.054 23.390 C 62.114 23.330,62.097 23.199,62.016 23.099 C 61.231 22.135,61.143 17.829,61.877 16.375 C 62.121 15.894,62.274 15.500,62.217 15.500 C 62.161 15.500,62.251 15.350,62.417 15.167 C 62.583 14.983,62.659 14.833,62.587 14.833 C 62.514 14.833,62.653 14.678,62.894 14.488 C 63.136 14.298,63.333 14.035,63.333 13.905 C 63.333 13.774,63.397 13.667,63.474 13.667 C 63.552 13.667,63.886 13.404,64.216 13.083 C 64.547 12.762,64.896 12.500,64.992 12.500 C 65.088 12.500,65.167 12.433,65.167 12.351 C 65.167 12.270,65.485 12.074,65.875 11.917 C 66.265 11.760,66.771 11.553,67.000 11.458 C 67.229 11.363,67.615 11.300,67.858 11.320 C 68.101 11.339,68.338 11.294,68.384 11.219 C 68.479 11.065,70.465 11.076,70.621 11.232 M97.283 11.280 C 98.089 11.379,99.953 12.155,100.493 12.616 C 101.388 13.380,102.333 14.346,102.333 14.496 C 102.333 14.590,102.450 14.667,102.593 14.667 C 102.736 14.667,102.807 14.742,102.750 14.833 C 102.693 14.925,102.726 15.000,102.823 15.000 C 102.921 15.000,103.000 15.112,103.000 15.250 C 103.000 15.387,103.079 15.500,103.177 15.500 C 103.274 15.500,103.312 15.567,103.261 15.649 C 103.211 15.731,103.359 16.227,103.591 16.752 C 103.958 17.581,104.013 17.942,104.011 19.479 C 104.009 21.367,104.000 21.436,103.653 22.333 C 103.529 22.654,103.444 22.973,103.464 23.042 C 103.484 23.110,103.433 23.167,103.351 23.167 C 103.270 23.167,103.154 23.360,103.095 23.596 C 102.991 24.012,102.823 24.235,101.726 25.413 C 101.438 25.722,101.176 26.037,101.143 26.113 C 101.087 26.241,100.846 26.383,99.309 27.195 C 98.974 27.371,98.487 27.552,98.225 27.596 C 97.964 27.640,97.638 27.725,97.500 27.784 C 96.929 28.029,94.767 27.947,93.950 27.648 C 93.497 27.483,93.079 27.356,93.021 27.368 C 92.804 27.410,91.178 26.544,91.281 26.441 C 91.340 26.382,91.304 26.333,91.201 26.333 C 90.853 26.333,88.814 24.082,88.730 23.604 C 88.712 23.501,88.540 23.068,88.348 22.641 C 88.156 22.215,87.983 21.671,87.963 21.433 C 87.943 21.195,87.871 21.000,87.802 21.000 C 87.733 21.000,87.708 20.906,87.745 20.792 C 87.782 20.677,87.848 19.833,87.892 18.917 C 88.065 15.309,91.422 11.376,94.373 11.324 C 94.672 11.318,95.217 11.257,95.583 11.186 C 95.950 11.116,96.305 11.086,96.373 11.121 C 96.441 11.156,96.850 11.227,97.283 11.280 M266.537 11.326 C 266.969 11.415,267.622 11.641,267.988 11.827 C 268.354 12.014,268.731 12.167,268.825 12.167 C 269.150 12.167,271.689 14.579,271.619 14.822 C 271.605 14.874,271.722 15.110,271.880 15.346 C 272.688 16.554,273.261 19.561,272.942 20.917 C 272.719 21.865,272.065 23.604,271.840 23.849 C 271.699 24.003,271.289 24.550,270.929 25.064 C 270.569 25.579,270.219 26.000,270.149 26.000 C 270.080 26.000,269.925 26.096,269.804 26.214 C 267.909 28.054,262.723 28.533,260.958 27.030 C 260.798 26.893,260.666 26.850,260.664 26.933 C 260.663 27.015,260.606 27.005,260.539 26.909 C 260.472 26.813,260.183 26.571,259.898 26.372 C 259.203 25.887,258.508 25.208,257.982 24.500 C 257.523 23.881,256.944 22.833,257.062 22.833 C 257.100 22.833,256.990 22.377,256.816 21.818 C 256.344 20.302,256.404 18.192,256.963 16.667 C 257.013 16.529,257.066 16.379,257.080 16.333 C 257.203 15.931,257.793 14.889,257.958 14.783 C 258.073 14.710,258.167 14.577,258.167 14.487 C 258.167 14.350,259.027 13.460,260.000 12.590 C 260.137 12.467,260.640 12.196,261.118 11.989 C 261.595 11.781,261.956 11.564,261.921 11.507 C 261.862 11.411,262.351 11.327,263.278 11.271 C 263.476 11.260,263.676 11.213,263.722 11.167 C 263.847 11.041,265.645 11.143,266.537 11.326 M158.675 11.883 C 159.367 12.205,160.032 12.588,160.154 12.734 C 160.275 12.880,160.476 13.000,160.600 13.000 C 160.724 13.000,160.957 13.206,161.117 13.458 C 161.277 13.710,161.504 13.977,161.621 14.050 C 161.738 14.123,161.833 14.283,161.833 14.405 C 161.833 14.526,161.933 14.709,162.056 14.811 C 162.178 14.912,162.378 15.296,162.499 15.664 C 162.621 16.032,162.781 16.333,162.855 16.333 C 162.929 16.333,162.943 16.453,162.887 16.600 C 162.831 16.747,162.889 16.933,163.017 17.014 C 163.154 17.101,160.004 17.163,155.384 17.164 L 147.517 17.167 147.778 16.542 C 149.761 11.783,154.296 9.844,158.675 11.883 M229.242 11.794 C 231.450 12.767,233.397 14.912,233.740 16.750 C 234.119 18.778,234.159 19.372,233.990 20.445 C 233.892 21.071,233.795 21.744,233.776 21.940 C 233.741 22.284,233.259 23.331,232.917 23.806 C 228.345 30.152,218.266 27.680,217.551 20.037 C 217.459 19.056,217.890 16.823,218.288 16.215 C 218.426 16.005,218.483 15.833,218.416 15.833 C 218.349 15.833,218.490 15.576,218.730 15.261 C 218.970 14.946,219.167 14.628,219.167 14.553 C 219.167 14.230,221.807 12.000,222.188 12.000 C 222.319 12.000,222.592 11.884,222.795 11.742 C 223.854 11.000,227.506 11.029,229.242 11.794 M294.418 11.890 C 295.151 12.238,295.900 12.662,296.083 12.834 C 296.267 13.006,296.492 13.141,296.583 13.134 C 296.675 13.127,296.832 13.281,296.931 13.476 C 297.031 13.671,297.229 13.963,297.370 14.124 C 297.642 14.434,298.558 16.229,298.745 16.818 L 298.856 17.167 291.089 17.167 C 283.461 17.167,283.325 17.161,283.494 16.844 C 283.589 16.667,283.667 16.403,283.667 16.258 C 283.667 16.112,283.853 15.698,284.081 15.337 C 284.309 14.976,284.515 14.594,284.539 14.487 C 284.648 14.009,286.682 12.289,287.760 11.762 C 289.537 10.895,292.438 10.951,294.418 11.890 M320.052 11.700 C 320.585 11.926,321.168 12.236,321.346 12.389 C 321.524 12.542,321.737 12.667,321.817 12.667 C 321.898 12.667,322.009 12.784,322.064 12.927 C 322.119 13.071,322.240 13.141,322.332 13.084 C 322.424 13.027,322.500 13.058,322.500 13.154 C 322.500 13.249,322.759 13.610,323.076 13.955 C 324.030 14.995,324.089 15.076,324.327 15.674 C 324.453 15.991,324.624 16.340,324.708 16.449 C 325.228 17.133,325.480 19.933,325.147 21.333 C 325.049 21.746,324.954 22.170,324.935 22.275 C 324.917 22.380,324.821 22.568,324.721 22.692 C 324.622 22.815,324.490 23.083,324.427 23.287 C 324.173 24.117,322.384 26.333,321.968 26.333 C 321.886 26.333,321.729 26.413,321.618 26.510 C 321.348 26.747,320.292 27.386,320.083 27.438 C 317.772 28.022,316.700 28.076,315.133 27.691 C 314.794 27.607,314.463 27.586,314.398 27.644 C 314.333 27.702,314.325 27.671,314.379 27.575 C 314.436 27.474,314.163 27.307,313.739 27.181 C 313.333 27.061,313.000 26.895,313.000 26.811 C 313.000 26.728,312.796 26.567,312.547 26.455 C 312.298 26.342,311.829 25.958,311.506 25.601 C 311.182 25.243,310.742 24.779,310.528 24.569 C 310.315 24.359,310.125 24.081,310.106 23.952 C 310.087 23.823,309.954 23.537,309.811 23.317 C 308.991 22.057,308.787 18.155,309.462 16.640 C 309.653 16.213,309.758 15.808,309.696 15.739 C 309.634 15.670,309.670 15.663,309.775 15.723 C 309.891 15.789,310.035 15.641,310.135 15.352 C 310.477 14.371,312.485 12.406,313.461 12.096 C 313.666 12.031,313.833 11.895,313.833 11.794 C 313.833 11.694,313.881 11.658,313.939 11.716 C 313.996 11.774,314.203 11.735,314.397 11.630 C 315.451 11.058,318.633 11.097,320.052 11.700 M347.292 11.710 C 347.773 11.963,348.167 12.123,348.167 12.065 C 348.167 11.693,350.745 14.163,350.926 14.708 C 350.979 14.869,351.083 15.000,351.157 15.000 C 351.316 15.000,351.941 16.409,352.263 17.491 C 352.524 18.369,352.607 20.190,352.421 20.917 C 351.776 23.426,350.628 25.259,349.000 26.379 C 348.587 26.663,348.212 26.943,348.167 27.001 C 348.092 27.096,347.804 27.229,347.463 27.325 C 347.397 27.343,346.957 27.500,346.485 27.672 C 345.302 28.104,342.996 28.030,341.508 27.511 C 336.636 25.813,334.651 20.340,337.082 15.299 C 337.290 14.868,337.506 14.562,337.563 14.619 C 337.620 14.676,337.667 14.636,337.667 14.531 C 337.667 13.816,340.975 11.520,342.333 11.294 C 343.849 11.041,346.430 11.257,347.292 11.710 M381.750 11.749 C 383.291 12.473,384.180 13.215,385.145 14.583 C 385.554 15.164,386.167 16.630,386.167 17.030 C 386.167 17.105,382.712 17.167,378.489 17.167 L 370.811 17.167 370.924 16.792 C 370.987 16.585,371.185 16.174,371.364 15.878 C 371.543 15.582,371.643 15.263,371.585 15.170 C 371.528 15.076,371.544 15.000,371.621 15.000 C 371.698 15.000,371.899 14.756,372.067 14.458 C 372.539 13.622,373.983 12.363,374.999 11.903 C 375.504 11.674,376.029 11.422,376.167 11.343 C 376.805 10.974,380.703 11.258,381.750 11.749 M396.542 25.839 C 396.335 25.921,396.167 26.067,396.167 26.161 C 396.167 26.256,396.050 26.333,395.908 26.333 C 395.766 26.333,395.541 26.593,395.408 26.911 C 395.121 27.598,395.082 29.167,395.351 29.167 C 395.453 29.167,395.495 29.272,395.446 29.400 C 395.162 30.140,397.442 31.107,398.500 30.695 C 400.685 29.843,400.589 26.457,398.362 25.838 C 397.628 25.635,397.049 25.635,396.542 25.839 " stroke="none" fill="#c4c4c4" fill-rule="evenodd"></path><path id="path1" d="M61.396 10.750 C 61.396 11.758,61.424 12.149,61.457 11.619 C 61.490 11.088,61.490 10.263,61.456 9.786 C 61.422 9.308,61.395 9.742,61.396 10.750 M61.408 32.250 C 61.408 35.275,61.430 36.536,61.458 35.052 C 61.486 33.568,61.486 31.093,61.458 29.552 C 61.431 28.011,61.408 29.225,61.408 32.250 " stroke="none" fill="#c8c4c4" fill-rule="evenodd"></path></g></svg>