<svg id="Capa_1" data-name="Capa 1" xmlns="http://www.w3.org/2000/svg" xmlns:xlink="http://www.w3.org/1999/xlink" viewBox="0 0 1022.64 598.35"><defs><style>.cls-1{fill:url(#linear-gradient);}.cls-2{fill:#aeaeae;}</style><linearGradient id="linear-gradient" x1="1.36" y1="300.17" x2="452.97" y2="300.17" gradientUnits="userSpaceOnUse"><stop offset="0" stop-color="#518fca"/><stop offset="1" stop-color="#3e4a94"/></linearGradient></defs><title>Polis1-1</title><path class="cls-1" d="M227.17,1C102.46,1,1.36,102.1,1.36,226.81V599.34L82.1,509.43V226.25a143,143,0,1,1,93.71,134.28v86.2a225.09,225.09,0,0,0,51.36,5.89c124.71,0,225.8-101.1,225.8-225.81S351.88,1,227.17,1Z" transform="translate(-1.36 -0.99)"/><path class="cls-2" d="M682.52,268.55a95.73,95.73,0,0,1-6.82,36.39,83.61,83.61,0,0,1-19.24,28.87,89.35,89.35,0,0,1-29.57,18.89,106.64,106.64,0,0,1-75,0,89.64,89.64,0,0,1-29.38-18.89,83.49,83.49,0,0,1-19.25-28.87,100.49,100.49,0,0,1,0-72.78,83.55,83.55,0,0,1,19.25-28.86,89.48,89.48,0,0,1,29.38-18.89,106.5,106.5,0,0,1,75,0,89.2,89.2,0,0,1,29.57,18.89,83.66,83.66,0,0,1,19.24,28.86A95.76,95.76,0,0,1,682.52,268.55Zm-93.06,52.13q23.09,0,36.91-14.51t13.82-37.62q0-23.09-13.82-37.61t-36.91-14.52q-23.09,0-37.09,14.52t-14,37.61q0,23.1,14,37.62T589.46,320.68Z" transform="translate(-1.36 -0.99)"/><path class="cls-2" d="M715.76,355V106.56H757.4V355Z" transform="translate(-1.36 -0.99)"/><path class="cls-2" d="M824.22,161.49a27.49,27.49,0,0,1-27.64-27.64,27.05,27.05,0,0,1,8-19.94,28.08,28.08,0,0,1,39.36,0,27.41,27.41,0,0,1,7.87,19.94A27,27,0,0,1,844,153.44,26.5,26.5,0,0,1,824.22,161.49ZM803.58,355V182.13h41.63V355Z" transform="translate(-1.36 -0.99)"/><path class="cls-2" d="M978.86,231.82a17,17,0,0,0-7.7-12.95q-7-4.89-19.24-4.9-14,0-20.81,5.6a17.71,17.71,0,0,0-6.82,14.34q0,7.71,7.34,10.85a78.48,78.48,0,0,0,18.54,4.9q11.21,1.76,24,3.5a82.68,82.68,0,0,1,24,7,48.65,48.65,0,0,1,18.54,15q7.35,9.8,7.35,27.64a51,51,0,0,1-19.6,40.76,69.54,69.54,0,0,1-22.91,11.72,100.2,100.2,0,0,1-29.92,4.2,98.47,98.47,0,0,1-29.74-4.2,71.86,71.86,0,0,1-22.74-11.54,52.61,52.61,0,0,1-14.69-17.5,51.16,51.16,0,0,1-5.6-22.39h42a17.14,17.14,0,0,0,7.86,14q7.53,5.24,22.22,5.24,16.8,0,24-5.6A17.73,17.73,0,0,0,982,302.84q0-7.69-7.36-10.67a79.66,79.66,0,0,0-18.54-4.55q-11.21-1.58-24-3.32a86.17,86.17,0,0,1-24-6.82,46.11,46.11,0,0,1-18.55-15.22q-7.33-10.15-7.34-28.35a52,52,0,0,1,4.89-22.56A52.78,52.78,0,0,1,901,193.5a64.41,64.41,0,0,1,21.69-11.72,90.93,90.93,0,0,1,28.51-4.2,89.31,89.31,0,0,1,28.34,4.2,66.46,66.46,0,0,1,21.52,11.55,52.54,52.54,0,0,1,13.82,17.14,50.61,50.61,0,0,1,5.25,21.35Z" transform="translate(-1.36 -0.99)"/></svg>